<?xml version="1.0" encoding="UTF-8" standalone="no"?>
<!DOCTYPE svg PUBLIC "-//W3C//DTD SVG 1.1//EN"
 "http://www.w3.org/Graphics/SVG/1.1/DTD/svg11.dtd">
<!-- Generated by graphviz version 2.43.0 (0)
 -->
<!-- Title: Iter2 Pages: 1 -->
<svg width="1407pt" height="608pt"
 viewBox="0.00 0.00 1406.90 608.40" xmlns="http://www.w3.org/2000/svg" xmlns:xlink="http://www.w3.org/1999/xlink">
<g id="graph0" class="graph" transform="scale(1 1) rotate(0) translate(43.2 565.2)">
<title>Iter2</title>
<polygon fill="white" stroke="transparent" points="-43.2,43.2 -43.2,-565.2 1363.7,-565.2 1363.7,43.2 -43.2,43.2"/>
<g id="clust1" class="cluster">
<title>cluster_legend</title>
</g>
<!-- title -->
<g id="node1" class="node">
<title>title</title>
<text text-anchor="start" x="36.5" y="-474.6" font-family="Helvetica Neue" font-weight="bold" font-size="18.00">Iteration 2: Observable System</text>
<text text-anchor="start" x="13" y="-462.2" font-family="Helvetica Neue" font-size="11.00" fill="#666666">v0.9.0 → v0.9.8 · Mar 12&#45;17, 2026 · 34 reactive stream operators</text>
<text text-anchor="start" x="69.5" y="-441.8" font-family="Helvetica Neue" font-size="9.00" fill="#999999">RxJS&#45;style reactive pipelines in a stack&#45;based language</text>
</g>
<!-- leg_d -->
<g id="node2" class="node">
<title>leg_d</title>
<path fill="#4a90d9" stroke="black" stroke-width="2" d="M228.17,-271C228.17,-271 158.83,-271 158.83,-271 154.67,-271 150.5,-266.83 150.5,-262.67 150.5,-262.67 150.5,-254.33 150.5,-254.33 150.5,-250.17 154.67,-246 158.83,-246 158.83,-246 228.17,-246 228.17,-246 232.33,-246 236.5,-250.17 236.5,-254.33 236.5,-254.33 236.5,-262.67 236.5,-262.67 236.5,-266.83 232.33,-271 228.17,-271"/>
<text text-anchor="middle" x="193.5" y="-256.3" font-family="Helvetica Neue" font-size="9.00" fill="white">Design</text>
</g>
<!-- title&#45;&gt;leg_d -->
<!-- leg_p -->
<g id="node3" class="node">
<title>leg_p</title>
<path fill="#7bc67e" stroke="black" stroke-width="2" d="M228.17,-131C228.17,-131 158.83,-131 158.83,-131 154.67,-131 150.5,-126.83 150.5,-122.67 150.5,-122.67 150.5,-114.33 150.5,-114.33 150.5,-110.17 154.67,-106 158.83,-106 158.83,-106 228.17,-106 228.17,-106 232.33,-106 236.5,-110.17 236.5,-114.33 236.5,-114.33 236.5,-122.67 236.5,-122.67 236.5,-126.83 232.33,-131 228.17,-131"/>
<text text-anchor="middle" x="193.5" y="-116.3" font-family="Helvetica Neue" font-size="9.00" fill="white">Plan</text>
</g>
<!-- leg_d&#45;&gt;leg_p -->
<!-- leg_g -->
<g id="node4" class="node">
<title>leg_g</title>
<path fill="#d0021b" stroke="black" stroke-width="2" d="M228.17,-33C228.17,-33 158.83,-33 158.83,-33 154.67,-33 150.5,-28.83 150.5,-24.67 150.5,-24.67 150.5,-16.33 150.5,-16.33 150.5,-12.17 154.67,-8 158.83,-8 158.83,-8 228.17,-8 228.17,-8 232.33,-8 236.5,-12.17 236.5,-16.33 236.5,-16.33 236.5,-24.67 236.5,-24.67 236.5,-28.83 232.33,-33 228.17,-33"/>
<text text-anchor="middle" x="193.5" y="-18.3" font-family="Helvetica Neue" font-size="9.00" fill="white">Gap Analysis</text>
</g>
<!-- leg_p&#45;&gt;leg_g -->
<!-- obs_design -->
<g id="node5" class="node">
<title>obs_design</title>
<path fill="#4a90d9" stroke="black" stroke-width="2" d="M796.5,-522C796.5,-522 532.5,-522 532.5,-522 526.5,-522 520.5,-516 520.5,-510 520.5,-510 520.5,-417 520.5,-417 520.5,-411 526.5,-405 532.5,-405 532.5,-405 796.5,-405 796.5,-405 802.5,-405 808.5,-411 808.5,-417 808.5,-417 808.5,-510 808.5,-510 808.5,-516 802.5,-522 796.5,-522"/>
<text text-anchor="start" x="606.5" y="-507.2" font-family="Helvetica Neue" font-weight="bold" font-size="11.00" fill="white">Observable Design</text>
<text text-anchor="start" x="643" y="-497.8" font-family="Helvetica Neue" font-size="9.00" fill="white">March 12</text>
<text text-anchor="start" x="555.5" y="-478.6" font-family="Helvetica Neue" font-size="8.00" fill="white">Designed HeapObservable: linked&#45;list pipeline nodes</text>
<text text-anchor="start" x="578.5" y="-470.6" font-family="Helvetica Neue" font-size="8.00" fill="white">with per&#45;node state for closure emulation.</text>
<text text-anchor="start" x="584" y="-454.6" font-family="Helvetica Neue" font-size="8.00" fill="white">Chose </text>
<text text-anchor="start" x="612" y="-454.6" font-family="Helvetica Neue" font-weight="bold" font-size="8.00" fill="white">Approach 3B</text>
<text text-anchor="start" x="670" y="-454.6" font-family="Helvetica Neue" font-size="8.00" fill="white"> over alternatives:</text>
<text text-anchor="start" x="578.5" y="-446.6" font-family="Helvetica Neue" font-size="8.00" fill="white">• 3A: CREATE/DOES&gt; (too FORTH&#45;specific)</text>
<text text-anchor="start" x="599.5" y="-438.6" font-family="Helvetica Neue" font-size="8.00" fill="white">• 3C: stack passing (too fragile)</text>
<text text-anchor="start" x="585" y="-422.6" font-family="Helvetica Neue" font-size="8.00" fill="white">21 core operators: creation, transform,</text>
<text text-anchor="start" x="575" y="-414.6" font-family="Helvetica Neue" font-size="8.00" fill="white">accumulate, limiting, combination, terminal.</text>
</g>
<!-- obs_temporal -->
<g id="node6" class="node">
<title>obs_temporal</title>
<path fill="#4a90d9" stroke="black" stroke-width="2" d="M570.5,-313C570.5,-313 306.5,-313 306.5,-313 300.5,-313 294.5,-307 294.5,-301 294.5,-301 294.5,-216 294.5,-216 294.5,-210 300.5,-204 306.5,-204 306.5,-204 570.5,-204 570.5,-204 576.5,-204 582.5,-210 582.5,-216 582.5,-216 582.5,-301 582.5,-301 582.5,-307 576.5,-313 570.5,-313"/>
<text text-anchor="start" x="333" y="-298.2" font-family="Helvetica Neue" font-weight="bold" font-size="11.00" fill="white">Temporal Operators Design + Plan</text>
<text text-anchor="start" x="377" y="-288.8" font-family="Helvetica Neue" font-size="9.00" fill="white">March 15 · Two documents</text>
<text text-anchor="start" x="338" y="-269.6" font-family="Helvetica Neue" font-size="8.00" fill="white">Extended Observable with time&#45;aware operators.</text>
<text text-anchor="start" x="366.5" y="-261.6" font-family="Helvetica Neue" font-size="8.00" fill="white">534&#45;line design doc + 98&#45;line plan.</text>
<text text-anchor="start" x="368" y="-245.6" font-family="Helvetica Neue" font-weight="bold" font-size="8.00" fill="white">13 temporal operators</text>
<text text-anchor="start" x="468" y="-245.6" font-family="Helvetica Neue" font-size="8.00" fill="white"> in 3 tiers:</text>
<text text-anchor="start" x="351.5" y="-237.6" font-family="Helvetica Neue" font-size="8.00" fill="white">• Tier 1: delay, timeout, debounce, throttle</text>
<text text-anchor="start" x="346.5" y="-229.6" font-family="Helvetica Neue" font-size="8.00" fill="white">• Tier 2: buffer&#45;time, timestamp, time&#45;interval</text>
<text text-anchor="start" x="339" y="-221.6" font-family="Helvetica Neue" font-size="8.00" fill="white">• Tier 3: audit&#45;time, sample&#45;time, take&#45;until&#45;time,</text>
<text text-anchor="start" x="388.5" y="-213.6" font-family="Helvetica Neue" font-size="8.00" fill="white"> &#160;delay&#45;each, retry&#45;delay</text>
</g>
<!-- obs_design&#45;&gt;obs_temporal -->
<g id="edge4" class="edge">
<title>obs_design&#45;&gt;obs_temporal</title>
<path fill="none" stroke="#4a90d9" stroke-width="2" d="M600.34,-404.87C570.75,-378.29 535.62,-346.73 505.66,-319.83"/>
<polygon fill="#4a90d9" stroke="#4a90d9" stroke-width="2" points="507.94,-317.17 498.17,-313.09 503.27,-322.38 507.94,-317.17"/>
<text text-anchor="middle" x="597" y="-361.8" font-family="Helvetica Neue" font-size="9.00"> &#160;extends with</text>
<text text-anchor="middle" x="597" y="-351.8" font-family="Helvetica Neue" font-size="9.00"> &#160;time awareness</text>
</g>
<!-- avo -->
<g id="node7" class="node">
<title>avo</title>
<path fill="#4a90d9" stroke="black" stroke-width="2" d="M916.5,-309C916.5,-309 652.5,-309 652.5,-309 646.5,-309 640.5,-303 640.5,-297 640.5,-297 640.5,-220 640.5,-220 640.5,-214 646.5,-208 652.5,-208 652.5,-208 916.5,-208 916.5,-208 922.5,-208 928.5,-214 928.5,-220 928.5,-220 928.5,-297 928.5,-297 928.5,-303 922.5,-309 916.5,-309"/>
<text text-anchor="start" x="727" y="-294.2" font-family="Helvetica Neue" font-weight="bold" font-size="11.00" fill="white">AVO Design + Plan</text>
<text text-anchor="start" x="707.5" y="-284.8" font-family="Helvetica Neue" font-size="9.00" fill="white">March 16 · Async Via Observables</text>
<text text-anchor="start" x="685" y="-265.6" font-family="Helvetica Neue" font-size="8.00" fill="white">Vision: </text>
<text text-anchor="start" x="716" y="-265.6" font-family="Helvetica Neue" font-weight="bold" font-size="8.00" fill="white">unify ALL I/O as Observable streams</text>
<text text-anchor="start" x="881" y="-265.6" font-family="Helvetica Neue" font-size="8.00" fill="white">.</text>
<text text-anchor="start" x="764" y="-249.6" font-family="Helvetica Neue" font-size="8.00" fill="white">4 phases:</text>
<text text-anchor="start" x="665.5" y="-241.6" font-family="Helvetica Neue" font-size="8.00" fill="white">1. Buffer operators (buffer, buffer&#45;when, window, flat&#45;map)</text>
<text text-anchor="start" x="693" y="-233.6" font-family="Helvetica Neue" font-size="8.00" fill="white">2. Streaming file I/O (replace sync file words)</text>
<text text-anchor="start" x="699.5" y="-225.6" font-family="Helvetica Neue" font-size="8.00" fill="white">3. Streaming HTTP (replace http&#45;get/post)</text>
<text text-anchor="start" x="701.5" y="-217.6" font-family="Helvetica Neue" font-size="8.00" fill="white">4. Remove 13 synchronous file I/O words</text>
</g>
<!-- obs_design&#45;&gt;avo -->
<g id="edge5" class="edge">
<title>obs_design&#45;&gt;avo</title>
<path fill="none" stroke="#4a90d9" stroke-width="2" d="M698.57,-404.87C714.7,-377.58 733.93,-345.05 750.1,-317.69"/>
<polygon fill="#4a90d9" stroke="#4a90d9" stroke-width="2" points="753.16,-319.39 755.24,-309.01 747.13,-315.83 753.16,-319.39"/>
<text text-anchor="middle" x="768.5" y="-361.8" font-family="Helvetica Neue" font-size="9.00"> &#160;evolves into</text>
<text text-anchor="middle" x="768.5" y="-351.8" font-family="Helvetica Neue" font-size="9.00"> &#160;unified I/O vision</text>
</g>
<!-- rxjs_gap -->
<g id="node8" class="node">
<title>rxjs_gap</title>
<path fill="#d0021b" stroke="black" stroke-width="2" d="M1308.5,-518C1308.5,-518 1044.5,-518 1044.5,-518 1038.5,-518 1032.5,-512 1032.5,-506 1032.5,-506 1032.5,-421 1032.5,-421 1032.5,-415 1038.5,-409 1044.5,-409 1044.5,-409 1308.5,-409 1308.5,-409 1314.5,-409 1320.5,-415 1320.5,-421 1320.5,-421 1320.5,-506 1320.5,-506 1320.5,-512 1314.5,-518 1308.5,-518"/>
<text text-anchor="start" x="1121" y="-503.2" font-family="Helvetica Neue" font-weight="bold" font-size="11.00" fill="white">RxJS Gap Analysis</text>
<text text-anchor="start" x="1135.5" y="-493.8" font-family="Helvetica Neue" font-size="9.00" fill="white">March 17 · v0.9.0</text>
<text text-anchor="start" x="1090" y="-474.6" font-family="Helvetica Neue" font-size="8.00" fill="white">Scored </text>
<text text-anchor="start" x="1121" y="-474.6" font-family="Helvetica Neue" font-weight="bold" font-size="8.00" fill="white">40+ RxJS operators</text>
<text text-anchor="start" x="1208" y="-474.6" font-family="Helvetica Neue" font-size="8.00" fill="white"> on two axes:</text>
<text text-anchor="start" x="1092" y="-466.6" font-family="Helvetica Neue" font-size="8.00" fill="white">• Applicability (high/medium/low for ETIL)</text>
<text text-anchor="start" x="1084.5" y="-458.6" font-family="Helvetica Neue" font-size="8.00" fill="white">• Difficulty (easy/medium/hard to implement)</text>
<text text-anchor="start" x="1073.5" y="-442.6" font-family="Helvetica Neue" font-size="8.00" fill="white">Identified </text>
<text text-anchor="start" x="1115.5" y="-442.6" font-family="Helvetica Neue" font-weight="bold" font-size="8.00" fill="white">10 high&#45;applicability, easy</text>
<text text-anchor="start" x="1236.5" y="-442.6" font-family="Helvetica Neue" font-size="8.00" fill="white"> operators</text>
<text text-anchor="start" x="1084" y="-434.6" font-family="Helvetica Neue" font-size="8.00" fill="white">not yet implemented (tap, pairwise, first, last,</text>
<text text-anchor="start" x="1087" y="-426.6" font-family="Helvetica Neue" font-size="8.00" fill="white">take&#45;while, distinct&#45;until, start&#45;with, finalize,</text>
<text text-anchor="start" x="1136.5" y="-418.6" font-family="Helvetica Neue" font-size="8.00" fill="white">switch&#45;map, catch).</text>
</g>
<!-- rxjs_gap&#45;&gt;obs_design -->
<g id="edge7" class="edge">
<title>rxjs_gap&#45;&gt;obs_design</title>
<path fill="none" stroke="#d0021b" stroke-width="1.5" stroke-dasharray="5,2" d="M1032.45,-463.5C965.96,-463.5 886.92,-463.5 819.17,-463.5"/>
<polygon fill="#d0021b" stroke="#d0021b" stroke-width="1.5" points="818.82,-460 808.82,-463.5 818.82,-467 818.82,-460"/>
<text text-anchor="middle" x="920.5" y="-479.3" font-family="Helvetica Neue" font-size="9.00"> &#160;reviews what&#39;s</text>
<text text-anchor="middle" x="920.5" y="-469.3" font-family="Helvetica Neue" font-size="9.00"> &#160;been built (v0.9.0)</text>
</g>
<!-- obs_gap_plan -->
<g id="node9" class="node">
<title>obs_gap_plan</title>
<path fill="#7bc67e" stroke="black" stroke-width="2" d="M1308.5,-305C1308.5,-305 1044.5,-305 1044.5,-305 1038.5,-305 1032.5,-299 1032.5,-293 1032.5,-293 1032.5,-224 1032.5,-224 1032.5,-218 1038.5,-212 1044.5,-212 1044.5,-212 1308.5,-212 1308.5,-212 1314.5,-212 1320.5,-218 1320.5,-224 1320.5,-224 1320.5,-293 1320.5,-293 1320.5,-299 1314.5,-305 1308.5,-305"/>
<text text-anchor="start" x="1101" y="-290.2" font-family="Helvetica Neue" font-weight="bold" font-size="11.00" fill="white">Observable Gap Fill Plan</text>
<text text-anchor="start" x="1155" y="-280.8" font-family="Helvetica Neue" font-size="9.00" fill="white">March 17</text>
<text text-anchor="start" x="1097" y="-261.6" font-family="Helvetica Neue" font-size="8.00" fill="white">Two stages prioritized by gap analysis:</text>
<text text-anchor="start" x="1078.5" y="-245.6" font-family="Helvetica Neue" font-weight="bold" font-size="8.00" fill="white">Stage 1:</text>
<text text-anchor="start" x="1116.5" y="-245.6" font-family="Helvetica Neue" font-size="8.00" fill="white"> 8 easy operators with clear semantics</text>
<text text-anchor="start" x="1073.5" y="-237.6" font-family="Helvetica Neue" font-weight="bold" font-size="8.00" fill="white">Stage 2:</text>
<text text-anchor="start" x="1111.5" y="-237.6" font-family="Helvetica Neue" font-size="8.00" fill="white"> 2 medium operators (switch&#45;map, catch)</text>
<text text-anchor="start" x="1073.5" y="-221.6" font-family="Helvetica Neue" font-size="8.00" fill="white">Each with execution logic snippets and test cases.</text>
</g>
<!-- rxjs_gap&#45;&gt;obs_gap_plan -->
<g id="edge6" class="edge">
<title>rxjs_gap&#45;&gt;obs_gap_plan</title>
<path fill="none" stroke="#d0021b" stroke-width="2.5" d="M1176.5,-408.9C1176.5,-380 1176.5,-344.39 1176.5,-315.18"/>
<polygon fill="#d0021b" stroke="#d0021b" stroke-width="2.5" points="1180,-315.13 1176.5,-305.13 1173,-315.13 1180,-315.13"/>
<text text-anchor="middle" x="1231" y="-361.8" font-family="Helvetica Neue" font-size="9.00"> &#160;gap analysis prioritizes</text>
<text text-anchor="middle" x="1231" y="-351.8" font-family="Helvetica Neue" font-size="9.00"> &#160;implementation order</text>
</g>
</g>
</svg>
