<?xml version="1.0" encoding="UTF-8" standalone="no"?>
<!DOCTYPE svg PUBLIC "-//W3C//DTD SVG 1.1//EN"
 "http://www.w3.org/Graphics/SVG/1.1/DTD/svg11.dtd">
<!-- Generated by graphviz version 2.43.0 (0)
 -->
<!-- Title: Iter3 Pages: 1 -->
<svg width="924pt" height="1227pt"
 viewBox="0.00 0.00 924.40 1227.40" xmlns="http://www.w3.org/2000/svg" xmlns:xlink="http://www.w3.org/1999/xlink">
<g id="graph0" class="graph" transform="scale(1 1) rotate(0) translate(43.2 1184.2)">
<title>Iter3</title>
<polygon fill="white" stroke="transparent" points="-43.2,43.2 -43.2,-1184.2 881.2,-1184.2 881.2,43.2 -43.2,43.2"/>
<g id="clust1" class="cluster">
<title>cluster_legend</title>
</g>
<!-- title -->
<g id="node1" class="node">
<title>title</title>
<text text-anchor="start" x="47.5" y="-1120.6" font-family="Helvetica Neue" font-weight="bold" font-size="18.00">Iteration 3: Evolution Pipeline</text>
<text text-anchor="start" x="13" y="-1108.2" font-family="Helvetica Neue" font-size="11.00" fill="#666666">v1.0.0 → v1.5.0 · Mar 18&#45;19, 2026 · AST&#45;level genetic programming</text>
<text text-anchor="start" x="52" y="-1087.8" font-family="Helvetica Neue" font-size="9.00" fill="#999999">From &quot;primitives work&quot; to full evolutionary programming system</text>
</g>
<!-- leg_d -->
<g id="node2" class="node">
<title>leg_d</title>
<path fill="#4a90d9" stroke="black" stroke-width="2" d="M232.67,-905.5C232.67,-905.5 163.33,-905.5 163.33,-905.5 159.17,-905.5 155,-901.33 155,-897.17 155,-897.17 155,-888.83 155,-888.83 155,-884.67 159.17,-880.5 163.33,-880.5 163.33,-880.5 232.67,-880.5 232.67,-880.5 236.83,-880.5 241,-884.67 241,-888.83 241,-888.83 241,-897.17 241,-897.17 241,-901.33 236.83,-905.5 232.67,-905.5"/>
<text text-anchor="middle" x="198" y="-890.8" font-family="Helvetica Neue" font-size="9.00" fill="white">Design</text>
</g>
<!-- title&#45;&gt;leg_d -->
<!-- leg_p -->
<g id="node3" class="node">
<title>leg_p</title>
<path fill="#7bc67e" stroke="black" stroke-width="2" d="M232.67,-669C232.67,-669 163.33,-669 163.33,-669 159.17,-669 155,-664.83 155,-660.67 155,-660.67 155,-652.33 155,-652.33 155,-648.17 159.17,-644 163.33,-644 163.33,-644 232.67,-644 232.67,-644 236.83,-644 241,-648.17 241,-652.33 241,-652.33 241,-660.67 241,-660.67 241,-664.83 236.83,-669 232.67,-669"/>
<text text-anchor="middle" x="198" y="-654.3" font-family="Helvetica Neue" font-size="9.00" fill="white">Plan</text>
</g>
<!-- leg_d&#45;&gt;leg_p -->
<!-- leg_r -->
<g id="node4" class="node">
<title>leg_r</title>
<path fill="#f5a623" stroke="black" stroke-width="2" d="M232.67,-426C232.67,-426 163.33,-426 163.33,-426 159.17,-426 155,-421.83 155,-417.67 155,-417.67 155,-409.33 155,-409.33 155,-405.17 159.17,-401 163.33,-401 163.33,-401 232.67,-401 232.67,-401 236.83,-401 241,-405.17 241,-409.33 241,-409.33 241,-417.67 241,-417.67 241,-421.83 236.83,-426 232.67,-426"/>
<text text-anchor="middle" x="198" y="-411.3" font-family="Helvetica Neue" font-size="9.00" fill="white">Review</text>
</g>
<!-- leg_p&#45;&gt;leg_r -->
<!-- trigger -->
<g id="node5" class="node">
<title>trigger</title>
<text text-anchor="start" x="510" y="-1112.3" font-family="Helvetica Neue" font-weight="bold" font-size="9.00" fill="#333333">← From Iteration 1:</text>
<text text-anchor="start" x="607" y="-1112.3" font-family="Helvetica Neue" font-size="9.00" fill="#333333"> MLP Status Report (v1.0.0)</text>
<text text-anchor="start" x="467" y="-1103.3" font-family="Helvetica Neue" font-size="9.00" fill="#333333">Critical gaps: no TIL library, no selection engine, no evolution engine</text>
</g>
<!-- mlp_layers_plan -->
<g id="node6" class="node">
<title>mlp_layers_plan</title>
<path fill="#7bc67e" stroke="black" stroke-width="2" d="M772,-976C772,-976 472,-976 472,-976 466,-976 460,-970 460,-964 460,-964 460,-822 460,-822 460,-816 466,-810 472,-810 472,-810 772,-810 772,-810 778,-810 784,-816 784,-822 784,-822 784,-964 784,-964 784,-970 778,-976 772,-976"/>
<text text-anchor="start" x="559.5" y="-961.2" font-family="Helvetica Neue" font-weight="bold" font-size="11.00" fill="white">MLP Layers 1&#45;3 Plan</text>
<text text-anchor="start" x="600.5" y="-951.8" font-family="Helvetica Neue" font-size="9.00" fill="white">March 18</text>
<text text-anchor="start" x="525" y="-932.6" font-family="Helvetica Neue" font-size="8.00" fill="white">Three implementation layers to close the gaps:</text>
<text text-anchor="start" x="545.5" y="-913.6" font-family="Helvetica Neue" font-weight="bold" font-size="8.00" fill="white">Layer 1 — TIL MLP Library</text>
<text text-anchor="start" x="664.5" y="-913.6" font-family="Helvetica Neue" font-size="8.00" fill="white"> (mlp.til)</text>
<text text-anchor="start" x="524" y="-905.6" font-family="Helvetica Neue" font-size="8.00" fill="white"> &#160;make&#45;layer, make&#45;network, forward, backward,</text>
<text text-anchor="start" x="545.5" y="-897.6" font-family="Helvetica Neue" font-size="8.00" fill="white"> &#160;sgd&#45;update, train&#45;step, train, predict</text>
<text text-anchor="start" x="549.5" y="-889.6" font-family="Helvetica Neue" font-size="8.00" fill="white"> &#160;Prerequisite: mat&#45;col&#45;vec primitive</text>
<text text-anchor="start" x="561.5" y="-870.6" font-family="Helvetica Neue" font-weight="bold" font-size="8.00" fill="white">Layer 2 — SelectionEngine</text>
<text text-anchor="start" x="540" y="-862.6" font-family="Helvetica Neue" font-size="8.00" fill="white"> &#160;4 strategies: Latest, WeightedRandom,</text>
<text text-anchor="start" x="576.5" y="-854.6" font-family="Helvetica Neue" font-size="8.00" fill="white"> &#160;EpsilonGreedy, UCB1</text>
<text text-anchor="start" x="561" y="-835.6" font-family="Helvetica Neue" font-weight="bold" font-size="8.00" fill="white">Layer 3 — EvolutionEngine</text>
<text text-anchor="start" x="542.5" y="-827.6" font-family="Helvetica Neue" font-size="8.00" fill="white"> &#160;Genetic operators, fitness evaluation,</text>
<text text-anchor="start" x="569" y="-819.6" font-family="Helvetica Neue" font-size="8.00" fill="white"> &#160;population management</text>
</g>
<!-- trigger&#45;&gt;mlp_layers_plan -->
<g id="edge4" class="edge">
<title>trigger&#45;&gt;mlp_layers_plan</title>
<path fill="none" stroke="#333333" stroke-width="2.5" d="M619.03,-1091.34C616.87,-1077.95 614.14,-1058.85 613,-1042 611.79,-1024.01 611.91,-1004.79 612.73,-986.36"/>
<polygon fill="#333333" stroke="#333333" stroke-width="2.5" points="616.24,-986.38 613.26,-976.21 609.25,-986.02 616.24,-986.38"/>
<text text-anchor="middle" x="667.5" y="-1024.8" font-family="Helvetica Neue" font-size="9.00"> &#160;critical gaps drive plan</text>
</g>
<!-- mlp_layers_plan&#45;&gt;trigger -->
<g id="edge8" class="edge">
<title>mlp_layers_plan&#45;&gt;trigger</title>
<path fill="none" stroke="#7bc67e" stroke-width="1.5" stroke-dasharray="5,2" d="M724.33,-976.04C738.56,-996.87 744.58,-1019.69 732,-1042 720.73,-1061.97 700.79,-1076.63 680.95,-1087.01"/>
<polygon fill="#7bc67e" stroke="#7bc67e" stroke-width="1.5" points="679.29,-1083.93 671.87,-1091.49 682.39,-1090.21 679.29,-1083.93"/>
<text text-anchor="middle" x="788" y="-1034.8" font-family="Helvetica Neue" font-size="9.00"> &#160;implements sections</text>
<text text-anchor="middle" x="788" y="-1024.8" font-family="Helvetica Neue" font-size="9.00"> &#160;3&#45;6 of original MLP</text>
<text text-anchor="middle" x="788" y="-1014.8" font-family="Helvetica Neue" font-size="9.00"> &#160;design (Mar 10)</text>
</g>
<!-- mlp_layers_review -->
<g id="node7" class="node">
<title>mlp_layers_review</title>
<path fill="#f5a623" stroke="black" stroke-width="2" d="M772,-718C772,-718 472,-718 472,-718 466,-718 460,-712 460,-706 460,-706 460,-607 460,-607 460,-601 466,-595 472,-595 472,-595 772,-595 772,-595 778,-595 784,-601 784,-607 784,-607 784,-706 784,-706 784,-712 778,-718 772,-718"/>
<text text-anchor="start" x="565.5" y="-703.2" font-family="Helvetica Neue" font-weight="bold" font-size="11.00" fill="white">Layers 1&#45;3 Review</text>
<text text-anchor="start" x="552.5" y="-693.8" font-family="Helvetica Neue" font-size="9.00" fill="white">March 18 · v1.3.0 (same day!)</text>
<text text-anchor="start" x="523" y="-674.6" font-family="Helvetica Neue" font-size="8.00" fill="#90ee90">✓ Layer 1: MLP library working — 275 lines of TIL</text>
<text text-anchor="start" x="525" y="-666.6" font-family="Helvetica Neue" font-size="8.00" fill="#90ee90">✓ Layer 2: SelectionEngine with all 4 strategies</text>
<text text-anchor="start" x="531.5" y="-658.6" font-family="Helvetica Neue" font-size="8.00" fill="#90ee90">✓ Layer 3: EvolutionEngine with GeneticOps</text>
<text text-anchor="start" x="509.5" y="-639.6" font-family="Helvetica Neue" font-weight="bold" font-size="8.00" fill="white">XOR validation:</text>
<text text-anchor="start" x="580.5" y="-639.6" font-family="Helvetica Neue" font-size="8.00" fill="white"> trains to &lt;0.001 MSE in 2000 epochs</text>
<text text-anchor="start" x="517.5" y="-631.6" font-family="Helvetica Neue" font-size="8.00" fill="white">[0,0]→0.008 &#160;[0,1]→0.991 &#160;[1,0]→0.994 &#160;[1,1]→0.007</text>
<text text-anchor="start" x="504.5" y="-612.6" font-family="Helvetica Neue" font-weight="bold" font-size="8.00" fill="#ffb3b3">But:</text>
<text text-anchor="start" x="523.5" y="-612.6" font-family="Helvetica Neue" font-size="8.00" fill="#ffb3b3"> bytecode&#45;level random mutation produces garbage.</text>
<text text-anchor="start" x="522" y="-604.6" font-family="Helvetica Neue" font-size="8.00" fill="#ffb3b3">Need structured, type&#45;aware mutation approach.</text>
</g>
<!-- mlp_layers_plan&#45;&gt;mlp_layers_review -->
<g id="edge5" class="edge">
<title>mlp_layers_plan&#45;&gt;mlp_layers_review</title>
<path fill="none" stroke="#f5a623" stroke-width="2" d="M622,-809.98C622,-783.28 622,-753.89 622,-728.1"/>
<polygon fill="#f5a623" stroke="#f5a623" stroke-width="2" points="625.5,-728.04 622,-718.04 618.5,-728.04 625.5,-728.04"/>
<text text-anchor="middle" x="684" y="-766.8" font-family="Helvetica Neue" font-size="9.00"> &#160;same&#45;day implementation</text>
<text text-anchor="middle" x="684" y="-756.8" font-family="Helvetica Neue" font-size="9.00"> &#160;and review</text>
</g>
<!-- ast_design -->
<g id="node8" class="node">
<title>ast_design</title>
<path fill="#4a90d9" stroke="black" stroke-width="2" d="M772,-503C772,-503 472,-503 472,-503 466,-503 460,-497 460,-491 460,-491 460,-336 460,-336 460,-330 466,-324 472,-324 472,-324 772,-324 772,-324 778,-324 784,-330 784,-336 784,-336 784,-491 784,-491 784,-497 778,-503 772,-503"/>
<text text-anchor="start" x="556" y="-488.2" font-family="Helvetica Neue" font-weight="bold" font-size="11.00" fill="white">AST Evolution Design</text>
<text text-anchor="start" x="571.5" y="-478.8" font-family="Helvetica Neue" font-size="9.00" fill="white">March 19 · 500+ lines</text>
<text text-anchor="start" x="525" y="-459.6" font-family="Helvetica Neue" font-weight="bold" font-size="8.00" fill="white">Key insight:</text>
<text text-anchor="start" x="580" y="-459.6" font-family="Helvetica Neue" font-size="8.00" fill="white"> Don&#39;t mutate bytecode randomly.</text>
<text text-anchor="start" x="514.5" y="-451.6" font-family="Helvetica Neue" font-size="8.00" fill="white">Decompile to AST → mutate structurally → recompile.</text>
<text text-anchor="start" x="583.5" y="-432.6" font-family="Helvetica Neue" font-weight="bold" font-size="8.00" fill="white">7&#45;stage pipeline:</text>
<text text-anchor="start" x="518" y="-424.6" font-family="Helvetica Neue" font-size="8.00" fill="white"> &#160;0. Marker opcodes (compiler hints for decompiler)</text>
<text text-anchor="start" x="558" y="-416.6" font-family="Helvetica Neue" font-size="8.00" fill="white"> &#160;1. Bytecode → AST decompiler</text>
<text text-anchor="start" x="524" y="-408.6" font-family="Helvetica Neue" font-size="8.00" fill="white"> &#160;2. AST → bytecode compiler (round&#45;trip fidelity)</text>
<text text-anchor="start" x="548" y="-400.6" font-family="Helvetica Neue" font-size="8.00" fill="white"> &#160;3. Stack simulator + type inference</text>
<text text-anchor="start" x="509" y="-392.6" font-family="Helvetica Neue" font-size="8.00" fill="white"> &#160;4. Type&#45;directed repair (deterministic shuffle insertion)</text>
<text text-anchor="start" x="527" y="-384.6" font-family="Helvetica Neue" font-size="8.00" fill="white"> &#160;5. Semantic tags (tiered substitution queries)</text>
<text text-anchor="start" x="530.5" y="-376.6" font-family="Helvetica Neue" font-size="8.00" fill="white"> &#160;6. AST genetic operators (4 mutation types)</text>
<text text-anchor="start" x="593.5" y="-357.6" font-family="Helvetica Neue" font-weight="bold" font-size="8.00" fill="white">Innovations:</text>
<text text-anchor="start" x="524" y="-349.6" font-family="Helvetica Neue" font-size="8.00" fill="white"> &#160;• Stack shuffles as type permutation operators</text>
<text text-anchor="start" x="496" y="-341.6" font-family="Helvetica Neue" font-size="8.00" fill="white"> &#160;• 4 signature categories (fully/partially/opaque/constrained)</text>
<text text-anchor="start" x="526" y="-333.6" font-family="Helvetica Neue" font-size="8.00" fill="white"> &#160;• Compile&#45;time type inference for : definitions</text>
</g>
<!-- mlp_layers_review&#45;&gt;ast_design -->
<g id="edge6" class="edge">
<title>mlp_layers_review&#45;&gt;ast_design</title>
<path fill="none" stroke="#555555" stroke-width="2" stroke-dasharray="5,2" d="M622,-595C622,-570.28 622,-541.05 622,-513.39"/>
<polygon fill="#555555" stroke="#555555" stroke-width="2" points="625.5,-513.28 622,-503.28 618.5,-513.28 625.5,-513.28"/>
<text text-anchor="middle" x="683" y="-551.8" font-family="Helvetica Neue" font-size="9.00"> &#160;random mutation fails →</text>
<text text-anchor="middle" x="683" y="-541.8" font-family="Helvetica Neue" font-size="9.00"> &#160;need structural approach</text>
</g>
<!-- ast_plan -->
<g id="node9" class="node">
<title>ast_plan</title>
<path fill="#7bc67e" stroke="black" stroke-width="2" d="M772,-242C772,-242 472,-242 472,-242 466,-242 460,-236 460,-230 460,-230 460,-121 460,-121 460,-115 466,-109 472,-109 472,-109 772,-109 772,-109 778,-109 784,-115 784,-121 784,-121 784,-230 784,-230 784,-236 778,-242 772,-242"/>
<text text-anchor="start" x="513.5" y="-227.2" font-family="Helvetica Neue" font-weight="bold" font-size="11.00" fill="white">AST Evolution Implementation Plan</text>
<text text-anchor="start" x="560" y="-217.8" font-family="Helvetica Neue" font-size="9.00" fill="white">March 19 · v1.3.2 → v1.5.0</text>
<text text-anchor="start" x="505" y="-198.6" font-family="Helvetica Neue" font-size="8.00" fill="white">Each of 7 stages independently testable and mergeable:</text>
<text text-anchor="start" x="509" y="-182.6" font-family="Helvetica Neue" font-size="8.00" fill="white">Stage 0: BlockBegin/BlockEnd/BlockSeparator opcodes</text>
<text text-anchor="start" x="517" y="-174.6" font-family="Helvetica Neue" font-size="8.00" fill="white">Stage 1: AST types + recursive descent decompiler</text>
<text text-anchor="start" x="519" y="-166.6" font-family="Helvetica Neue" font-size="8.00" fill="white">Stage 2: AST compiler with backpatched branches</text>
<text text-anchor="start" x="538" y="-158.6" font-family="Helvetica Neue" font-size="8.00" fill="white">Stage 3: Stack simulator, signature index</text>
<text text-anchor="start" x="513.5" y="-150.6" font-family="Helvetica Neue" font-size="8.00" fill="white">Stage 4: Type&#45;directed repair (swap/rot/roll insertion)</text>
<text text-anchor="start" x="524.5" y="-142.6" font-family="Helvetica Neue" font-size="8.00" fill="white">Stage 5: Semantic tags on 22 matrix/MLP words</text>
<text text-anchor="start" x="500.5" y="-134.6" font-family="Helvetica Neue" font-size="8.00" fill="white">Stage 6: 4 genetic operators + EvolutionEngine integration</text>
<text text-anchor="start" x="556" y="-118.6" font-family="Helvetica Neue" font-weight="bold" font-size="8.00" fill="white">66 new tests</text>
<text text-anchor="start" x="614" y="-118.6" font-family="Helvetica Neue" font-size="8.00" fill="white"> across all stages.</text>
</g>
<!-- ast_design&#45;&gt;ast_plan -->
<g id="edge7" class="edge">
<title>ast_design&#45;&gt;ast_plan</title>
<path fill="none" stroke="#4a90d9" stroke-width="2.5" d="M622,-323.95C622,-300.47 622,-275.33 622,-252.58"/>
<polygon fill="#4a90d9" stroke="#4a90d9" stroke-width="2.5" points="625.5,-252.31 622,-242.31 618.5,-252.31 625.5,-252.31"/>
<text text-anchor="middle" x="670" y="-280.8" font-family="Helvetica Neue" font-size="9.00"> &#160;design informs plan</text>
</g>
<!-- next -->
<g id="node10" class="node">
<title>next</title>
<text text-anchor="start" x="498" y="-20.8" font-family="Helvetica Neue" font-weight="bold" font-size="9.00" fill="#333333">→ Drives Iteration 4:</text>
<text text-anchor="start" x="601" y="-20.8" font-family="Helvetica Neue" font-size="9.00" fill="#333333"> After all 7 stages implemented,</text>
<text text-anchor="start" x="498.5" y="-11.8" font-family="Helvetica Neue" font-size="9.00" fill="#333333">gap analysis reveals bugs and missing pieces (Mar 20)</text>
</g>
<!-- ast_plan&#45;&gt;next -->
<g id="edge9" class="edge">
<title>ast_plan&#45;&gt;next</title>
<path fill="none" stroke="#999999" stroke-dasharray="1,5" d="M622,-108.55C622,-86.83 622,-63.84 622,-46.59"/>
<polygon fill="#999999" stroke="#999999" points="625.5,-46.16 622,-36.16 618.5,-46.16 625.5,-46.16"/>
</g>
</g>
</svg>
