<?xml version="1.0" encoding="UTF-8" standalone="no"?>
<!DOCTYPE svg PUBLIC "-//W3C//DTD SVG 1.1//EN"
 "http://www.w3.org/Graphics/SVG/1.1/DTD/svg11.dtd">
<!-- Generated by graphviz version 2.43.0 (0)
 -->
<!-- Title: Overview Pages: 1 -->
<svg width="1422pt" height="709pt"
 viewBox="0.00 0.00 1422.12 708.56" xmlns="http://www.w3.org/2000/svg" xmlns:xlink="http://www.w3.org/1999/xlink">
<g id="graph0" class="graph" transform="scale(1 1) rotate(0) translate(43.2 665.36)">
<title>Overview</title>
<polygon fill="white" stroke="transparent" points="-43.2,43.2 -43.2,-665.36 1378.92,-665.36 1378.92,43.2 -43.2,43.2"/>
<g id="clust1" class="cluster">
<title>cluster_cycle</title>
<path fill="#fafafa" stroke="#888888" stroke-width="1.5" d="M119.2,-281.16C119.2,-281.16 1315.72,-281.16 1315.72,-281.16 1321.72,-281.16 1327.72,-287.16 1327.72,-293.16 1327.72,-293.16 1327.72,-426.16 1327.72,-426.16 1327.72,-432.16 1321.72,-438.16 1315.72,-438.16 1315.72,-438.16 119.2,-438.16 119.2,-438.16 113.2,-438.16 107.2,-432.16 107.2,-426.16 107.2,-426.16 107.2,-293.16 107.2,-293.16 107.2,-287.16 113.2,-281.16 119.2,-281.16"/>
<text text-anchor="start" x="662.46" y="-426.36" font-family="Helvetica Neue" font-weight="bold" font-size="11.00" fill="#333333">The Cycle Pattern</text>
</g>
<!-- title -->
<g id="node1" class="node">
<title>title</title>
<text text-anchor="start" x="11" y="-47.76" font-family="Helvetica Neue" font-weight="bold" font-size="18.00">The Design&#45;Plan&#45;Review Macro Cycle</text>
<text text-anchor="start" x="85.5" y="-35.36" font-family="Helvetica Neue" font-size="11.00" fill="#666666">4 iterations · 10 days · v0.8.15 → v1.6.0</text>
<text text-anchor="start" x="71" y="-15.96" font-family="Helvetica Neue" font-size="9.00" fill="#999999">Each iteration&#39;s review feeds the next iteration&#39;s design</text>
</g>
<!-- iter1 -->
<g id="node2" class="node">
<title>iter1</title>
<path fill="#4a90d9" stroke="black" stroke-width="2" d="M263.5,-194.66C263.5,-194.66 129.5,-194.66 129.5,-194.66 123.5,-194.66 117.5,-188.66 117.5,-182.66 117.5,-182.66 117.5,-123.66 117.5,-123.66 117.5,-117.66 123.5,-111.66 129.5,-111.66 129.5,-111.66 263.5,-111.66 263.5,-111.66 269.5,-111.66 275.5,-117.66 275.5,-123.66 275.5,-123.66 275.5,-182.66 275.5,-182.66 275.5,-188.66 269.5,-194.66 263.5,-194.66"/>
<text text-anchor="start" x="166.5" y="-180.66" font-family="Helvetica Neue" font-weight="bold" font-size="10.00" fill="white">Iteration 1</text>
<text text-anchor="start" x="164" y="-171.46" font-family="Helvetica Neue" font-size="9.00" fill="white">MLP Feasibility</text>
<text text-anchor="start" x="175.5" y="-163.26" font-family="Helvetica Neue" font-size="8.00" fill="#cccccc">Mar 10&#45;18</text>
<text text-anchor="start" x="149" y="-145.26" font-family="Helvetica Neue" font-size="8.00" fill="white">Design → Plan → Status</text>
<text text-anchor="start" x="149.5" y="-128.06" font-family="Helvetica Neue" font-size="7.00" fill="white">17 C++ matrix primitives</text>
<text text-anchor="start" x="166" y="-121.06" font-family="Helvetica Neue" font-size="7.00" fill="white">v0.8.15 → v1.0.0</text>
</g>
<!-- iter2 -->
<g id="node3" class="node">
<title>iter2</title>
<path fill="#7bc67e" stroke="black" stroke-width="2" d="M739,-257.66C739,-257.66 605,-257.66 605,-257.66 599,-257.66 593,-251.66 593,-245.66 593,-245.66 593,-186.66 593,-186.66 593,-180.66 599,-174.66 605,-174.66 605,-174.66 739,-174.66 739,-174.66 745,-174.66 751,-180.66 751,-186.66 751,-186.66 751,-245.66 751,-245.66 751,-251.66 745,-257.66 739,-257.66"/>
<text text-anchor="start" x="642" y="-243.66" font-family="Helvetica Neue" font-weight="bold" font-size="10.00" fill="white">Iteration 2</text>
<text text-anchor="start" x="628" y="-234.46" font-family="Helvetica Neue" font-size="9.00" fill="white">Observable System</text>
<text text-anchor="start" x="651" y="-226.26" font-family="Helvetica Neue" font-size="8.00" fill="#cccccc">Mar 12&#45;17</text>
<text text-anchor="start" x="615" y="-208.26" font-family="Helvetica Neue" font-size="8.00" fill="white">Design → Plan → Gap → Plan</text>
<text text-anchor="start" x="632.5" y="-191.06" font-family="Helvetica Neue" font-size="7.00" fill="white">34 reactive operators</text>
<text text-anchor="start" x="644" y="-184.06" font-family="Helvetica Neue" font-size="7.00" fill="white">v0.9.0 → v0.9.8</text>
</g>
<!-- iter1&#45;&gt;iter2 -->
<g id="edge3" class="edge">
<title>iter1&#45;&gt;iter2</title>
<path fill="none" stroke="#999999" stroke-width="1.5" stroke-dasharray="5,2" d="M275.69,-163.56C360.17,-174.8 494.49,-192.67 582.71,-204.41"/>
<polygon fill="#999999" stroke="#999999" stroke-width="1.5" points="582.32,-207.89 592.69,-205.74 583.24,-200.95 582.32,-207.89"/>
<text text-anchor="middle" x="493" y="-209.76" font-family="Helvetica Neue" font-size="8.00"> &#160;parallel track</text>
<text text-anchor="middle" x="493" y="-200.76" font-family="Helvetica Neue" font-size="8.00"> &#160;(different subsystem)</text>
</g>
<!-- iter3 -->
<g id="node4" class="node">
<title>iter3</title>
<path fill="#f5a623" stroke="black" stroke-width="2" d="M739,-131.66C739,-131.66 605,-131.66 605,-131.66 599,-131.66 593,-125.66 593,-119.66 593,-119.66 593,-60.66 593,-60.66 593,-54.66 599,-48.66 605,-48.66 605,-48.66 739,-48.66 739,-48.66 745,-48.66 751,-54.66 751,-60.66 751,-60.66 751,-119.66 751,-119.66 751,-125.66 745,-131.66 739,-131.66"/>
<text text-anchor="start" x="642" y="-117.66" font-family="Helvetica Neue" font-weight="bold" font-size="10.00" fill="white">Iteration 3</text>
<text text-anchor="start" x="632" y="-108.46" font-family="Helvetica Neue" font-size="9.00" fill="white">Evolution Pipeline</text>
<text text-anchor="start" x="651" y="-100.26" font-family="Helvetica Neue" font-size="8.00" fill="#cccccc">Mar 18&#45;19</text>
<text text-anchor="start" x="608.5" y="-82.26" font-family="Helvetica Neue" font-size="8.00" fill="white">Plan → Review → Design → Plan</text>
<text text-anchor="start" x="615" y="-65.06" font-family="Helvetica Neue" font-size="7.00" fill="white">AST&#45;level genetic programming</text>
<text text-anchor="start" x="644" y="-58.06" font-family="Helvetica Neue" font-size="7.00" fill="white">v1.0.0 → v1.5.0</text>
</g>
<!-- iter1&#45;&gt;iter3 -->
<g id="edge1" class="edge">
<title>iter1&#45;&gt;iter3</title>
<path fill="none" stroke="#333333" stroke-width="3" d="M275.69,-142.76C360.17,-131.52 494.49,-113.64 582.71,-101.91"/>
<polygon fill="#333333" stroke="#333333" stroke-width="3" points="583.24,-105.37 592.69,-100.58 582.32,-98.43 583.24,-105.37"/>
<text text-anchor="middle" x="493" y="-131.76" font-family="Helvetica Neue" font-size="8.00"> &#160;status report&#39;s</text>
<text text-anchor="middle" x="493" y="-122.76" font-family="Helvetica Neue" font-size="8.00"> &#160;critical gaps</text>
</g>
<!-- iter4 -->
<g id="node5" class="node">
<title>iter4</title>
<path fill="#d0021b" stroke="black" stroke-width="2" d="M1075,-131.66C1075,-131.66 941,-131.66 941,-131.66 935,-131.66 929,-125.66 929,-119.66 929,-119.66 929,-60.66 929,-60.66 929,-54.66 935,-48.66 941,-48.66 941,-48.66 1075,-48.66 1075,-48.66 1081,-48.66 1087,-54.66 1087,-60.66 1087,-60.66 1087,-119.66 1087,-119.66 1087,-125.66 1081,-131.66 1075,-131.66"/>
<text text-anchor="start" x="978" y="-117.66" font-family="Helvetica Neue" font-weight="bold" font-size="10.00" fill="white">Iteration 4</text>
<text text-anchor="start" x="984" y="-108.46" font-family="Helvetica Neue" font-size="9.00" fill="white">Hardening</text>
<text text-anchor="start" x="994" y="-100.26" font-family="Helvetica Neue" font-size="8.00" fill="#cccccc">Mar 20</text>
<text text-anchor="start" x="955" y="-82.26" font-family="Helvetica Neue" font-size="8.00" fill="white">Gap → Plan → Assessment</text>
<text text-anchor="start" x="955" y="-65.06" font-family="Helvetica Neue" font-size="7.00" fill="white">Zero warnings, retrospective</text>
<text text-anchor="start" x="980" y="-58.06" font-family="Helvetica Neue" font-size="7.00" fill="white">v1.5.0 → v1.6.0</text>
</g>
<!-- iter3&#45;&gt;iter4 -->
<g id="edge2" class="edge">
<title>iter3&#45;&gt;iter4</title>
<path fill="none" stroke="#333333" stroke-width="3" d="M751.31,-90.16C801.47,-90.16 866.67,-90.16 918.68,-90.16"/>
<polygon fill="#333333" stroke="#333333" stroke-width="3" points="918.89,-93.66 928.89,-90.16 918.89,-86.66 918.89,-93.66"/>
<text text-anchor="middle" x="840" y="-101.76" font-family="Helvetica Neue" font-size="8.00"> &#160;implementation</text>
<text text-anchor="middle" x="840" y="-92.76" font-family="Helvetica Neue" font-size="8.00"> &#160;done → audit</text>
</g>
<!-- iter4&#45;&gt;iter1 -->
<g id="edge4" class="edge">
<title>iter4&#45;&gt;iter1</title>
<path fill="none" stroke="#f5a623" stroke-width="2.5" stroke-dasharray="5,2" d="M928.93,-58.58C878.98,-40.11 812.27,-18.62 751,-9.16 681.6,1.56 661.96,4.12 593,-9.16 498.99,-27.26 482.98,-56.47 393,-89.16 358.17,-101.81 319.46,-114.72 285.73,-125.6"/>
<polygon fill="#f5a623" stroke="#f5a623" stroke-width="2.5" points="284.35,-122.37 275.9,-128.76 286.49,-129.03 284.35,-122.37"/>
<text text-anchor="middle" x="672" y="-20.76" font-family="Helvetica Neue" font-size="8.00"> &#160;final assessment compares</text>
<text text-anchor="middle" x="672" y="-11.76" font-family="Helvetica Neue" font-size="8.00"> &#160;v1.6.0 against v0.8.15 goals</text>
</g>
<!-- c_d -->
<g id="node6" class="node">
<title>c_d</title>
<ellipse fill="#4a90d9" stroke="black" stroke-width="2" cx="196.5" cy="-360.16" rx="69.09" ry="26.33"/>
<text text-anchor="start" x="177" y="-365.46" font-family="Helvetica Neue" font-weight="bold" font-size="9.00" fill="white">DESIGN</text>
<text text-anchor="start" x="171" y="-358.06" font-family="Helvetica Neue" font-size="7.00" fill="white">analyze gaps,</text>
<text text-anchor="start" x="158.5" y="-351.06" font-family="Helvetica Neue" font-size="7.00" fill="white">propose architecture</text>
</g>
<!-- c_p -->
<g id="node7" class="node">
<title>c_p</title>
<ellipse fill="#7bc67e" stroke="black" stroke-width="2" cx="672" cy="-327.16" rx="65.11" ry="26.33"/>
<text text-anchor="start" x="658" y="-332.46" font-family="Helvetica Neue" font-weight="bold" font-size="9.00" fill="white">PLAN</text>
<text text-anchor="start" x="639" y="-325.06" font-family="Helvetica Neue" font-size="7.00" fill="white">break into stages,</text>
<text text-anchor="start" x="637" y="-318.06" font-family="Helvetica Neue" font-size="7.00" fill="white">estimate, prioritize</text>
</g>
<!-- c_d&#45;&gt;c_p -->
<g id="edge5" class="edge">
<title>c_d&#45;&gt;c_p</title>
<path fill="none" stroke="#333333" stroke-width="2.5" d="M264.84,-355.47C352.85,-349.33 506.46,-338.63 597.44,-332.29"/>
<polygon fill="#333333" stroke="#333333" stroke-width="2.5" points="597.94,-335.76 607.68,-331.57 597.46,-328.78 597.94,-335.76"/>
</g>
<!-- c_i -->
<g id="node8" class="node">
<title>c_i</title>
<ellipse fill="#50e3c2" stroke="black" stroke-width="2" cx="1008" cy="-327.16" rx="64.19" ry="26.33"/>
<text text-anchor="start" x="978" y="-332.46" font-family="Helvetica Neue" font-weight="bold" font-size="9.00" fill="white">IMPLEMENT</text>
<text text-anchor="start" x="974" y="-325.06" font-family="Helvetica Neue" font-size="7.00" fill="white">branch, code, test,</text>
<text text-anchor="start" x="973.5" y="-318.06" font-family="Helvetica Neue" font-size="7.00" fill="white">super&#45;push, deploy</text>
</g>
<!-- c_p&#45;&gt;c_i -->
<g id="edge6" class="edge">
<title>c_p&#45;&gt;c_i</title>
<path fill="none" stroke="#333333" stroke-width="2.5" d="M737.4,-327.16C793.46,-327.16 874.71,-327.16 933.34,-327.16"/>
<polygon fill="#333333" stroke="#333333" stroke-width="2.5" points="933.65,-330.66 943.65,-327.16 933.65,-323.66 933.65,-330.66"/>
</g>
<!-- c_r -->
<g id="node9" class="node">
<title>c_r</title>
<ellipse fill="#f5a623" stroke="black" stroke-width="2" cx="1251.86" cy="-350.16" rx="55.72" ry="26.33"/>
<text text-anchor="start" x="1232.36" y="-355.46" font-family="Helvetica Neue" font-weight="bold" font-size="9.00" fill="white">REVIEW</text>
<text text-anchor="start" x="1227.36" y="-348.06" font-family="Helvetica Neue" font-size="7.00" fill="white">gap analysis,</text>
<text text-anchor="start" x="1223.36" y="-341.06" font-family="Helvetica Neue" font-size="7.00" fill="white">assess vs goals</text>
</g>
<!-- c_i&#45;&gt;c_r -->
<g id="edge7" class="edge">
<title>c_i&#45;&gt;c_r</title>
<path fill="none" stroke="#333333" stroke-width="2.5" d="M1070.97,-333.05C1106.38,-336.42 1150.73,-340.64 1186.53,-344.04"/>
<polygon fill="#333333" stroke="#333333" stroke-width="2.5" points="1186.58,-347.56 1196.86,-345.02 1187.24,-340.59 1186.58,-347.56"/>
</g>
<!-- c_r&#45;&gt;c_d -->
<g id="edge8" class="edge">
<title>c_r&#45;&gt;c_d</title>
<path fill="none" stroke="#333333" stroke-width="2.5" d="M1199.8,-359.99C1167.58,-365.68 1125.02,-372.28 1087,-375.16 787.41,-397.88 429.51,-377.41 274.91,-366.27"/>
<polygon fill="#333333" stroke="#333333" stroke-width="2.5" points="274.8,-362.75 264.57,-365.52 274.29,-369.73 274.8,-362.75"/>
<text text-anchor="middle" x="840" y="-396.76" font-family="Helvetica Neue" font-size="8.00"> &#160;gaps feed</text>
<text text-anchor="middle" x="840" y="-387.76" font-family="Helvetica Neue" font-size="8.00"> &#160;next cycle</text>
</g>
<!-- summary -->
<g id="node10" class="node">
<title>summary</title>
<polygon fill="#333333" stroke="transparent" points="96.5,-590.16 96.5,-615.16 296.5,-615.16 296.5,-590.16 96.5,-590.16"/>
<polygon fill="none" stroke="black" points="96.5,-590.16 96.5,-615.16 296.5,-615.16 296.5,-590.16 96.5,-590.16"/>
<text text-anchor="start" x="103.5" y="-601.16" font-family="Helvetica Neue" font-weight="bold" font-size="10.00" fill="white">20 Design Documents in 10 Days</text>
<polygon fill="#4a90d9" stroke="transparent" points="96.5,-565.16 96.5,-590.16 215.5,-590.16 215.5,-565.16 96.5,-565.16"/>
<polygon fill="none" stroke="black" points="96.5,-565.16 96.5,-590.16 215.5,-590.16 215.5,-565.16 96.5,-565.16"/>
<text text-anchor="start" x="113.5" y="-575.16" font-family="Helvetica Neue" font-size="10.00" fill="white">Design / Analysis</text>
<polygon fill="#ebf5fb" stroke="transparent" points="215.5,-565.16 215.5,-590.16 296.5,-590.16 296.5,-565.16 215.5,-565.16"/>
<polygon fill="none" stroke="black" points="215.5,-565.16 215.5,-590.16 296.5,-590.16 296.5,-565.16 215.5,-565.16"/>
<text text-anchor="start" x="222.5" y="-575.16" font-family="Helvetica Neue" font-size="10.00"> 7 documents</text>
<polygon fill="#7bc67e" stroke="transparent" points="96.5,-540.16 96.5,-565.16 215.5,-565.16 215.5,-540.16 96.5,-540.16"/>
<polygon fill="none" stroke="black" points="96.5,-540.16 96.5,-565.16 215.5,-565.16 215.5,-540.16 96.5,-540.16"/>
<text text-anchor="start" x="104.5" y="-550.16" font-family="Helvetica Neue" font-size="10.00" fill="white">Implementation Plan</text>
<polygon fill="#f0fff0" stroke="transparent" points="215.5,-540.16 215.5,-565.16 296.5,-565.16 296.5,-540.16 215.5,-540.16"/>
<polygon fill="none" stroke="black" points="215.5,-540.16 215.5,-565.16 296.5,-565.16 296.5,-540.16 215.5,-540.16"/>
<text text-anchor="start" x="222.5" y="-550.16" font-family="Helvetica Neue" font-size="10.00"> 8 documents</text>
<polygon fill="#f5a623" stroke="transparent" points="96.5,-515.16 96.5,-540.16 215.5,-540.16 215.5,-515.16 96.5,-515.16"/>
<polygon fill="none" stroke="black" points="96.5,-515.16 96.5,-540.16 215.5,-540.16 215.5,-515.16 96.5,-515.16"/>
<text text-anchor="start" x="103.5" y="-525.16" font-family="Helvetica Neue" font-size="10.00" fill="white">Review / Assessment</text>
<polygon fill="#fff8e1" stroke="transparent" points="215.5,-515.16 215.5,-540.16 296.5,-540.16 296.5,-515.16 215.5,-515.16"/>
<polygon fill="none" stroke="black" points="215.5,-515.16 215.5,-540.16 296.5,-540.16 296.5,-515.16 215.5,-515.16"/>
<text text-anchor="start" x="222.5" y="-525.16" font-family="Helvetica Neue" font-size="10.00"> 2 documents</text>
<polygon fill="#d0021b" stroke="transparent" points="96.5,-490.16 96.5,-515.16 215.5,-515.16 215.5,-490.16 96.5,-490.16"/>
<polygon fill="none" stroke="black" points="96.5,-490.16 96.5,-515.16 215.5,-515.16 215.5,-490.16 96.5,-490.16"/>
<text text-anchor="start" x="124" y="-500.16" font-family="Helvetica Neue" font-size="10.00" fill="white">Gap Analysis</text>
<polygon fill="#feecec" stroke="transparent" points="215.5,-490.16 215.5,-515.16 296.5,-515.16 296.5,-490.16 215.5,-490.16"/>
<polygon fill="none" stroke="black" points="215.5,-490.16 215.5,-515.16 296.5,-515.16 296.5,-490.16 215.5,-490.16"/>
<text text-anchor="start" x="222.5" y="-500.16" font-family="Helvetica Neue" font-size="10.00"> 2 documents</text>
<polygon fill="#bd10e0" stroke="transparent" points="96.5,-465.16 96.5,-490.16 215.5,-490.16 215.5,-465.16 96.5,-465.16"/>
<polygon fill="none" stroke="black" points="96.5,-465.16 96.5,-490.16 215.5,-490.16 215.5,-465.16 96.5,-465.16"/>
<text text-anchor="start" x="122.5" y="-475.16" font-family="Helvetica Neue" font-size="10.00" fill="white">Status Report</text>
<polygon fill="#f5eef8" stroke="transparent" points="215.5,-465.16 215.5,-490.16 296.5,-490.16 296.5,-465.16 215.5,-465.16"/>
<polygon fill="none" stroke="black" points="215.5,-465.16 215.5,-490.16 296.5,-490.16 296.5,-465.16 215.5,-465.16"/>
<text text-anchor="start" x="225.5" y="-475.16" font-family="Helvetica Neue" font-size="10.00"> 1 document</text>
</g>
</g>
</svg>
