<?xml version="1.0" encoding="UTF-8" standalone="no"?>
<!DOCTYPE svg PUBLIC "-//W3C//DTD SVG 1.1//EN"
 "http://www.w3.org/Graphics/SVG/1.1/DTD/svg11.dtd">
<!-- Generated by graphviz version 2.43.0 (0)
 -->
<!-- Title: Iter4 Pages: 1 -->
<svg width="1354pt" height="994pt"
 viewBox="0.00 0.00 1354.40 994.40" xmlns="http://www.w3.org/2000/svg" xmlns:xlink="http://www.w3.org/1999/xlink">
<g id="graph0" class="graph" transform="scale(1 1) rotate(0) translate(43.2 951.2)">
<title>Iter4</title>
<polygon fill="white" stroke="transparent" points="-43.2,43.2 -43.2,-951.2 1311.2,-951.2 1311.2,43.2 -43.2,43.2"/>
<g id="clust1" class="cluster">
<title>cluster_legend</title>
</g>
<!-- title -->
<g id="node1" class="node">
<title>title</title>
<text text-anchor="start" x="13.5" y="-887.6" font-family="Helvetica Neue" font-weight="bold" font-size="18.00">Iteration 4: Hardening &amp; Assessment</text>
<text text-anchor="start" x="13" y="-875.2" font-family="Helvetica Neue" font-size="11.00" fill="#666666">v1.5.0 → v1.6.0 · March 20, 2026 · Zero warnings, full retrospective</text>
<text text-anchor="start" x="78.5" y="-854.8" font-family="Helvetica Neue" font-size="9.00" fill="#999999">Close the loop: audit, fix, assess against original goals</text>
</g>
<!-- leg_g -->
<g id="node2" class="node">
<title>leg_g</title>
<path fill="#d0021b" stroke="black" stroke-width="2" d="M234.67,-688C234.67,-688 165.33,-688 165.33,-688 161.17,-688 157,-683.83 157,-679.67 157,-679.67 157,-671.33 157,-671.33 157,-667.17 161.17,-663 165.33,-663 165.33,-663 234.67,-663 234.67,-663 238.83,-663 243,-667.17 243,-671.33 243,-671.33 243,-679.67 243,-679.67 243,-683.83 238.83,-688 234.67,-688"/>
<text text-anchor="middle" x="200" y="-673.3" font-family="Helvetica Neue" font-size="9.00" fill="white">Gap Analysis</text>
</g>
<!-- title&#45;&gt;leg_g -->
<!-- leg_p -->
<g id="node3" class="node">
<title>leg_p</title>
<path fill="#7bc67e" stroke="black" stroke-width="2" d="M234.67,-458.5C234.67,-458.5 165.33,-458.5 165.33,-458.5 161.17,-458.5 157,-454.33 157,-450.17 157,-450.17 157,-441.83 157,-441.83 157,-437.67 161.17,-433.5 165.33,-433.5 165.33,-433.5 234.67,-433.5 234.67,-433.5 238.83,-433.5 243,-437.67 243,-441.83 243,-441.83 243,-450.17 243,-450.17 243,-454.33 238.83,-458.5 234.67,-458.5"/>
<text text-anchor="middle" x="200" y="-443.8" font-family="Helvetica Neue" font-size="9.00" fill="white">Plan</text>
</g>
<!-- leg_g&#45;&gt;leg_p -->
<!-- leg_r -->
<g id="node4" class="node">
<title>leg_r</title>
<path fill="#f5a623" stroke="black" stroke-width="2" d="M234.67,-219C234.67,-219 165.33,-219 165.33,-219 161.17,-219 157,-214.83 157,-210.67 157,-210.67 157,-202.33 157,-202.33 157,-198.17 161.17,-194 165.33,-194 165.33,-194 234.67,-194 234.67,-194 238.83,-194 243,-198.17 243,-202.33 243,-202.33 243,-210.67 243,-210.67 243,-214.83 238.83,-219 234.67,-219"/>
<text text-anchor="middle" x="200" y="-204.3" font-family="Helvetica Neue" font-size="9.00" fill="white">Assessment</text>
</g>
<!-- leg_p&#45;&gt;leg_r -->
<!-- trigger -->
<g id="node5" class="node">
<title>trigger</title>
<text text-anchor="start" x="471.5" y="-879.3" font-family="Helvetica Neue" font-weight="bold" font-size="9.00" fill="#333333">← From Iteration 3:</text>
<text text-anchor="start" x="568.5" y="-879.3" font-family="Helvetica Neue" font-size="9.00" fill="#333333"> AST Evolution Plan complete (v1.5.0)</text>
<text text-anchor="start" x="514" y="-870.3" font-family="Helvetica Neue" font-size="9.00" fill="#333333">All 7 stages implemented. Time to audit.</text>
</g>
<!-- stage6_gap -->
<g id="node6" class="node">
<title>stage6_gap</title>
<path fill="#d0021b" stroke="black" stroke-width="2" d="M756,-753C756,-753 456,-753 456,-753 450,-753 444,-747 444,-741 444,-741 444,-610 444,-610 444,-604 450,-598 456,-598 456,-598 756,-598 756,-598 762,-598 768,-604 768,-610 768,-610 768,-741 768,-741 768,-747 762,-753 756,-753"/>
<text text-anchor="start" x="492" y="-738.2" font-family="Helvetica Neue" font-weight="bold" font-size="11.00" fill="white">Stage 6 Gap Analysis &amp; Code Review</text>
<text text-anchor="start" x="565" y="-728.8" font-family="Helvetica Neue" font-size="9.00" fill="white">March 20 · v1.5.1</text>
<text text-anchor="start" x="511.5" y="-709.6" font-family="Helvetica Neue" font-size="8.00" fill="white">Deep audit of Stage 6 (AST genetic operators)</text>
<text text-anchor="start" x="537.5" y="-701.6" font-family="Helvetica Neue" font-size="8.00" fill="white">against the implementation plan:</text>
<text text-anchor="start" x="578" y="-682.6" font-family="Helvetica Neue" font-weight="bold" font-size="8.00" fill="#ffb3b3">Bugs found:</text>
<text text-anchor="start" x="509" y="-674.6" font-family="Helvetica Neue" font-size="8.00" fill="#ffb3b3">• Roll type&#45;stack not updated in type_repair.cpp</text>
<text text-anchor="start" x="501.5" y="-666.6" font-family="Helvetica Neue" font-size="8.00" fill="#ffb3b3">• Stale header declarations in ast_genetic_ops.hpp</text>
<text text-anchor="start" x="520.5" y="-658.6" font-family="Helvetica Neue" font-size="8.00" fill="#ffb3b3">• Fitness set_limits allows DoS (SIZE_MAX)</text>
<text text-anchor="start" x="528" y="-650.6" font-family="Helvetica Neue" font-size="8.00" fill="#ffb3b3">• evolve&#45;register has no test case cap</text>
<text text-anchor="start" x="586.5" y="-631.6" font-family="Helvetica Neue" font-weight="bold" font-size="8.00" fill="#ffb3b3">Missing:</text>
<text text-anchor="start" x="523.5" y="-623.6" font-family="Helvetica Neue" font-size="8.00" fill="#ffb3b3">• move_block operator not implemented</text>
<text text-anchor="start" x="521.5" y="-615.6" font-family="Helvetica Neue" font-size="8.00" fill="#ffb3b3">• control_flow_mutation not implemented</text>
<text text-anchor="start" x="538" y="-607.6" font-family="Helvetica Neue" font-size="8.00" fill="#ffb3b3">• Several test categories missing</text>
</g>
<!-- trigger&#45;&gt;stage6_gap -->
<g id="edge4" class="edge">
<title>trigger&#45;&gt;stage6_gap</title>
<path fill="none" stroke="#333333" stroke-width="2.5" d="M603.03,-858.34C600.87,-844.95 598.14,-825.85 597,-809 596.01,-794.33 596.07,-778.74 596.73,-763.61"/>
<polygon fill="#333333" stroke="#333333" stroke-width="2.5" points="600.24,-763.39 597.27,-753.22 593.25,-763.02 600.24,-763.39"/>
<text text-anchor="middle" x="677" y="-796.8" font-family="Helvetica Neue" font-size="9.00"> &#160;implementation complete → audit</text>
</g>
<!-- stage6_gap&#45;&gt;trigger -->
<g id="edge8" class="edge">
<title>stage6_gap&#45;&gt;trigger</title>
<path fill="none" stroke="#d0021b" stroke-width="1.5" stroke-dasharray="5,2" d="M761.42,-753.19C775.81,-769.88 780.59,-788.69 767,-809 752.68,-830.41 730.06,-844.94 706.25,-854.79"/>
<polygon fill="#d0021b" stroke="#d0021b" stroke-width="1.5" points="704.79,-851.6 696.72,-858.47 707.31,-858.13 704.79,-851.6"/>
<text text-anchor="middle" x="820.5" y="-801.8" font-family="Helvetica Neue" font-size="9.00"> &#160;audits Stage 6</text>
<text text-anchor="middle" x="820.5" y="-791.8" font-family="Helvetica Neue" font-size="9.00"> &#160;of AST plan (Iter 3)</text>
</g>
<!-- stage6_plan -->
<g id="node7" class="node">
<title>stage6_plan</title>
<path fill="#7bc67e" stroke="black" stroke-width="2" d="M756,-504.5C756,-504.5 456,-504.5 456,-504.5 450,-504.5 444,-498.5 444,-492.5 444,-492.5 444,-399.5 444,-399.5 444,-393.5 450,-387.5 456,-387.5 456,-387.5 756,-387.5 756,-387.5 762,-387.5 768,-393.5 768,-399.5 768,-399.5 768,-492.5 768,-492.5 768,-498.5 762,-504.5 756,-504.5"/>
<text text-anchor="start" x="530" y="-489.7" font-family="Helvetica Neue" font-weight="bold" font-size="11.00" fill="white">Stage 6 Completion Plan</text>
<text text-anchor="start" x="559.5" y="-480.3" font-family="Helvetica Neue" font-size="9.00" fill="white">March 20 · 5 phases</text>
<text text-anchor="start" x="497.5" y="-461.1" font-family="Helvetica Neue" font-weight="bold" font-size="8.00" fill="white">Phase 1:</text>
<text text-anchor="start" x="536.5" y="-461.1" font-family="Helvetica Neue" font-size="8.00" fill="white"> P0 bug fixes (roll type&#45;stack, stale headers,</text>
<text text-anchor="start" x="520.5" y="-453.1" font-family="Helvetica Neue" font-size="8.00" fill="white"> &#160;fitness limits 10000, test case cap 1000)</text>
<text text-anchor="start" x="499" y="-445.1" font-family="Helvetica Neue" font-weight="bold" font-size="8.00" fill="white">Phase 2:</text>
<text text-anchor="start" x="538" y="-445.1" font-family="Helvetica Neue" font-size="8.00" fill="white"> DRY refactoring (shared mutation helpers,</text>
<text text-anchor="start" x="547" y="-437.1" font-family="Helvetica Neue" font-size="8.00" fill="white"> &#160;perturb_numeric extraction)</text>
<text text-anchor="start" x="521" y="-429.1" font-family="Helvetica Neue" font-weight="bold" font-size="8.00" fill="white">Phase 3:</text>
<text text-anchor="start" x="560" y="-429.1" font-family="Helvetica Neue" font-size="8.00" fill="white"> Missing operators (move_block,</text>
<text text-anchor="start" x="519" y="-421.1" font-family="Helvetica Neue" font-size="8.00" fill="white"> &#160;control_flow_mutation with wrap/unwrap)</text>
<text text-anchor="start" x="499" y="-413.1" font-family="Helvetica Neue" font-weight="bold" font-size="8.00" fill="white">Phase 4:</text>
<text text-anchor="start" x="538" y="-413.1" font-family="Helvetica Neue" font-size="8.00" fill="white"> Test coverage (validity tests, DT/NDT split)</text>
<text text-anchor="start" x="527.5" y="-405.1" font-family="Helvetica Neue" font-weight="bold" font-size="8.00" fill="white">Phase 5:</text>
<text text-anchor="start" x="566.5" y="-405.1" font-family="Helvetica Neue" font-size="8.00" fill="white"> Compile&#45;time type inference</text>
<text text-anchor="start" x="517.5" y="-397.1" font-family="Helvetica Neue" font-size="8.00" fill="white"> &#160;(every : definition gets TypeSignature at ;)</text>
</g>
<!-- stage6_gap&#45;&gt;stage6_plan -->
<g id="edge5" class="edge">
<title>stage6_gap&#45;&gt;stage6_plan</title>
<path fill="none" stroke="#d0021b" stroke-width="2.5" d="M606,-597.8C606,-570.92 606,-540.95 606,-514.85"/>
<polygon fill="#d0021b" stroke="#d0021b" stroke-width="2.5" points="609.5,-514.68 606,-504.68 602.5,-514.68 609.5,-514.68"/>
<text text-anchor="middle" x="671" y="-549.8" font-family="Helvetica Neue" font-size="9.00"> &#160;gaps drive completion plan</text>
</g>
<!-- mlp_assessment -->
<g id="node9" class="node">
<title>mlp_assessment</title>
<path fill="#f5a623" stroke="#333333" stroke-width="3" d="M1040,-304C1040,-304 740,-304 740,-304 734,-304 728,-298 728,-292 728,-292 728,-121 728,-121 728,-115 734,-109 740,-109 740,-109 1040,-109 1040,-109 1046,-109 1052,-115 1052,-121 1052,-121 1052,-292 1052,-292 1052,-298 1046,-304 1040,-304"/>
<text text-anchor="start" x="822" y="-289.2" font-family="Helvetica Neue" font-weight="bold" font-size="11.00" fill="white">MLP Goal Assessment</text>
<text text-anchor="start" x="849" y="-279.8" font-family="Helvetica Neue" font-size="9.00" fill="white">March 20 · v1.6.0</text>
<text text-anchor="start" x="780.5" y="-260.6" font-family="Helvetica Neue" font-size="8.00" fill="white">Comprehensive comparison: original design (v0.8.15)</text>
<text text-anchor="start" x="768.5" y="-252.6" font-family="Helvetica Neue" font-size="8.00" fill="white">vs status report (v1.0.0) vs current implementation (v1.6.0):</text>
<text text-anchor="start" x="824" y="-233.6" font-family="Helvetica Neue" font-weight="bold" font-size="8.00" fill="#90ee90">7/8 design sections complete</text>
<text text-anchor="start" x="798" y="-225.6" font-family="Helvetica Neue" font-size="8.00" fill="#90ee90">• Element&#45;wise ops ✓ &#160;Activation functions ✓</text>
<text text-anchor="start" x="807.5" y="-217.6" font-family="Helvetica Neue" font-size="8.00" fill="#90ee90">• Weight initialization ✓ &#160;Broadcasting ✓</text>
<text text-anchor="start" x="819" y="-209.6" font-family="Helvetica Neue" font-size="8.00" fill="#90ee90">• Loss functions ✓ &#160;Matrix slicing ✓</text>
<text text-anchor="start" x="813" y="-201.6" font-family="Helvetica Neue" font-size="8.00" fill="#90ee90">• Forward pass ✓ &#160;Backpropagation ✓</text>
<text text-anchor="start" x="790" y="-193.6" font-family="Helvetica Neue" font-size="8.00" fill="#90ee90">• Evolutionary angle ✓ (far beyond original spec)</text>
<text text-anchor="start" x="765.5" y="-174.6" font-family="Helvetica Neue" font-size="8.00" fill="#dddddd">1 deferred by design: in&#45;place operations (optimization only)</text>
<text text-anchor="start" x="772.5" y="-155.6" font-family="Helvetica Neue" font-weight="bold" font-size="8.00" fill="white">Beyond the original spec:</text>
<text text-anchor="start" x="889.5" y="-155.6" font-family="Helvetica Neue" font-size="8.00" fill="white"> AST&#45;level evolution pipeline,</text>
<text text-anchor="start" x="772.5" y="-147.6" font-family="Helvetica Neue" font-size="8.00" fill="white">4&#45;strategy selection engine, compile&#45;time type inference,</text>
<text text-anchor="start" x="825.5" y="-139.6" font-family="Helvetica Neue" font-size="8.00" fill="white">1362 tests, zero build warnings</text>
<text text-anchor="start" x="764.5" y="-119" font-family="Helvetica Neue" font-style="italic" font-size="10.00" fill="white">&quot;The Evolutionary in ETIL is no longer aspirational.&quot;</text>
</g>
<!-- stage6_plan&#45;&gt;mlp_assessment -->
<g id="edge6" class="edge">
<title>stage6_plan&#45;&gt;mlp_assessment</title>
<path fill="none" stroke="#888888" stroke-width="1.5" d="M675.11,-387.2C702.66,-364.17 735.23,-336.93 766.57,-310.72"/>
<polygon fill="#888888" stroke="#888888" stroke-width="1.5" points="769.08,-313.18 774.51,-304.08 764.59,-307.81 769.08,-313.18"/>
<text text-anchor="middle" x="768" y="-342.8" font-family="Helvetica Neue" font-size="9.00"> &#160;all phases done</text>
</g>
<!-- warning_plan -->
<g id="node8" class="node">
<title>warning_plan</title>
<path fill="#7bc67e" stroke="black" stroke-width="2" d="M1256,-506C1256,-506 956,-506 956,-506 950,-506 944,-500 944,-494 944,-494 944,-398 944,-398 944,-392 950,-386 956,-386 956,-386 1256,-386 1256,-386 1262,-386 1268,-392 1268,-398 1268,-398 1268,-494 1268,-494 1268,-500 1262,-506 1256,-506"/>
<text text-anchor="start" x="1021" y="-491.2" font-family="Helvetica Neue" font-weight="bold" font-size="11.00" fill="white">Build Warning Cleanup Plan</text>
<text text-anchor="start" x="1084.5" y="-481.8" font-family="Helvetica Neue" font-size="9.00" fill="white">March 20</text>
<text text-anchor="start" x="1035" y="-462.6" font-family="Helvetica Neue" font-size="8.00" fill="white">Separate effort running in parallel:</text>
<text text-anchor="start" x="1028.5" y="-443.6" font-family="Helvetica Neue" font-size="8.00" fill="white">• </text>
<text text-anchor="start" x="1035.5" y="-443.6" font-family="Helvetica Neue" font-weight="bold" font-size="8.00" fill="white">27 ETIL code warnings</text>
<text text-anchor="start" x="1137.5" y="-443.6" font-family="Helvetica Neue" font-size="8.00" fill="white"> eliminated</text>
<text text-anchor="start" x="1014" y="-435.6" font-family="Helvetica Neue" font-size="8.00" fill="white">• </text>
<text text-anchor="start" x="1021" y="-435.6" font-family="Helvetica Neue" font-weight="bold" font-size="8.00" fill="white">GCC 13.3 LTO ICE</text>
<text text-anchor="start" x="1098" y="-435.6" font-family="Helvetica Neue" font-size="8.00" fill="white"> (internal compiler error:</text>
<text text-anchor="start" x="1019" y="-427.6" font-family="Helvetica Neue" font-size="8.00" fill="white"> &#160;non&#45;deterministic crash in cfgcleanup.cc)</text>
<text text-anchor="start" x="1054.5" y="-419.6" font-family="Helvetica Neue" font-size="8.00" fill="white"> &#160;→ Disabled &#45;flto globally</text>
<text text-anchor="start" x="992" y="-411.6" font-family="Helvetica Neue" font-size="8.00" fill="white">• </text>
<text text-anchor="start" x="999" y="-411.6" font-family="Helvetica Neue" font-weight="bold" font-size="8.00" fill="white">&#45;Wpedantic dropped</text>
<text text-anchor="start" x="1093" y="-411.6" font-family="Helvetica Neue" font-size="8.00" fill="white"> (100 Abseil __int128 warnings,</text>
<text text-anchor="start" x="998.5" y="-403.6" font-family="Helvetica Neue" font-size="8.00" fill="white"> &#160;can&#39;t suppress via system includes on ALIAS target)</text>
<text text-anchor="start" x="1009.5" y="-395.6" font-family="Helvetica Neue" font-size="8.00" fill="white">• Our one pedantic case: #pragma suppressed</text>
</g>
<!-- warning_plan&#45;&gt;mlp_assessment -->
<g id="edge7" class="edge">
<title>warning_plan&#45;&gt;mlp_assessment</title>
<path fill="none" stroke="#888888" stroke-width="1.5" d="M1052.33,-385.99C1031.86,-363.48 1007.87,-337.1 984.71,-311.64"/>
<polygon fill="#888888" stroke="#888888" stroke-width="1.5" points="987.19,-309.17 977.88,-304.12 982.02,-313.88 987.19,-309.17"/>
<text text-anchor="middle" x="1052" y="-342.8" font-family="Helvetica Neue" font-size="9.00"> &#160;zero warnings</text>
</g>
<!-- mlp_assessment&#45;&gt;trigger -->
<g id="edge9" class="edge">
<title>mlp_assessment&#45;&gt;trigger</title>
<path fill="none" stroke="#f5a623" stroke-width="2" stroke-dasharray="5,2" d="M894.92,-304.16C902.13,-464.24 911.64,-770.65 881,-809 863.68,-830.67 808.1,-846.17 751.39,-856.72"/>
<polygon fill="#f5a623" stroke="#f5a623" stroke-width="2" points="750.77,-853.27 741.55,-858.5 752.01,-860.16 750.77,-853.27"/>
<text text-anchor="middle" x="943.5" y="-554.8" font-family="Helvetica Neue" font-size="9.00"> &#160;compares v1.0.0</text>
<text text-anchor="middle" x="943.5" y="-544.8" font-family="Helvetica Neue" font-size="9.00"> &#160;status (Iter 1)</text>
</g>
<!-- cycle_close -->
<g id="node10" class="node">
<title>cycle_close</title>
<text text-anchor="start" x="718" y="-20.8" font-family="Helvetica Neue" font-weight="bold" font-size="9.00" fill="#333333">← References all the way back to</text>
<text text-anchor="start" x="884" y="-20.8" font-family="Helvetica Neue" font-size="9.00" fill="#333333"> MLP Design Analysis (Mar 10, v0.8.15)</text>
<text text-anchor="start" x="722.5" y="-11.8" font-family="Helvetica Neue" font-size="9.00" fill="#333333">Completes the full design&#45;plan&#45;review cycle across 4 iterations in 10 days.</text>
</g>
<!-- mlp_assessment&#45;&gt;cycle_close -->
<g id="edge10" class="edge">
<title>mlp_assessment&#45;&gt;cycle_close</title>
<path fill="none" stroke="#f5a623" stroke-width="1.5" stroke-dasharray="1,5" d="M890,-108.97C890,-85.93 890,-63.16 890,-46.29"/>
<polygon fill="#f5a623" stroke="#f5a623" stroke-width="1.5" points="893.5,-46.11 890,-36.11 886.5,-46.11 893.5,-46.11"/>
</g>
</g>
</svg>
