<?xml version="1.0" encoding="UTF-8" standalone="no"?>
<!DOCTYPE svg PUBLIC "-//W3C//DTD SVG 1.1//EN"
 "http://www.w3.org/Graphics/SVG/1.1/DTD/svg11.dtd">
<!-- Generated by graphviz version 2.43.0 (0)
 -->
<!-- Title: slide10 Pages: 1 -->
<svg width="557pt" height="324pt"
 viewBox="0.00 0.00 556.70 324.00" xmlns="http://www.w3.org/2000/svg" xmlns:xlink="http://www.w3.org/1999/xlink">
<g id="graph0" class="graph" transform="scale(0.78 0.78) rotate(0) translate(21.6 398.36)">
<title>slide10</title>
<polygon fill="white" stroke="transparent" points="-21.6,14.4 -21.6,-398.36 687.6,-398.36 687.6,14.4 -21.6,14.4"/>
<!-- prev -->
<g id="node1" class="node">
<title>prev</title>
<path fill="#b8d4ee" stroke="black" stroke-dasharray="5,2" d="M102,-213.48C102,-213.48 12,-213.48 12,-213.48 6,-213.48 0,-207.48 0,-201.48 0,-201.48 0,-182.48 0,-182.48 0,-176.48 6,-170.48 12,-170.48 12,-170.48 102,-170.48 102,-170.48 108,-170.48 114,-176.48 114,-182.48 114,-182.48 114,-201.48 114,-201.48 114,-207.48 108,-213.48 102,-213.48"/>
<text text-anchor="start" x="8" y="-194.58" font-family="Helvetica Neue" font-weight="bold" font-size="8.00" fill="#888888">AST Evolution Design</text>
<text text-anchor="start" x="43" y="-186.58" font-family="Helvetica Neue" font-size="8.00" fill="#888888">Mar 19</text>
</g>
<!-- curr -->
<g id="node2" class="node">
<title>curr</title>
<path fill="#7bc67e" stroke="#5ba65e" stroke-width="3" d="M435,-257.48C435,-257.48 185,-257.48 185,-257.48 179,-257.48 173,-251.48 173,-245.48 173,-245.48 173,-138.48 173,-138.48 173,-132.48 179,-126.48 185,-126.48 185,-126.48 435,-126.48 435,-126.48 441,-126.48 447,-132.48 447,-138.48 447,-138.48 447,-245.48 447,-245.48 447,-251.48 441,-257.48 435,-257.48"/>
<text text-anchor="start" x="246.5" y="-244.88" font-family="Helvetica Neue" font-weight="bold" font-size="12.00" fill="white">AST Evolution Plan</text>
<text text-anchor="start" x="234.5" y="-235.28" font-family="Helvetica Neue" font-size="9.00" fill="#333333">March 19 · v1.3.2→v1.5.0 · PLAN</text>
<text text-anchor="start" x="225.5" y="-217.08" font-family="Helvetica Neue" font-size="8.00" fill="white">Each of 7 stages independently testable:</text>
<text text-anchor="start" x="214.5" y="-199.08" font-family="Helvetica Neue" font-size="8.00" fill="white">Stage 0: BlockBegin/BlockEnd marker opcodes</text>
<text text-anchor="start" x="205" y="-191.08" font-family="Helvetica Neue" font-size="8.00" fill="white">Stage 1: AST types + recursive descent decompiler</text>
<text text-anchor="start" x="207" y="-183.08" font-family="Helvetica Neue" font-size="8.00" fill="white">Stage 2: AST compiler with backpatched branches</text>
<text text-anchor="start" x="228" y="-175.08" font-family="Helvetica Neue" font-size="8.00" fill="white">Stage 3: Stack simulator, type inference</text>
<text text-anchor="start" x="220.5" y="-167.08" font-family="Helvetica Neue" font-size="8.00" fill="white">Stage 4: Type&#45;directed repair (swap/rot/roll)</text>
<text text-anchor="start" x="236" y="-159.08" font-family="Helvetica Neue" font-size="8.00" fill="white">Stage 5: Semantic tags on 22 words</text>
<text text-anchor="start" x="207.5" y="-151.08" font-family="Helvetica Neue" font-size="8.00" fill="white">Stage 6: 4 genetic operators + engine integration</text>
<text text-anchor="start" x="244" y="-133.08" font-family="Helvetica Neue" font-weight="bold" font-size="8.00" fill="white">66 new tests</text>
<text text-anchor="start" x="302" y="-133.08" font-family="Helvetica Neue" font-size="8.00" fill="white"> across all stages.</text>
</g>
<!-- prev&#45;&gt;curr -->
<g id="edge1" class="edge">
<title>prev&#45;&gt;curr</title>
<path fill="none" stroke="#bbbbbb" stroke-width="1.5" stroke-dasharray="1,5" d="M114.02,-191.98C128.81,-191.98 145.49,-191.98 162.7,-191.98"/>
<polygon fill="#bbbbbb" stroke="#bbbbbb" stroke-width="1.5" points="172.89,-191.98 162.89,-196.48 167.89,-192.23 162.89,-192.23 162.89,-191.98 162.89,-191.73 167.89,-191.73 162.89,-187.48 172.89,-191.98 172.89,-191.98"/>
</g>
<!-- next -->
<g id="node3" class="node">
<title>next</title>
<path fill="#eba0a8" stroke="black" stroke-dasharray="5,2" d="M653.5,-213.48C653.5,-213.48 564.5,-213.48 564.5,-213.48 558.5,-213.48 552.5,-207.48 552.5,-201.48 552.5,-201.48 552.5,-182.48 552.5,-182.48 552.5,-176.48 558.5,-170.48 564.5,-170.48 564.5,-170.48 653.5,-170.48 653.5,-170.48 659.5,-170.48 665.5,-176.48 665.5,-182.48 665.5,-182.48 665.5,-201.48 665.5,-201.48 665.5,-207.48 659.5,-213.48 653.5,-213.48"/>
<text text-anchor="start" x="560.5" y="-194.58" font-family="Helvetica Neue" font-weight="bold" font-size="8.00" fill="#888888">Stage 6 Gap Analysis</text>
<text text-anchor="start" x="595" y="-186.58" font-family="Helvetica Neue" font-size="8.00" fill="#888888">Mar 20</text>
</g>
<!-- curr&#45;&gt;next -->
<g id="edge2" class="edge">
<title>curr&#45;&gt;next</title>
<path fill="none" stroke="#bbbbbb" stroke-width="1.5" stroke-dasharray="1,5" d="M447.33,-191.98C480.33,-191.98 514.14,-191.98 542.18,-191.98"/>
<polygon fill="#bbbbbb" stroke="#bbbbbb" stroke-width="1.5" points="552.24,-191.98 542.24,-196.48 547.24,-192.23 542.24,-192.23 542.24,-191.98 542.24,-191.73 547.24,-191.73 542.24,-187.48 552.24,-191.98 552.24,-191.98"/>
<text text-anchor="start" x="476" y="-194.38" font-family="Helvetica Neue" font-size="7.00" fill="#999999">done → audit</text>
</g>
</g>
</svg>
