<?xml version="1.0" encoding="UTF-8" standalone="no"?>
<!DOCTYPE svg PUBLIC "-//W3C//DTD SVG 1.1//EN"
 "http://www.w3.org/Graphics/SVG/1.1/DTD/svg11.dtd">
<!-- Generated by graphviz version 2.43.0 (0)
 -->
<!-- Title: slide03 Pages: 1 -->
<svg width="552pt" height="324pt"
 viewBox="0.00 0.00 552.23 324.00" xmlns="http://www.w3.org/2000/svg" xmlns:xlink="http://www.w3.org/1999/xlink">
<g id="graph0" class="graph" transform="scale(0.77 0.77) rotate(0) translate(21.6 404.63)">
<title>slide03</title>
<polygon fill="white" stroke="transparent" points="-21.6,14.4 -21.6,-404.63 692.6,-404.63 692.6,14.4 -21.6,14.4"/>
<!-- prev -->
<g id="node1" class="node">
<title>prev</title>
<path fill="#c4e2c6" stroke="black" stroke-dasharray="5,2" d="M96,-216.62C96,-216.62 12,-216.62 12,-216.62 6,-216.62 0,-210.62 0,-204.62 0,-204.62 0,-185.62 0,-185.62 0,-179.62 6,-173.62 12,-173.62 12,-173.62 96,-173.62 96,-173.62 102,-173.62 108,-179.62 108,-185.62 108,-185.62 108,-204.62 108,-204.62 108,-210.62 102,-216.62 96,-216.62"/>
<text text-anchor="start" x="8" y="-197.72" font-family="Helvetica Neue" font-weight="bold" font-size="8.00" fill="#888888">MLP Primitives Plan</text>
<text text-anchor="start" x="40" y="-189.72" font-family="Helvetica Neue" font-size="8.00" fill="#888888">Mar 10</text>
</g>
<!-- curr -->
<g id="node2" class="node">
<title>curr</title>
<path fill="#4a90d9" stroke="#2a70b9" stroke-width="3" d="M477,-252.62C477,-252.62 227,-252.62 227,-252.62 221,-252.62 215,-246.62 215,-240.62 215,-240.62 215,-149.62 215,-149.62 215,-143.62 221,-137.62 227,-137.62 227,-137.62 477,-137.62 477,-137.62 483,-137.62 489,-143.62 489,-149.62 489,-149.62 489,-240.62 489,-240.62 489,-246.62 483,-252.62 477,-252.62"/>
<text text-anchor="start" x="288.5" y="-240.02" font-family="Helvetica Neue" font-weight="bold" font-size="12.00" fill="white">Observable Design</text>
<text text-anchor="start" x="308" y="-230.42" font-family="Helvetica Neue" font-size="9.00" fill="#dddddd">March 12 · DESIGN</text>
<text text-anchor="start" x="257" y="-212.22" font-family="Helvetica Neue" font-size="8.00" fill="white">Designed HeapObservable: linked&#45;list pipeline</text>
<text text-anchor="start" x="252" y="-204.22" font-family="Helvetica Neue" font-size="8.00" fill="white">nodes with per&#45;node state for closure emulation.</text>
<text text-anchor="start" x="271.5" y="-186.22" font-family="Helvetica Neue" font-size="8.00" fill="#dddddd">Chose </text>
<text text-anchor="start" x="299.5" y="-186.22" font-family="Helvetica Neue" font-weight="bold" font-size="8.00" fill="#dddddd">Approach 3B</text>
<text text-anchor="start" x="357.5" y="-186.22" font-family="Helvetica Neue" font-size="8.00" fill="#dddddd"> over alternatives:</text>
<text text-anchor="start" x="266" y="-178.22" font-family="Helvetica Neue" font-size="8.00" fill="#dddddd">• 3A: CREATE/DOES&gt; (too FORTH&#45;specific)</text>
<text text-anchor="start" x="287" y="-170.22" font-family="Helvetica Neue" font-size="8.00" fill="#dddddd">• 3C: stack passing (too fragile)</text>
<text text-anchor="start" x="272.5" y="-152.22" font-family="Helvetica Neue" font-size="8.00" fill="white">21 core operators: creation, transform,</text>
<text text-anchor="start" x="262.5" y="-144.22" font-family="Helvetica Neue" font-size="8.00" fill="white">accumulate, limiting, combination, terminal.</text>
</g>
<!-- prev&#45;&gt;curr -->
<g id="edge1" class="edge">
<title>prev&#45;&gt;curr</title>
<path fill="none" stroke="#bbbbbb" stroke-width="1.5" stroke-dasharray="1,5" d="M108.26,-195.12C135.53,-195.12 170.2,-195.12 204.74,-195.12"/>
<polygon fill="#bbbbbb" stroke="#bbbbbb" stroke-width="1.5" points="214.96,-195.12 204.96,-199.62 209.96,-195.37 204.96,-195.37 204.96,-195.12 204.96,-194.87 209.96,-194.87 204.96,-190.62 214.96,-195.12 214.96,-195.12"/>
<text text-anchor="start" x="136.5" y="-197.52" font-family="Helvetica Neue" font-size="7.00" fill="#999999">parallel track</text>
</g>
<!-- next -->
<g id="node3" class="node">
<title>next</title>
<path fill="#b8d4ee" stroke="black" stroke-dasharray="5,2" d="M659,-216.62C659,-216.62 589,-216.62 589,-216.62 583,-216.62 577,-210.62 577,-204.62 577,-204.62 577,-185.62 577,-185.62 577,-179.62 583,-173.62 589,-173.62 589,-173.62 659,-173.62 659,-173.62 665,-173.62 671,-179.62 671,-185.62 671,-185.62 671,-204.62 671,-204.62 671,-210.62 665,-216.62 659,-216.62"/>
<text text-anchor="start" x="587.5" y="-197.72" font-family="Helvetica Neue" font-weight="bold" font-size="8.00" fill="#888888">Temporal + AVO</text>
<text text-anchor="start" x="603" y="-189.72" font-family="Helvetica Neue" font-size="8.00" fill="#888888">Mar 15&#45;16</text>
</g>
<!-- curr&#45;&gt;next -->
<g id="edge2" class="edge">
<title>curr&#45;&gt;next</title>
<path fill="none" stroke="#bbbbbb" stroke-width="1.5" stroke-dasharray="1,5" d="M489.19,-195.12C516.58,-195.12 543.9,-195.12 566.65,-195.12"/>
<polygon fill="#bbbbbb" stroke="#bbbbbb" stroke-width="1.5" points="576.77,-195.12 566.77,-199.62 571.77,-195.37 566.77,-195.37 566.77,-195.12 566.77,-194.87 571.77,-194.87 566.77,-190.62 576.77,-195.12 576.77,-195.12"/>
<text text-anchor="start" x="518" y="-197.52" font-family="Helvetica Neue" font-size="7.00" fill="#999999">extends</text>
</g>
</g>
</svg>
