<?xml version="1.0" encoding="UTF-8" standalone="no"?>
<!DOCTYPE svg PUBLIC "-//W3C//DTD SVG 1.1//EN"
 "http://www.w3.org/Graphics/SVG/1.1/DTD/svg11.dtd">
<!-- Generated by graphviz version 2.43.0 (0)
 -->
<!-- Title: slide07 Pages: 1 -->
<svg width="553pt" height="324pt"
 viewBox="0.00 0.00 553.29 324.00" xmlns="http://www.w3.org/2000/svg" xmlns:xlink="http://www.w3.org/1999/xlink">
<g id="graph0" class="graph" transform="scale(0.71 0.71) rotate(0) translate(21.6 443.6)">
<title>slide07</title>
<polygon fill="white" stroke="transparent" points="-21.6,14.4 -21.6,-443.6 760.52,-443.6 760.52,14.4 -21.6,14.4"/>
<!-- backref -->
<g id="node1" class="node">
<title>backref</title>
<path fill="#fff3e0" stroke="#e65100" stroke-width="1.5" d="M215.35,-343.11C215.35,-343.11 215.35,-348.08 215.35,-348.08 215.35,-350.57 212.89,-353.47 210.44,-353.88 210.44,-353.88 157.32,-362.78 157.32,-362.78 154.87,-363.19 149.93,-363.6 147.45,-363.6 147.45,-363.6 68.4,-363.6 68.4,-363.6 65.91,-363.6 60.98,-363.19 58.52,-362.78 58.52,-362.78 5.4,-353.88 5.4,-353.88 2.95,-353.47 0.5,-350.57 0.5,-348.08 0.5,-348.08 0.5,-343.11 0.5,-343.11 0.5,-340.63 2.95,-337.73 5.4,-337.32 5.4,-337.32 58.52,-328.42 58.52,-328.42 60.98,-328.01 65.91,-327.6 68.4,-327.6 68.4,-327.6 147.45,-327.6 147.45,-327.6 149.93,-327.6 154.87,-328.01 157.32,-328.42 157.32,-328.42 210.44,-337.32 210.44,-337.32 212.89,-337.73 215.35,-340.63 215.35,-343.11"/>
<text text-anchor="start" x="55.42" y="-348.2" font-family="Helvetica Neue" font-weight="bold" font-size="8.00" fill="#bf360c">← MLP Design Analysis</text>
<text text-anchor="start" x="41.92" y="-340.2" font-family="Helvetica Neue" font-size="8.00" fill="#bf360c">Mar 10 · references sections 2&#45;6</text>
</g>
<!-- curr -->
<g id="node3" class="node">
<title>curr</title>
<path fill="#9c27b0" stroke="#7b1fa2" stroke-width="3" d="M535.92,-272.1C535.92,-272.1 285.92,-272.1 285.92,-272.1 279.92,-272.1 273.92,-266.1 273.92,-260.1 273.92,-260.1 273.92,-169.1 273.92,-169.1 273.92,-163.1 279.92,-157.1 285.92,-157.1 285.92,-157.1 535.92,-157.1 535.92,-157.1 541.92,-157.1 547.92,-163.1 547.92,-169.1 547.92,-169.1 547.92,-260.1 547.92,-260.1 547.92,-266.1 541.92,-272.1 535.92,-272.1"/>
<text text-anchor="start" x="346.42" y="-259.5" font-family="Helvetica Neue" font-weight="bold" font-size="12.00" fill="white">MLP Status Report</text>
<text text-anchor="start" x="348.92" y="-249.9" font-family="Helvetica Neue" font-size="9.00" fill="white">March 18 · v1.0.0 · STATUS</text>
<text text-anchor="start" x="326.42" y="-231.7" font-family="Helvetica Neue" font-size="8.00" fill="white">Assessed design document sections 2&#45;6:</text>
<text text-anchor="start" x="335.42" y="-213.7" font-family="Helvetica Neue" font-size="8.00" fill="#90ee90">✓ All 17 C++ primitives implemented</text>
<text text-anchor="start" x="330.42" y="-205.7" font-family="Helvetica Neue" font-size="8.00" fill="#90ee90">✓ mat&#45;col&#45;vec added (18th, not in plan)</text>
<text text-anchor="start" x="341.92" y="-197.7" font-family="Helvetica Neue" font-size="8.00" fill="#ffb3b3">✗ TIL&#45;level MLP library: NOT DONE</text>
<text text-anchor="start" x="342.42" y="-189.7" font-family="Helvetica Neue" font-size="8.00" fill="#ffb3b3">✗ Selection engine: CRITICAL GAP</text>
<text text-anchor="start" x="340.92" y="-181.7" font-family="Helvetica Neue" font-size="8.00" fill="#ffb3b3">✗ Evolution engine: NOT STARTED</text>
<text text-anchor="start" x="310.92" y="-163.7" font-family="Helvetica Neue" font-weight="bold" font-size="8.00" fill="white">Verdict:</text>
<text text-anchor="start" x="346.92" y="-163.7" font-family="Helvetica Neue" font-size="8.00" fill="white"> Primitives work. Need library + engines.</text>
</g>
<!-- backref&#45;&gt;curr -->
<g id="edge1" class="edge">
<title>backref&#45;&gt;curr</title>
<path fill="none" stroke="#e65100" stroke-width="1.5" stroke-dasharray="5,2" d="M150.46,-327.52C181.26,-314.12 225.19,-295 268.16,-276.3"/>
<polygon fill="#e65100" stroke="#e65100" stroke-width="1.5" points="277.6,-272.19 270.22,-280.31 273.11,-274.41 268.53,-276.41 268.43,-276.18 268.33,-275.95 272.91,-273.96 266.63,-272.05 277.6,-272.19 277.6,-272.19"/>
</g>
<!-- prev -->
<g id="node2" class="node">
<title>prev</title>
<path fill="#eba0a8" stroke="black" stroke-dasharray="5,2" d="M142.92,-109.1C142.92,-109.1 72.92,-109.1 72.92,-109.1 66.92,-109.1 60.92,-103.1 60.92,-97.1 60.92,-97.1 60.92,-78.1 60.92,-78.1 60.92,-72.1 66.92,-66.1 72.92,-66.1 72.92,-66.1 142.92,-66.1 142.92,-66.1 148.92,-66.1 154.92,-72.1 154.92,-78.1 154.92,-78.1 154.92,-97.1 154.92,-97.1 154.92,-103.1 148.92,-109.1 142.92,-109.1"/>
<text text-anchor="start" x="70.42" y="-90.2" font-family="Helvetica Neue" font-weight="bold" font-size="8.00" fill="#888888">RxJS Gap + Plan</text>
<text text-anchor="start" x="93.92" y="-82.2" font-family="Helvetica Neue" font-size="8.00" fill="#888888">Mar 17</text>
</g>
<!-- prev&#45;&gt;curr -->
<g id="edge2" class="edge">
<title>prev&#45;&gt;curr</title>
<path fill="none" stroke="#bbbbbb" stroke-width="1.5" stroke-dasharray="1,5" d="M154.97,-107.03C184.53,-119.5 224.71,-136.45 264.42,-153.21"/>
<polygon fill="#bbbbbb" stroke="#bbbbbb" stroke-width="1.5" points="273.68,-157.12 262.72,-157.37 268.98,-155.4 264.37,-153.46 264.47,-153.23 264.57,-153 269.17,-154.94 266.22,-149.08 273.68,-157.12 273.68,-157.12"/>
</g>
<!-- next -->
<g id="node4" class="node">
<title>next</title>
<path fill="#c4e2c6" stroke="black" stroke-dasharray="5,2" d="M726.92,-236.1C726.92,-236.1 656.92,-236.1 656.92,-236.1 650.92,-236.1 644.92,-230.1 644.92,-224.1 644.92,-224.1 644.92,-205.1 644.92,-205.1 644.92,-199.1 650.92,-193.1 656.92,-193.1 656.92,-193.1 726.92,-193.1 726.92,-193.1 732.92,-193.1 738.92,-199.1 738.92,-205.1 738.92,-205.1 738.92,-224.1 738.92,-224.1 738.92,-230.1 732.92,-236.1 726.92,-236.1"/>
<text text-anchor="start" x="656.92" y="-217.2" font-family="Helvetica Neue" font-weight="bold" font-size="8.00" fill="#888888">Layers 1&#45;3 Plan</text>
<text text-anchor="start" x="677.92" y="-209.2" font-family="Helvetica Neue" font-size="8.00" fill="#888888">Mar 18</text>
</g>
<!-- curr&#45;&gt;next -->
<g id="edge3" class="edge">
<title>curr&#45;&gt;next</title>
<path fill="none" stroke="#bbbbbb" stroke-width="1.5" stroke-dasharray="1,5" d="M548.15,-214.6C578.79,-214.6 609.64,-214.6 634.78,-214.6"/>
<polygon fill="#bbbbbb" stroke="#bbbbbb" stroke-width="1.5" points="644.83,-214.6 634.83,-219.1 639.83,-214.85 634.83,-214.85 634.83,-214.6 634.83,-214.35 639.83,-214.35 634.83,-210.1 644.83,-214.6 644.83,-214.6"/>
<text text-anchor="start" x="576.42" y="-217" font-family="Helvetica Neue" font-size="7.00" fill="#999999">gaps drive</text>
</g>
</g>
</svg>
