<?xml version="1.0" encoding="UTF-8" standalone="no"?>
<!DOCTYPE svg PUBLIC "-//W3C//DTD SVG 1.1//EN"
 "http://www.w3.org/Graphics/SVG/1.1/DTD/svg11.dtd">
<!-- Generated by graphviz version 2.43.0 (0)
 -->
<!-- Title: slide05 Pages: 1 -->
<svg width="552pt" height="324pt"
 viewBox="0.00 0.00 551.76 324.00" xmlns="http://www.w3.org/2000/svg" xmlns:xlink="http://www.w3.org/1999/xlink">
<g id="graph0" class="graph" transform="scale(0.88 0.88) rotate(0) translate(21.6 352.73)">
<title>slide05</title>
<polygon fill="white" stroke="transparent" points="-21.6,14.4 -21.6,-352.73 603.6,-352.73 603.6,14.4 -21.6,14.4"/>
<!-- prev -->
<g id="node1" class="node">
<title>prev</title>
<path fill="#b8d4ee" stroke="black" stroke-dasharray="5,2" d="M82,-190.66C82,-190.66 12,-190.66 12,-190.66 6,-190.66 0,-184.66 0,-178.66 0,-178.66 0,-159.66 0,-159.66 0,-153.66 6,-147.66 12,-147.66 12,-147.66 82,-147.66 82,-147.66 88,-147.66 94,-153.66 94,-159.66 94,-159.66 94,-178.66 94,-178.66 94,-184.66 88,-190.66 82,-190.66"/>
<text text-anchor="start" x="10.5" y="-171.76" font-family="Helvetica Neue" font-weight="bold" font-size="8.00" fill="#888888">Temporal + AVO</text>
<text text-anchor="start" x="26" y="-163.76" font-family="Helvetica Neue" font-size="8.00" fill="#888888">Mar 15&#45;16</text>
</g>
<!-- curr -->
<g id="node2" class="node">
<title>curr</title>
<path fill="#9b9b9b" stroke="#777777" stroke-width="3" d="M414,-229.66C414,-229.66 164,-229.66 164,-229.66 158,-229.66 152,-223.66 152,-217.66 152,-217.66 152,-120.66 152,-120.66 152,-114.66 158,-108.66 164,-108.66 164,-108.66 414,-108.66 414,-108.66 420,-108.66 426,-114.66 426,-120.66 426,-120.66 426,-217.66 426,-217.66 426,-223.66 420,-229.66 414,-229.66"/>
<text text-anchor="start" x="210.5" y="-217.06" font-family="Helvetica Neue" font-weight="bold" font-size="12.00" fill="white">Process Improvements</text>
<text text-anchor="start" x="218.5" y="-207.46" font-family="Helvetica Neue" font-size="9.00" fill="#333333">March 16 · OPS (2 documents)</text>
<text text-anchor="start" x="249.5" y="-189.26" font-family="Helvetica Neue" font-weight="bold" font-size="8.00" fill="white">Build Ops Design</text>
<text text-anchor="start" x="208" y="-181.26" font-family="Helvetica Neue" font-size="8.00" fill="white">Problem: clean builds took 4&#45;6 minutes.</text>
<text text-anchor="start" x="197" y="-173.26" font-family="Helvetica Neue" font-size="8.00" fill="white">Solution: pre&#45;built deps → ~25s clean builds,</text>
<text text-anchor="start" x="214" y="-165.26" font-family="Helvetica Neue" font-size="8.00" fill="white">debug&#45;first workflow, super&#45;push.sh.</text>
<text text-anchor="start" x="220.5" y="-157.26" font-family="Helvetica Neue" font-size="8.00" fill="white">Impact: 10x faster iteration cycle.</text>
<text text-anchor="start" x="230.5" y="-139.26" font-family="Helvetica Neue" font-weight="bold" font-size="8.00" fill="white">Long&#45;Running Jobs Policy</text>
<text text-anchor="start" x="190" y="-131.26" font-family="Helvetica Neue" font-size="8.00" fill="white">Problem: CI builds blocked conversation context.</text>
<text text-anchor="start" x="193.5" y="-123.26" font-family="Helvetica Neue" font-size="8.00" fill="white">Solution: background agents for CI monitoring,</text>
<text text-anchor="start" x="198.5" y="-115.26" font-family="Helvetica Neue" font-size="8.00" fill="white">full output to /tmp/*.log, PASS/FAIL summary.</text>
</g>
<!-- prev&#45;&gt;curr -->
<g id="edge1" class="edge">
<title>prev&#45;&gt;curr</title>
<path fill="none" stroke="#bbbbbb" stroke-width="1.5" stroke-dasharray="1,5" d="M94.27,-169.16C108.39,-169.16 124.74,-169.16 141.82,-169.16"/>
<polygon fill="#bbbbbb" stroke="#bbbbbb" stroke-width="1.5" points="151.96,-169.16 141.96,-173.66 146.96,-169.41 141.96,-169.41 141.96,-169.16 141.96,-168.91 146.96,-168.91 141.96,-164.66 151.96,-169.16 151.96,-169.16"/>
</g>
<!-- next -->
<g id="node3" class="node">
<title>next</title>
<path fill="#eba0a8" stroke="black" stroke-dasharray="5,2" d="M570,-190.66C570,-190.66 496,-190.66 496,-190.66 490,-190.66 484,-184.66 484,-178.66 484,-178.66 484,-159.66 484,-159.66 484,-153.66 490,-147.66 496,-147.66 496,-147.66 570,-147.66 570,-147.66 576,-147.66 582,-153.66 582,-159.66 582,-159.66 582,-178.66 582,-178.66 582,-184.66 576,-190.66 570,-190.66"/>
<text text-anchor="start" x="492" y="-171.76" font-family="Helvetica Neue" font-weight="bold" font-size="8.00" fill="#888888">RxJS Gap Analysis</text>
<text text-anchor="start" x="519" y="-163.76" font-family="Helvetica Neue" font-size="8.00" fill="#888888">Mar 17</text>
</g>
<!-- curr&#45;&gt;next -->
<g id="edge2" class="edge">
<title>curr&#45;&gt;next</title>
<path fill="none" stroke="#bbbbbb" stroke-width="1.5" stroke-dasharray="1,5" d="M426.21,-169.16C442.81,-169.16 459.03,-169.16 473.58,-169.16"/>
<polygon fill="#bbbbbb" stroke="#bbbbbb" stroke-width="1.5" points="483.86,-169.16 473.86,-173.66 478.86,-169.41 473.86,-169.41 473.86,-169.16 473.86,-168.91 478.86,-168.91 473.86,-164.66 483.86,-169.16 483.86,-169.16"/>
</g>
</g>
</svg>
