<?xml version="1.0" encoding="UTF-8" standalone="no"?>
<!DOCTYPE svg PUBLIC "-//W3C//DTD SVG 1.1//EN"
 "http://www.w3.org/Graphics/SVG/1.1/DTD/svg11.dtd">
<!-- Generated by graphviz version 2.43.0 (0)
 -->
<!-- Title: slide06 Pages: 1 -->
<svg width="557pt" height="324pt"
 viewBox="0.00 0.00 557.34 324.00" xmlns="http://www.w3.org/2000/svg" xmlns:xlink="http://www.w3.org/1999/xlink">
<g id="graph0" class="graph" transform="scale(0.77 0.77) rotate(0) translate(21.6 407.58)">
<title>slide06</title>
<polygon fill="white" stroke="transparent" points="-21.6,14.4 -21.6,-407.58 704.29,-407.58 704.29,14.4 -21.6,14.4"/>
<!-- backref -->
<g id="node1" class="node">
<title>backref</title>
<path fill="#fff3e0" stroke="#e65100" stroke-width="1.5" d="M191.38,-316.32C191.38,-316.32 191.38,-321.29 191.38,-321.29 191.38,-323.78 188.93,-326.72 186.49,-327.18 186.49,-327.18 140.21,-335.89 140.21,-335.89 137.77,-336.35 132.84,-336.81 130.35,-336.81 130.35,-336.81 61.02,-336.81 61.02,-336.81 58.54,-336.81 53.61,-336.35 51.17,-335.89 51.17,-335.89 4.88,-327.18 4.88,-327.18 2.44,-326.72 -0,-323.78 -0,-321.29 -0,-321.29 -0,-316.32 -0,-316.32 -0,-313.84 2.44,-310.89 4.88,-310.43 4.88,-310.43 51.17,-301.73 51.17,-301.73 53.61,-301.27 58.54,-300.81 61.02,-300.81 61.02,-300.81 130.35,-300.81 130.35,-300.81 132.84,-300.81 137.77,-301.27 140.21,-301.73 140.21,-301.73 186.49,-310.43 186.49,-310.43 188.93,-310.89 191.38,-313.84 191.38,-316.32"/>
<text text-anchor="start" x="47.69" y="-321.41" font-family="Helvetica Neue" font-weight="bold" font-size="8.00" fill="#bf360c">← Observable Design</text>
<text text-anchor="start" x="37.69" y="-313.41" font-family="Helvetica Neue" font-size="8.00" fill="#bf360c">Mar 12 · reviews what&#39;s built</text>
</g>
<!-- curr -->
<g id="node3" class="node">
<title>curr</title>
<path fill="#c62828" stroke="#8e0000" stroke-width="3" d="M511.69,-253.31C511.69,-253.31 261.69,-253.31 261.69,-253.31 255.69,-253.31 249.69,-247.31 249.69,-241.31 249.69,-241.31 249.69,-152.31 249.69,-152.31 249.69,-146.31 255.69,-140.31 261.69,-140.31 261.69,-140.31 511.69,-140.31 511.69,-140.31 517.69,-140.31 523.69,-146.31 523.69,-152.31 523.69,-152.31 523.69,-241.31 523.69,-241.31 523.69,-247.31 517.69,-253.31 511.69,-253.31"/>
<text text-anchor="start" x="304.69" y="-240.71" font-family="Helvetica Neue" font-weight="bold" font-size="12.00" fill="white">RxJS Gap → Gap Fill Plan</text>
<text text-anchor="start" x="310.19" y="-231.11" font-family="Helvetica Neue" font-size="9.00" fill="white">March 17 · GAP ANALYSIS + PLAN</text>
<text text-anchor="start" x="345.69" y="-212.91" font-family="Helvetica Neue" font-weight="bold" font-size="8.00" fill="#ffcccc">RxJS Gap Analysis</text>
<text text-anchor="start" x="304.19" y="-204.91" font-family="Helvetica Neue" font-size="8.00" fill="#ffcccc">Scored 40+ RxJS operators on two axes:</text>
<text text-anchor="start" x="270.19" y="-196.91" font-family="Helvetica Neue" font-size="8.00" fill="#ffcccc">applicability (high/med/low) × difficulty (easy/med/hard).</text>
<text text-anchor="start" x="290.19" y="-188.91" font-family="Helvetica Neue" font-size="8.00" fill="#ffcccc">Identified 10 high&#45;applicability, easy operators.</text>
<text text-anchor="start" x="330.19" y="-170.91" font-family="Helvetica Neue" font-weight="bold" font-size="8.00" fill="#ccffcc">Observable Gap Fill Plan</text>
<text text-anchor="start" x="307.19" y="-162.91" font-family="Helvetica Neue" font-size="8.00" fill="#ccffcc">Two stages prioritized by gap analysis:</text>
<text text-anchor="start" x="333.69" y="-154.91" font-family="Helvetica Neue" font-size="8.00" fill="#ccffcc">Stage 1: 8 easy operators</text>
<text text-anchor="start" x="285.69" y="-146.91" font-family="Helvetica Neue" font-size="8.00" fill="#ccffcc">Stage 2: 2 medium operators (switch&#45;map, catch)</text>
</g>
<!-- backref&#45;&gt;curr -->
<g id="edge1" class="edge">
<title>backref&#45;&gt;curr</title>
<path fill="none" stroke="#e65100" stroke-width="1.5" stroke-dasharray="5,2" d="M138.09,-301.33C165.72,-289.67 203.84,-273.58 241.89,-257.51"/>
<polygon fill="#e65100" stroke="#e65100" stroke-width="1.5" points="251.55,-253.43 244.09,-261.47 247.04,-255.61 242.44,-257.55 242.34,-257.32 242.24,-257.09 246.85,-255.15 240.59,-253.18 251.55,-253.43 251.55,-253.43"/>
</g>
<!-- prev -->
<g id="node2" class="node">
<title>prev</title>
<path fill="#cccccc" stroke="black" stroke-dasharray="5,2" d="M130.69,-99.31C130.69,-99.31 60.69,-99.31 60.69,-99.31 54.69,-99.31 48.69,-93.31 48.69,-87.31 48.69,-87.31 48.69,-68.31 48.69,-68.31 48.69,-62.31 54.69,-56.31 60.69,-56.31 60.69,-56.31 130.69,-56.31 130.69,-56.31 136.69,-56.31 142.69,-62.31 142.69,-68.31 142.69,-68.31 142.69,-87.31 142.69,-87.31 142.69,-93.31 136.69,-99.31 130.69,-99.31"/>
<text text-anchor="start" x="73.19" y="-80.41" font-family="Helvetica Neue" font-weight="bold" font-size="8.00" fill="#888888">Build Ops</text>
<text text-anchor="start" x="81.69" y="-72.41" font-family="Helvetica Neue" font-size="8.00" fill="#888888">Mar 16</text>
</g>
<!-- prev&#45;&gt;curr -->
<g id="edge2" class="edge">
<title>prev&#45;&gt;curr</title>
<path fill="none" stroke="#bbbbbb" stroke-width="1.5" stroke-dasharray="1,5" d="M142.8,-96.8C169.5,-107.79 204.73,-122.3 240.05,-136.84"/>
<polygon fill="#bbbbbb" stroke="#bbbbbb" stroke-width="1.5" points="249.52,-140.74 238.56,-141.09 244.8,-139.07 240.17,-137.16 240.27,-136.93 240.36,-136.7 244.99,-138.6 241.98,-132.77 249.52,-140.74 249.52,-140.74"/>
</g>
<!-- next -->
<g id="node4" class="node">
<title>next</title>
<path fill="#dda8f0" stroke="black" stroke-dasharray="5,2" d="M670.19,-218.31C670.19,-218.31 593.19,-218.31 593.19,-218.31 587.19,-218.31 581.19,-212.31 581.19,-206.31 581.19,-206.31 581.19,-187.31 581.19,-187.31 581.19,-181.31 587.19,-175.31 593.19,-175.31 593.19,-175.31 670.19,-175.31 670.19,-175.31 676.19,-175.31 682.19,-181.31 682.19,-187.31 682.19,-187.31 682.19,-206.31 682.19,-206.31 682.19,-212.31 676.19,-218.31 670.19,-218.31"/>
<text text-anchor="start" x="589.19" y="-199.41" font-family="Helvetica Neue" font-weight="bold" font-size="8.00" fill="#888888">MLP Status Report</text>
<text text-anchor="start" x="617.69" y="-191.41" font-family="Helvetica Neue" font-size="8.00" fill="#888888">Mar 18</text>
</g>
<!-- curr&#45;&gt;next -->
<g id="edge3" class="edge">
<title>curr&#45;&gt;next</title>
<path fill="none" stroke="#bbbbbb" stroke-width="1.5" stroke-dasharray="1,5" d="M523.75,-196.81C540.24,-196.81 556.38,-196.81 570.9,-196.81"/>
<polygon fill="#bbbbbb" stroke="#bbbbbb" stroke-width="1.5" points="581.18,-196.81 571.18,-201.31 576.18,-197.06 571.18,-197.06 571.18,-196.81 571.18,-196.56 576.18,-196.56 571.18,-192.31 581.18,-196.81 581.18,-196.81"/>
</g>
</g>
</svg>
