<?xml version="1.0" encoding="UTF-8" standalone="no"?>
<!DOCTYPE svg PUBLIC "-//W3C//DTD SVG 1.1//EN"
 "http://www.w3.org/Graphics/SVG/1.1/DTD/svg11.dtd">
<!-- Generated by graphviz version 2.43.0 (0)
 -->
<!-- Title: slide08 Pages: 1 -->
<svg width="558pt" height="324pt"
 viewBox="0.00 0.00 558.08 324.00" xmlns="http://www.w3.org/2000/svg" xmlns:xlink="http://www.w3.org/1999/xlink">
<g id="graph0" class="graph" transform="scale(0.65 0.65) rotate(0) translate(21.6 483.1)">
<title>slide08</title>
<polygon fill="white" stroke="transparent" points="-21.6,14.4 -21.6,-483.1 835.33,-483.1 835.33,14.4 -21.6,14.4"/>
<!-- backref -->
<g id="node1" class="node">
<title>backref</title>
<path fill="#fff3e0" stroke="#e65100" stroke-width="1.5" d="M220.96,-365.19C220.96,-365.19 220.96,-370.16 220.96,-370.16 220.96,-372.65 218.51,-375.53 216.06,-375.93 216.06,-375.93 161.3,-384.88 161.3,-384.88 158.84,-385.28 153.91,-385.68 151.42,-385.68 151.42,-385.68 70.04,-385.68 70.04,-385.68 67.56,-385.68 62.62,-385.28 60.17,-384.88 60.17,-384.88 5.41,-375.93 5.41,-375.93 2.95,-375.53 0.5,-372.65 0.5,-370.16 0.5,-370.16 0.5,-365.19 0.5,-365.19 0.5,-362.71 2.95,-359.82 5.41,-359.42 5.41,-359.42 60.17,-350.48 60.17,-350.48 62.62,-350.08 67.56,-349.68 70.04,-349.68 70.04,-349.68 151.42,-349.68 151.42,-349.68 153.91,-349.68 158.84,-350.08 161.3,-350.48 161.3,-350.48 216.06,-359.42 216.06,-359.42 218.51,-359.82 220.96,-362.71 220.96,-365.19"/>
<text text-anchor="start" x="58.23" y="-370.28" font-family="Helvetica Neue" font-weight="bold" font-size="8.00" fill="#bf360c">← MLP Design Analysis</text>
<text text-anchor="start" x="42.73" y="-362.28" font-family="Helvetica Neue" font-size="8.00" fill="#bf360c">Mar 10 · implements sections 3&#45;6</text>
</g>
<!-- curr -->
<g id="node3" class="node">
<title>curr</title>
<path fill="#f5a623" stroke="#c68400" stroke-width="3" d="M579.73,-296.18C579.73,-296.18 329.73,-296.18 329.73,-296.18 323.73,-296.18 317.73,-290.18 317.73,-284.18 317.73,-284.18 317.73,-185.18 317.73,-185.18 317.73,-179.18 323.73,-173.18 329.73,-173.18 329.73,-173.18 579.73,-173.18 579.73,-173.18 585.73,-173.18 591.73,-179.18 591.73,-185.18 591.73,-185.18 591.73,-284.18 591.73,-284.18 591.73,-290.18 585.73,-296.18 579.73,-296.18"/>
<text text-anchor="start" x="368.73" y="-283.58" font-family="Helvetica Neue" font-weight="bold" font-size="12.00" fill="white">Layers 1&#45;3 Plan + Review</text>
<text text-anchor="start" x="344.23" y="-273.98" font-family="Helvetica Neue" font-size="9.00" fill="#333333">March 18 · v1.3.0 · PLAN + REVIEW (same day!)</text>
<text text-anchor="start" x="358.23" y="-255.78" font-family="Helvetica Neue" font-weight="bold" font-size="8.00" fill="white">Plan:</text>
<text text-anchor="start" x="382.23" y="-255.78" font-family="Helvetica Neue" font-size="8.00" fill="white"> Three layers to close status report gaps:</text>
<text text-anchor="start" x="376.23" y="-247.78" font-family="Helvetica Neue" font-size="8.00" fill="white">L1: TIL MLP library (mlp.til) — 275 lines</text>
<text text-anchor="start" x="382.73" y="-239.78" font-family="Helvetica Neue" font-size="8.00" fill="white">L2: SelectionEngine — 4 strategies</text>
<text text-anchor="start" x="370.23" y="-231.78" font-family="Helvetica Neue" font-size="8.00" fill="white">L3: EvolutionEngine — fitness evaluation</text>
<text text-anchor="start" x="363.23" y="-213.78" font-family="Helvetica Neue" font-weight="bold" font-size="8.00" fill="white">Review:</text>
<text text-anchor="start" x="399.23" y="-213.78" font-family="Helvetica Neue" font-size="8.00" fill="white"> All 3 layers implemented same day.</text>
<text text-anchor="start" x="368.73" y="-205.78" font-family="Helvetica Neue" font-size="8.00" fill="#2e7d32">XOR trains to &lt;0.001 MSE in 2000 epochs.</text>
<text text-anchor="start" x="377.23" y="-187.78" font-family="Helvetica Neue" font-weight="bold" font-size="8.00" fill="#c62828">But:</text>
<text text-anchor="start" x="396.23" y="-187.78" font-family="Helvetica Neue" font-size="8.00" fill="#c62828"> bytecode&#45;level random mutation</text>
<text text-anchor="start" x="358.23" y="-179.78" font-family="Helvetica Neue" font-size="8.00" fill="#c62828">produces garbage → need structural approach.</text>
</g>
<!-- backref&#45;&gt;curr -->
<g id="edge1" class="edge">
<title>backref&#45;&gt;curr</title>
<path fill="none" stroke="#e65100" stroke-width="1.5" stroke-dasharray="5,2" d="M157.86,-349.74C196.64,-334.66 254.26,-312.25 308.37,-291.21"/>
<polygon fill="#e65100" stroke="#e65100" stroke-width="1.5" points="317.72,-287.57 310.03,-295.39 313.15,-289.62 308.49,-291.43 308.4,-291.19 308.31,-290.96 312.97,-289.15 306.77,-287 317.72,-287.57 317.72,-287.57"/>
</g>
<!-- prev -->
<g id="node2" class="node">
<title>prev</title>
<path fill="#dda8f0" stroke="black" stroke-dasharray="5,2" d="M149.23,-126.18C149.23,-126.18 72.23,-126.18 72.23,-126.18 66.23,-126.18 60.23,-120.18 60.23,-114.18 60.23,-114.18 60.23,-95.18 60.23,-95.18 60.23,-89.18 66.23,-83.18 72.23,-83.18 72.23,-83.18 149.23,-83.18 149.23,-83.18 155.23,-83.18 161.23,-89.18 161.23,-95.18 161.23,-95.18 161.23,-114.18 161.23,-114.18 161.23,-120.18 155.23,-126.18 149.23,-126.18"/>
<text text-anchor="start" x="68.23" y="-107.28" font-family="Helvetica Neue" font-weight="bold" font-size="8.00" fill="#888888">MLP Status Report</text>
<text text-anchor="start" x="96.73" y="-99.28" font-family="Helvetica Neue" font-size="8.00" fill="#888888">Mar 18</text>
</g>
<!-- prev&#45;&gt;curr -->
<g id="edge2" class="edge">
<title>prev&#45;&gt;curr</title>
<path fill="none" stroke="#bbbbbb" stroke-width="1.5" stroke-dasharray="1,5" d="M161.46,-123.58C200.08,-138.26 255.71,-159.41 308.1,-179.32"/>
<polygon fill="#bbbbbb" stroke="#bbbbbb" stroke-width="1.5" points="317.49,-182.89 306.54,-183.54 312.73,-181.35 308.05,-179.57 308.14,-179.34 308.23,-179.1 312.91,-180.88 309.74,-175.13 317.49,-182.89 317.49,-182.89"/>
<text text-anchor="start" x="249.23" y="-172.08" font-family="Helvetica Neue" font-size="7.00" fill="#999999">gaps drive</text>
</g>
<!-- next -->
<g id="node4" class="node">
<title>next</title>
<path fill="#b8d4ee" stroke="black" stroke-dasharray="5,2" d="M801.73,-256.18C801.73,-256.18 711.73,-256.18 711.73,-256.18 705.73,-256.18 699.73,-250.18 699.73,-244.18 699.73,-244.18 699.73,-225.18 699.73,-225.18 699.73,-219.18 705.73,-213.18 711.73,-213.18 711.73,-213.18 801.73,-213.18 801.73,-213.18 807.73,-213.18 813.73,-219.18 813.73,-225.18 813.73,-225.18 813.73,-244.18 813.73,-244.18 813.73,-250.18 807.73,-256.18 801.73,-256.18"/>
<text text-anchor="start" x="707.73" y="-237.28" font-family="Helvetica Neue" font-weight="bold" font-size="8.00" fill="#888888">AST Evolution Design</text>
<text text-anchor="start" x="742.73" y="-229.28" font-family="Helvetica Neue" font-size="8.00" fill="#888888">Mar 19</text>
</g>
<!-- curr&#45;&gt;next -->
<g id="edge3" class="edge">
<title>curr&#45;&gt;next</title>
<path fill="none" stroke="#bbbbbb" stroke-width="1.5" stroke-dasharray="1,5" d="M592.13,-234.68C625.9,-234.68 660.6,-234.68 689.31,-234.68"/>
<polygon fill="#bbbbbb" stroke="#bbbbbb" stroke-width="1.5" points="699.6,-234.68 689.6,-239.18 694.6,-234.93 689.6,-234.93 689.6,-234.68 689.6,-234.43 694.6,-234.43 689.6,-230.18 699.6,-234.68 699.6,-234.68"/>
<text text-anchor="start" x="620.73" y="-237.08" font-family="Helvetica Neue" font-size="7.00" fill="#999999">insight drives</text>
</g>
</g>
</svg>
