<?xml version="1.0" encoding="UTF-8" standalone="no"?>
<!DOCTYPE svg PUBLIC "-//W3C//DTD SVG 1.1//EN"
 "http://www.w3.org/Graphics/SVG/1.1/DTD/svg11.dtd">
<!-- Generated by graphviz version 2.43.0 (0)
 -->
<!-- Title: slide09 Pages: 1 -->
<svg width="557pt" height="324pt"
 viewBox="0.00 0.00 556.88 324.00" xmlns="http://www.w3.org/2000/svg" xmlns:xlink="http://www.w3.org/1999/xlink">
<g id="graph0" class="graph" transform="scale(0.76 0.76) rotate(0) translate(21.6 412.77)">
<title>slide09</title>
<polygon fill="white" stroke="transparent" points="-21.6,14.4 -21.6,-412.77 712.6,-412.77 712.6,14.4 -21.6,14.4"/>
<!-- prev -->
<g id="node1" class="node">
<title>prev</title>
<path fill="#fcdba3" stroke="black" stroke-dasharray="5,2" d="M86,-220.69C86,-220.69 12,-220.69 12,-220.69 6,-220.69 0,-214.69 0,-208.69 0,-208.69 0,-189.69 0,-189.69 0,-183.69 6,-177.69 12,-177.69 12,-177.69 86,-177.69 86,-177.69 92,-177.69 98,-183.69 98,-189.69 98,-189.69 98,-208.69 98,-208.69 98,-214.69 92,-220.69 86,-220.69"/>
<text text-anchor="start" x="8" y="-201.79" font-family="Helvetica Neue" font-weight="bold" font-size="8.00" fill="#888888">Layers 1&#45;3 Review</text>
<text text-anchor="start" x="35" y="-193.79" font-family="Helvetica Neue" font-size="8.00" fill="#888888">Mar 18</text>
</g>
<!-- curr -->
<g id="node2" class="node">
<title>curr</title>
<path fill="#4a90d9" stroke="#2a70b9" stroke-width="3" d="M490,-263.69C490,-263.69 240,-263.69 240,-263.69 234,-263.69 228,-257.69 228,-251.69 228,-251.69 228,-146.69 228,-146.69 228,-140.69 234,-134.69 240,-134.69 240,-134.69 490,-134.69 490,-134.69 496,-134.69 502,-140.69 502,-146.69 502,-146.69 502,-251.69 502,-251.69 502,-257.69 496,-263.69 490,-263.69"/>
<text text-anchor="start" x="293" y="-251.09" font-family="Helvetica Neue" font-weight="bold" font-size="12.00" fill="white">AST Evolution Design</text>
<text text-anchor="start" x="292.5" y="-241.49" font-family="Helvetica Neue" font-size="9.00" fill="#dddddd">March 19 · 500+ lines · DESIGN</text>
<text text-anchor="start" x="268" y="-223.29" font-family="Helvetica Neue" font-weight="bold" font-size="8.00" fill="white">Key insight:</text>
<text text-anchor="start" x="323" y="-223.29" font-family="Helvetica Neue" font-size="8.00" fill="white"> Don&#39;t mutate bytecode randomly.</text>
<text text-anchor="start" x="257.5" y="-215.29" font-family="Helvetica Neue" font-size="8.00" fill="white">Decompile to AST → mutate structurally → recompile.</text>
<text text-anchor="start" x="326.5" y="-197.29" font-family="Helvetica Neue" font-weight="bold" font-size="8.00" fill="#dddddd">7&#45;stage pipeline:</text>
<text text-anchor="start" x="294" y="-189.29" font-family="Helvetica Neue" font-size="8.00" fill="#dddddd">0. Marker opcodes (compiler hints)</text>
<text text-anchor="start" x="303" y="-181.29" font-family="Helvetica Neue" font-size="8.00" fill="#dddddd">1. Bytecode → AST decompiler</text>
<text text-anchor="start" x="308.5" y="-173.29" font-family="Helvetica Neue" font-size="8.00" fill="#dddddd">2. AST → bytecode compiler</text>
<text text-anchor="start" x="293" y="-165.29" font-family="Helvetica Neue" font-size="8.00" fill="#dddddd">3. Stack simulator + type inference</text>
<text text-anchor="start" x="319" y="-157.29" font-family="Helvetica Neue" font-size="8.00" fill="#dddddd">4. Type&#45;directed repair</text>
<text text-anchor="start" x="285" y="-149.29" font-family="Helvetica Neue" font-size="8.00" fill="#dddddd">5. Semantic tags for tiered substitution</text>
<text text-anchor="start" x="295.5" y="-141.29" font-family="Helvetica Neue" font-size="8.00" fill="#dddddd">6. AST genetic operators (4 types)</text>
</g>
<!-- prev&#45;&gt;curr -->
<g id="edge1" class="edge">
<title>prev&#45;&gt;curr</title>
<path fill="none" stroke="#bbbbbb" stroke-width="1.5" stroke-dasharray="1,5" d="M98.03,-199.19C130.23,-199.19 174.49,-199.19 217.66,-199.19"/>
<polygon fill="#bbbbbb" stroke="#bbbbbb" stroke-width="1.5" points="227.73,-199.19 217.73,-203.69 222.73,-199.44 217.73,-199.44 217.73,-199.19 217.73,-198.94 222.73,-198.94 217.73,-194.69 227.73,-199.19 227.73,-199.19"/>
<text text-anchor="start" x="133.5" y="-209.59" font-family="Helvetica Neue" font-size="7.00" fill="#999999">mutation fails →</text>
<text text-anchor="start" x="127" y="-201.59" font-family="Helvetica Neue" font-size="7.00" fill="#999999">structural approach</text>
</g>
<!-- next -->
<g id="node3" class="node">
<title>next</title>
<path fill="#c4e2c6" stroke="black" stroke-dasharray="5,2" d="M678.5,-220.69C678.5,-220.69 599.5,-220.69 599.5,-220.69 593.5,-220.69 587.5,-214.69 587.5,-208.69 587.5,-208.69 587.5,-189.69 587.5,-189.69 587.5,-183.69 593.5,-177.69 599.5,-177.69 599.5,-177.69 678.5,-177.69 678.5,-177.69 684.5,-177.69 690.5,-183.69 690.5,-189.69 690.5,-189.69 690.5,-208.69 690.5,-208.69 690.5,-214.69 684.5,-220.69 678.5,-220.69"/>
<text text-anchor="start" x="595.5" y="-201.79" font-family="Helvetica Neue" font-weight="bold" font-size="8.00" fill="#888888">AST Evolution Plan</text>
<text text-anchor="start" x="625" y="-193.79" font-family="Helvetica Neue" font-size="8.00" fill="#888888">Mar 19</text>
</g>
<!-- curr&#45;&gt;next -->
<g id="edge2" class="edge">
<title>curr&#45;&gt;next</title>
<path fill="none" stroke="#bbbbbb" stroke-width="1.5" stroke-dasharray="1,5" d="M502.4,-199.19C528.6,-199.19 554.79,-199.19 577.06,-199.19"/>
<polygon fill="#bbbbbb" stroke="#bbbbbb" stroke-width="1.5" points="587.33,-199.19 577.33,-203.69 582.33,-199.44 577.33,-199.44 577.33,-199.19 577.33,-198.94 582.33,-198.94 577.33,-194.69 587.33,-199.19 587.33,-199.19"/>
<text text-anchor="start" x="531" y="-201.59" font-family="Helvetica Neue" font-size="7.00" fill="#999999">informs</text>
</g>
</g>
</svg>
