<?xml version="1.0" encoding="UTF-8" standalone="no"?>
<!DOCTYPE svg PUBLIC "-//W3C//DTD SVG 1.1//EN"
 "http://www.w3.org/Graphics/SVG/1.1/DTD/svg11.dtd">
<!-- Generated by graphviz version 2.43.0 (0)
 -->
<!-- Title: slide11 Pages: 1 -->
<svg width="557pt" height="324pt"
 viewBox="0.00 0.00 557.30 324.00" xmlns="http://www.w3.org/2000/svg" xmlns:xlink="http://www.w3.org/1999/xlink">
<g id="graph0" class="graph" transform="scale(0.71 0.71) rotate(0) translate(21.6 444.48)">
<title>slide11</title>
<polygon fill="white" stroke="transparent" points="-21.6,14.4 -21.6,-444.48 767.7,-444.48 767.7,14.4 -21.6,14.4"/>
<!-- backref -->
<g id="node1" class="node">
<title>backref</title>
<path fill="#fff3e0" stroke="#e65100" stroke-width="1.5" d="M164.19,-335.08C164.19,-335.08 164.19,-340.05 164.19,-340.05 164.19,-342.53 161.77,-345.55 159.34,-346.08 159.34,-346.08 120.96,-354.5 120.96,-354.5 118.53,-355.03 113.62,-355.56 111.13,-355.56 111.13,-355.56 53.06,-355.56 53.06,-355.56 50.58,-355.56 45.66,-355.03 43.24,-354.5 43.24,-354.5 4.86,-346.08 4.86,-346.08 2.43,-345.55 -0,-342.53 -0,-340.05 -0,-340.05 -0,-335.08 -0,-335.08 -0,-332.59 2.43,-329.58 4.86,-329.04 4.86,-329.04 43.24,-320.63 43.24,-320.63 45.66,-320.1 50.58,-319.56 53.06,-319.56 53.06,-319.56 111.13,-319.56 111.13,-319.56 113.62,-319.56 118.53,-320.1 120.96,-320.63 120.96,-320.63 159.34,-329.04 159.34,-329.04 161.77,-329.58 164.19,-332.59 164.19,-335.08"/>
<text text-anchor="start" x="33.6" y="-340.16" font-family="Helvetica Neue" font-weight="bold" font-size="8.00" fill="#bf360c">← AST Evolution Plan</text>
<text text-anchor="start" x="35.1" y="-332.16" font-family="Helvetica Neue" font-size="8.00" fill="#bf360c">Mar 19 · audits Stage 6</text>
</g>
<!-- curr -->
<g id="node3" class="node">
<title>curr</title>
<path fill="#c62828" stroke="#8e0000" stroke-width="3" d="M532.1,-276.06C532.1,-276.06 282.1,-276.06 282.1,-276.06 276.1,-276.06 270.1,-270.06 270.1,-264.06 270.1,-264.06 270.1,-165.06 270.1,-165.06 270.1,-159.06 276.1,-153.06 282.1,-153.06 282.1,-153.06 532.1,-153.06 532.1,-153.06 538.1,-153.06 544.1,-159.06 544.1,-165.06 544.1,-165.06 544.1,-264.06 544.1,-264.06 544.1,-270.06 538.1,-276.06 532.1,-276.06"/>
<text text-anchor="start" x="279.6" y="-263.46" font-family="Helvetica Neue" font-weight="bold" font-size="12.00" fill="white">Gap Analysis + Completion + Cleanup</text>
<text text-anchor="start" x="300.1" y="-253.86" font-family="Helvetica Neue" font-size="9.00" fill="white">March 20 · GAP + PLAN + PLAN (3 documents)</text>
<text text-anchor="start" x="327.1" y="-235.66" font-family="Helvetica Neue" font-weight="bold" font-size="8.00" fill="#ffcccc">Stage 6 Gap Analysis</text>
<text text-anchor="start" x="424.1" y="-235.66" font-family="Helvetica Neue" font-size="8.00" fill="#ffcccc"> — found bugs:</text>
<text text-anchor="start" x="310.1" y="-227.66" font-family="Helvetica Neue" font-size="8.00" fill="#ffcccc">• Roll type&#45;stack not updated in type_repair.cpp</text>
<text text-anchor="start" x="332.1" y="-219.66" font-family="Helvetica Neue" font-size="8.00" fill="#ffcccc">• Fitness limits allow DoS (SIZE_MAX)</text>
<text text-anchor="start" x="312.1" y="-211.66" font-family="Helvetica Neue" font-size="8.00" fill="#ffcccc">• move_block + control_flow_mutation missing</text>
<text text-anchor="start" x="323.6" y="-193.66" font-family="Helvetica Neue" font-weight="bold" font-size="8.00" fill="#ccffcc">Stage 6 Completion Plan</text>
<text text-anchor="start" x="436.6" y="-193.66" font-family="Helvetica Neue" font-size="8.00" fill="#ccffcc"> — 5 phases:</text>
<text text-anchor="start" x="300.6" y="-185.66" font-family="Helvetica Neue" font-size="8.00" fill="#ccffcc">P0 fixes → DRY → operators → tests → type inference</text>
<text text-anchor="start" x="318.6" y="-167.66" font-family="Helvetica Neue" font-weight="bold" font-size="8.00" fill="#ccffcc">Build Warning Cleanup</text>
<text text-anchor="start" x="424.6" y="-167.66" font-family="Helvetica Neue" font-size="8.00" fill="#ccffcc"> — parallel effort:</text>
<text text-anchor="start" x="312.1" y="-159.66" font-family="Helvetica Neue" font-size="8.00" fill="#ccffcc">27 warnings eliminated, GCC LTO ICE → &#45;flto off</text>
</g>
<!-- backref&#45;&gt;curr -->
<g id="edge1" class="edge">
<title>backref&#45;&gt;curr</title>
<path fill="none" stroke="#e65100" stroke-width="1.5" stroke-dasharray="5,2" d="M125.32,-321.48C159.94,-308.3 211.08,-288.82 260.27,-270.1"/>
<polygon fill="#e65100" stroke="#e65100" stroke-width="1.5" points="269.75,-266.49 262,-274.25 265.16,-268.5 260.49,-270.28 260.4,-270.04 260.31,-269.81 264.99,-268.03 258.8,-265.84 269.75,-266.49 269.75,-266.49"/>
</g>
<!-- prev -->
<g id="node2" class="node">
<title>prev</title>
<path fill="#c4e2c6" stroke="black" stroke-dasharray="5,2" d="M121.6,-118.06C121.6,-118.06 42.6,-118.06 42.6,-118.06 36.6,-118.06 30.6,-112.06 30.6,-106.06 30.6,-106.06 30.6,-87.06 30.6,-87.06 30.6,-81.06 36.6,-75.06 42.6,-75.06 42.6,-75.06 121.6,-75.06 121.6,-75.06 127.6,-75.06 133.6,-81.06 133.6,-87.06 133.6,-87.06 133.6,-106.06 133.6,-106.06 133.6,-112.06 127.6,-118.06 121.6,-118.06"/>
<text text-anchor="start" x="38.6" y="-99.16" font-family="Helvetica Neue" font-weight="bold" font-size="8.00" fill="#888888">AST Evolution Plan</text>
<text text-anchor="start" x="68.1" y="-91.16" font-family="Helvetica Neue" font-size="8.00" fill="#888888">Mar 19</text>
</g>
<!-- prev&#45;&gt;curr -->
<g id="edge2" class="edge">
<title>prev&#45;&gt;curr</title>
<path fill="none" stroke="#bbbbbb" stroke-width="1.5" stroke-dasharray="1,5" d="M133.92,-115.13C168.09,-127.61 214.99,-144.75 260.24,-161.28"/>
<polygon fill="#bbbbbb" stroke="#bbbbbb" stroke-width="1.5" points="269.86,-164.79 258.93,-165.59 265.08,-163.31 260.38,-161.6 260.47,-161.36 260.56,-161.13 265.25,-162.84 262.01,-157.14 269.86,-164.79 269.86,-164.79"/>
<text text-anchor="start" x="193.1" y="-154.96" font-family="Helvetica Neue" font-size="7.00" fill="#999999">done → audit</text>
</g>
<!-- next -->
<g id="node4" class="node">
<title>next</title>
<path fill="#fcdba3" stroke="black" stroke-dasharray="5,2" d="M734.6,-236.06C734.6,-236.06 643.6,-236.06 643.6,-236.06 637.6,-236.06 631.6,-230.06 631.6,-224.06 631.6,-224.06 631.6,-205.06 631.6,-205.06 631.6,-199.06 637.6,-193.06 643.6,-193.06 643.6,-193.06 734.6,-193.06 734.6,-193.06 740.6,-193.06 746.6,-199.06 746.6,-205.06 746.6,-205.06 746.6,-224.06 746.6,-224.06 746.6,-230.06 740.6,-236.06 734.6,-236.06"/>
<text text-anchor="start" x="639.6" y="-217.16" font-family="Helvetica Neue" font-weight="bold" font-size="8.00" fill="#888888">MLP Goal Assessment</text>
<text text-anchor="start" x="675.1" y="-209.16" font-family="Helvetica Neue" font-size="8.00" fill="#888888">Mar 20</text>
</g>
<!-- curr&#45;&gt;next -->
<g id="edge3" class="edge">
<title>curr&#45;&gt;next</title>
<path fill="none" stroke="#bbbbbb" stroke-width="1.5" stroke-dasharray="1,5" d="M544.41,-214.56C571.18,-214.56 598.13,-214.56 621.35,-214.56"/>
<polygon fill="#bbbbbb" stroke="#bbbbbb" stroke-width="1.5" points="631.4,-214.56 621.4,-219.06 626.4,-214.81 621.4,-214.81 621.4,-214.56 621.4,-214.31 626.4,-214.31 621.4,-210.06 631.4,-214.56 631.4,-214.56"/>
<text text-anchor="start" x="572.6" y="-216.96" font-family="Helvetica Neue" font-size="7.00" fill="#999999">enables</text>
</g>
</g>
</svg>
