<?xml version="1.0" encoding="UTF-8" standalone="no"?>
<!DOCTYPE svg PUBLIC "-//W3C//DTD SVG 1.1//EN"
 "http://www.w3.org/Graphics/SVG/1.1/DTD/svg11.dtd">
<!-- Generated by graphviz version 2.43.0 (0)
 -->
<!-- Title: overview Pages: 1 -->
<svg width="2377pt" height="1426pt"
 viewBox="0.00 0.00 2377.40 1425.90" xmlns="http://www.w3.org/2000/svg" xmlns:xlink="http://www.w3.org/1999/xlink">
<g id="graph0" class="graph" transform="scale(1 1) rotate(0) translate(43.2 1382.7)">
<title>overview</title>
<polygon fill="white" stroke="transparent" points="-43.2,43.2 -43.2,-1382.7 2334.2,-1382.7 2334.2,43.2 -43.2,43.2"/>
<g id="clust1" class="cluster">
<title>cluster_legend</title>
</g>
<g id="clust2" class="cluster">
<title>cluster_cycle</title>
<path fill="#fafafa" stroke="#888888" stroke-width="1.5" d="M165.5,-1081C165.5,-1081 938,-1081 938,-1081 944,-1081 950,-1087 950,-1093 950,-1093 950,-1190 950,-1190 950,-1196 944,-1202 938,-1202 938,-1202 165.5,-1202 165.5,-1202 159.5,-1202 153.5,-1196 153.5,-1190 153.5,-1190 153.5,-1093 153.5,-1093 153.5,-1087 159.5,-1081 165.5,-1081"/>
<text text-anchor="start" x="504.75" y="-1191" font-family="Helvetica Neue" font-weight="bold" font-size="10.00" fill="#333333">The Macro Cycle</text>
</g>
<!-- title -->
<g id="node1" class="node">
<title>title</title>
<text text-anchor="start" x="8" y="-31" font-family="Helvetica Neue" font-weight="bold" font-size="20.00">ETIL Design&#45;Plan&#45;Review Workflow</text>
<text text-anchor="start" x="37.5" y="-17.4" font-family="Helvetica Neue" font-size="12.00" fill="#666666">20 documents · 4 iterations · 10 days · v0.8.15 → v1.6.0</text>
<text text-anchor="start" x="66.5" y="-7" font-family="Helvetica Neue" font-size="10.00" fill="#999999">Each iteration&#39;s review feeds the next iteration&#39;s design</text>
</g>
<!-- l_d -->
<g id="node2" class="node">
<title>l_d</title>
<path fill="#4a90d9" stroke="black" stroke-width="1.5" d="M228.67,-108C228.67,-108 178.33,-108 178.33,-108 174.67,-108 171,-104.33 171,-100.67 171,-100.67 171,-93.33 171,-93.33 171,-89.67 174.67,-86 178.33,-86 178.33,-86 228.67,-86 228.67,-86 232.33,-86 236,-89.67 236,-93.33 236,-93.33 236,-100.67 236,-100.67 236,-104.33 232.33,-108 228.67,-108"/>
<text text-anchor="middle" x="203.5" y="-95.1" font-family="Helvetica Neue" font-size="8.00" fill="white">Design</text>
</g>
<!-- l_p -->
<g id="node3" class="node">
<title>l_p</title>
<path fill="#7bc67e" stroke="black" stroke-width="1.5" d="M548.17,-108C548.17,-108 497.83,-108 497.83,-108 494.17,-108 490.5,-104.33 490.5,-100.67 490.5,-100.67 490.5,-93.33 490.5,-93.33 490.5,-89.67 494.17,-86 497.83,-86 497.83,-86 548.17,-86 548.17,-86 551.83,-86 555.5,-89.67 555.5,-93.33 555.5,-93.33 555.5,-100.67 555.5,-100.67 555.5,-104.33 551.83,-108 548.17,-108"/>
<text text-anchor="middle" x="523" y="-95.1" font-family="Helvetica Neue" font-size="8.00" fill="white">Plan</text>
</g>
<!-- l_d&#45;&gt;l_p -->
<!-- l_r -->
<g id="node4" class="node">
<title>l_r</title>
<path fill="#f5a623" stroke="black" stroke-width="1.5" d="M773.67,-108C773.67,-108 685.33,-108 685.33,-108 681.67,-108 678,-104.33 678,-100.67 678,-100.67 678,-93.33 678,-93.33 678,-89.67 681.67,-86 685.33,-86 685.33,-86 773.67,-86 773.67,-86 777.33,-86 781,-89.67 781,-93.33 781,-93.33 781,-100.67 781,-100.67 781,-104.33 777.33,-108 773.67,-108"/>
<text text-anchor="middle" x="729.5" y="-95.1" font-family="Helvetica Neue" font-size="8.00" fill="white">Review / Assessment</text>
</g>
<!-- l_p&#45;&gt;l_r -->
<!-- l_g -->
<g id="node5" class="node">
<title>l_g</title>
<path fill="#d0021b" stroke="black" stroke-width="1.5" d="M927.17,-108C927.17,-108 872.83,-108 872.83,-108 869.17,-108 865.5,-104.33 865.5,-100.67 865.5,-100.67 865.5,-93.33 865.5,-93.33 865.5,-89.67 869.17,-86 872.83,-86 872.83,-86 927.17,-86 927.17,-86 930.83,-86 934.5,-89.67 934.5,-93.33 934.5,-93.33 934.5,-100.67 934.5,-100.67 934.5,-104.33 930.83,-108 927.17,-108"/>
<text text-anchor="middle" x="900" y="-95.1" font-family="Helvetica Neue" font-size="8.00" fill="white">Gap Analysis</text>
</g>
<!-- l_r&#45;&gt;l_g -->
<!-- l_s -->
<g id="node6" class="node">
<title>l_s</title>
<path fill="#bd10e0" stroke="black" stroke-width="1.5" d="M1090.67,-108C1090.67,-108 1033.33,-108 1033.33,-108 1029.67,-108 1026,-104.33 1026,-100.67 1026,-100.67 1026,-93.33 1026,-93.33 1026,-89.67 1029.67,-86 1033.33,-86 1033.33,-86 1090.67,-86 1090.67,-86 1094.33,-86 1098,-89.67 1098,-93.33 1098,-93.33 1098,-100.67 1098,-100.67 1098,-104.33 1094.33,-108 1090.67,-108"/>
<text text-anchor="middle" x="1062" y="-95.1" font-family="Helvetica Neue" font-size="8.00" fill="white">Status Report</text>
</g>
<!-- l_g&#45;&gt;l_s -->
<!-- l_o -->
<g id="node7" class="node">
<title>l_o</title>
<path fill="#9b9b9b" stroke="black" stroke-width="1.5" d="M1249.17,-108C1249.17,-108 1192.83,-108 1192.83,-108 1189.17,-108 1185.5,-104.33 1185.5,-100.67 1185.5,-100.67 1185.5,-93.33 1185.5,-93.33 1185.5,-89.67 1189.17,-86 1192.83,-86 1192.83,-86 1249.17,-86 1249.17,-86 1252.83,-86 1256.5,-89.67 1256.5,-93.33 1256.5,-93.33 1256.5,-100.67 1256.5,-100.67 1256.5,-104.33 1252.83,-108 1249.17,-108"/>
<text text-anchor="middle" x="1221" y="-95.1" font-family="Helvetica Neue" font-size="8.00" fill="white">Process / Ops</text>
</g>
<!-- l_s&#45;&gt;l_o -->
<!-- s01 -->
<g id="node8" class="node">
<title>s01</title>
<path fill="#4a90d9" stroke="black" stroke-width="1.5" d="M234.5,-779C234.5,-779 172.5,-779 172.5,-779 166.5,-779 160.5,-773 160.5,-767 160.5,-767 160.5,-755 160.5,-755 160.5,-749 166.5,-743 172.5,-743 172.5,-743 234.5,-743 234.5,-743 240.5,-743 246.5,-749 246.5,-755 246.5,-755 246.5,-767 246.5,-767 246.5,-773 240.5,-779 234.5,-779"/>
<text text-anchor="start" x="173" y="-762.8" font-family="Helvetica Neue" font-weight="bold" font-size="9.00" fill="white">MLP Design</text>
<text text-anchor="start" x="191" y="-755.4" font-family="Helvetica Neue" font-size="7.00" fill="white">Mar 10</text>
</g>
<!-- s02 -->
<g id="node9" class="node">
<title>s02</title>
<path fill="#7bc67e" stroke="black" stroke-width="1.5" d="M554,-779C554,-779 492,-779 492,-779 486,-779 480,-773 480,-767 480,-767 480,-755 480,-755 480,-749 486,-743 492,-743 492,-743 554,-743 554,-743 560,-743 566,-749 566,-755 566,-755 566,-767 566,-767 566,-773 560,-779 554,-779"/>
<text text-anchor="start" x="499" y="-762.8" font-family="Helvetica Neue" font-weight="bold" font-size="9.00" fill="white">MLP Plan</text>
<text text-anchor="start" x="510.5" y="-755.4" font-family="Helvetica Neue" font-size="7.00" fill="white">Mar 10</text>
</g>
<!-- s01&#45;&gt;s02 -->
<g id="edge6" class="edge">
<title>s01&#45;&gt;s02</title>
<path fill="none" stroke="#333333" stroke-width="2" d="M246.66,-761C304.27,-761 407.51,-761 469.89,-761"/>
<polygon fill="#333333" stroke="#333333" stroke-width="2" points="469.92,-764.5 479.92,-761 469.92,-757.5 469.92,-764.5"/>
</g>
<!-- s03 -->
<g id="node10" class="node">
<title>s03</title>
<path fill="#4a90d9" stroke="black" stroke-width="1.5" d="M760.5,-779C760.5,-779 698.5,-779 698.5,-779 692.5,-779 686.5,-773 686.5,-767 686.5,-767 686.5,-755 686.5,-755 686.5,-749 692.5,-743 698.5,-743 698.5,-743 760.5,-743 760.5,-743 766.5,-743 772.5,-749 772.5,-755 772.5,-755 772.5,-767 772.5,-767 772.5,-773 766.5,-779 760.5,-779"/>
<text text-anchor="start" x="700.5" y="-762.8" font-family="Helvetica Neue" font-weight="bold" font-size="9.00" fill="white">Observable</text>
<text text-anchor="start" x="717" y="-755.4" font-family="Helvetica Neue" font-size="7.00" fill="white">Mar 12</text>
</g>
<!-- s02&#45;&gt;s03 -->
<g id="edge7" class="edge">
<title>s02&#45;&gt;s03</title>
<path fill="none" stroke="#999999" stroke-width="1.5" stroke-dasharray="5,2" d="M566.37,-761C598.18,-761 641.92,-761 675.96,-761"/>
<polygon fill="#999999" stroke="#999999" stroke-width="1.5" points="676.18,-764.5 686.18,-761 676.18,-757.5 676.18,-764.5"/>
<text text-anchor="start" x="602" y="-763.2" font-family="Helvetica Neue" font-size="6.00">parallel track</text>
</g>
<!-- s04 -->
<g id="node11" class="node">
<title>s04</title>
<path fill="#4a90d9" stroke="black" stroke-width="1.5" d="M934,-779C934,-779 866,-779 866,-779 860,-779 854,-773 854,-767 854,-767 854,-755 854,-755 854,-749 860,-743 866,-743 866,-743 934,-743 934,-743 940,-743 946,-749 946,-755 946,-755 946,-767 946,-767 946,-773 940,-779 934,-779"/>
<text text-anchor="start" x="862" y="-762.8" font-family="Helvetica Neue" font-weight="bold" font-size="9.00" fill="white">Temporal+AVO</text>
<text text-anchor="start" x="881.5" y="-755.4" font-family="Helvetica Neue" font-size="7.00" fill="white">Mar 15&#45;16</text>
</g>
<!-- s03&#45;&gt;s04 -->
<g id="edge8" class="edge">
<title>s03&#45;&gt;s04</title>
<path fill="none" stroke="#333333" stroke-width="2" d="M772.59,-761C794.15,-761 820.69,-761 843.87,-761"/>
<polygon fill="#333333" stroke="#333333" stroke-width="2" points="843.91,-764.5 853.91,-761 843.91,-757.5 843.91,-764.5"/>
</g>
<!-- s05 -->
<g id="node12" class="node">
<title>s05</title>
<path fill="#9b9b9b" stroke="black" stroke-width="1.5" d="M1093,-779C1093,-779 1031,-779 1031,-779 1025,-779 1019,-773 1019,-767 1019,-767 1019,-755 1019,-755 1019,-749 1025,-743 1031,-743 1031,-743 1093,-743 1093,-743 1099,-743 1105,-749 1105,-755 1105,-755 1105,-767 1105,-767 1105,-773 1099,-779 1093,-779"/>
<text text-anchor="start" x="1037.5" y="-762.8" font-family="Helvetica Neue" font-weight="bold" font-size="9.00" fill="white">Build Ops</text>
<text text-anchor="start" x="1049.5" y="-755.4" font-family="Helvetica Neue" font-size="7.00" fill="white">Mar 16</text>
</g>
<!-- s04&#45;&gt;s05 -->
<g id="edge9" class="edge">
<title>s04&#45;&gt;s05</title>
<path fill="none" stroke="#999999" stroke-width="1.5" d="M946.42,-761C965.78,-761 988.47,-761 1008.54,-761"/>
<polygon fill="#999999" stroke="#999999" stroke-width="1.5" points="1008.76,-764.5 1018.76,-761 1008.76,-757.5 1008.76,-764.5"/>
</g>
<!-- s06 -->
<g id="node13" class="node">
<title>s06</title>
<path fill="#d0021b" stroke="black" stroke-width="1.5" d="M1252,-779C1252,-779 1190,-779 1190,-779 1184,-779 1178,-773 1178,-767 1178,-767 1178,-755 1178,-755 1178,-749 1184,-743 1190,-743 1190,-743 1252,-743 1252,-743 1258,-743 1264,-749 1264,-755 1264,-755 1264,-767 1264,-767 1264,-773 1258,-779 1252,-779"/>
<text text-anchor="start" x="1198" y="-762.8" font-family="Helvetica Neue" font-weight="bold" font-size="9.00" fill="white">RxJS Gap</text>
<text text-anchor="start" x="1208.5" y="-755.4" font-family="Helvetica Neue" font-size="7.00" fill="white">Mar 17</text>
</g>
<!-- s05&#45;&gt;s06 -->
<g id="edge10" class="edge">
<title>s05&#45;&gt;s06</title>
<path fill="none" stroke="#999999" stroke-width="1.5" d="M1105.07,-761C1124.34,-761 1147.38,-761 1167.75,-761"/>
<polygon fill="#999999" stroke="#999999" stroke-width="1.5" points="1167.81,-764.5 1177.81,-761 1167.81,-757.5 1167.81,-764.5"/>
</g>
<!-- s07 -->
<g id="node14" class="node">
<title>s07</title>
<path fill="#bd10e0" stroke="black" stroke-width="1.5" d="M1411,-779C1411,-779 1349,-779 1349,-779 1343,-779 1337,-773 1337,-767 1337,-767 1337,-755 1337,-755 1337,-749 1343,-743 1349,-743 1349,-743 1411,-743 1411,-743 1417,-743 1423,-749 1423,-755 1423,-755 1423,-767 1423,-767 1423,-773 1417,-779 1411,-779"/>
<text text-anchor="start" x="1350.5" y="-762.8" font-family="Helvetica Neue" font-weight="bold" font-size="9.00" fill="white">MLP Status</text>
<text text-anchor="start" x="1367.5" y="-755.4" font-family="Helvetica Neue" font-size="7.00" fill="white">Mar 18</text>
</g>
<!-- s06&#45;&gt;s07 -->
<g id="edge11" class="edge">
<title>s06&#45;&gt;s07</title>
<path fill="none" stroke="#999999" stroke-width="1.5" d="M1264.07,-761C1283.34,-761 1306.38,-761 1326.75,-761"/>
<polygon fill="#999999" stroke="#999999" stroke-width="1.5" points="1326.81,-764.5 1336.81,-761 1326.81,-757.5 1326.81,-764.5"/>
</g>
<!-- s07&#45;&gt;s01 -->
<g id="edge18" class="edge">
<title>s07&#45;&gt;s01</title>
<path fill="none" stroke="#e65100" stroke-dasharray="5,2" d="M1336.78,-744.34C1315.47,-736.81 1289.01,-728.76 1264.5,-725 919.87,-672.1 827.93,-702.36 480,-725 396.97,-730.4 300.75,-744.87 246.81,-753.73"/>
</g>
<!-- s08 -->
<g id="node15" class="node">
<title>s08</title>
<path fill="#f5a623" stroke="black" stroke-width="1.5" d="M1601,-779C1601,-779 1539,-779 1539,-779 1533,-779 1527,-773 1527,-767 1527,-767 1527,-755 1527,-755 1527,-749 1533,-743 1539,-743 1539,-743 1601,-743 1601,-743 1607,-743 1613,-749 1613,-755 1613,-755 1613,-767 1613,-767 1613,-773 1607,-779 1601,-779"/>
<text text-anchor="start" x="1543.5" y="-762.8" font-family="Helvetica Neue" font-weight="bold" font-size="9.00" fill="white">Layers 1&#45;3</text>
<text text-anchor="start" x="1557.5" y="-755.4" font-family="Helvetica Neue" font-size="7.00" fill="white">Mar 18</text>
</g>
<!-- s07&#45;&gt;s08 -->
<g id="edge12" class="edge">
<title>s07&#45;&gt;s08</title>
<path fill="none" stroke="#333333" stroke-width="2" d="M1423.19,-761C1450.89,-761 1487.31,-761 1516.82,-761"/>
<polygon fill="#333333" stroke="#333333" stroke-width="2" points="1516.95,-764.5 1526.95,-761 1516.95,-757.5 1516.95,-764.5"/>
<text text-anchor="start" x="1459" y="-763.2" font-family="Helvetica Neue" font-size="6.00">gaps drive</text>
</g>
<!-- s08&#45;&gt;s01 -->
<g id="edge20" class="edge">
<title>s08&#45;&gt;s01</title>
<path fill="none" stroke="#e65100" stroke-dasharray="5,2" d="M1526.77,-749.35C1497.75,-741.66 1458.25,-731.77 1423,-725 1353.16,-711.58 1335.14,-711.22 1264.5,-703 918.16,-662.7 825.42,-662.43 480,-710 396.88,-721.45 300.69,-740.62 246.78,-751.92"/>
</g>
<!-- s09 -->
<g id="node16" class="node">
<title>s09</title>
<path fill="#4a90d9" stroke="black" stroke-width="1.5" d="M1779,-779C1779,-779 1717,-779 1717,-779 1711,-779 1705,-773 1705,-767 1705,-767 1705,-755 1705,-755 1705,-749 1711,-743 1717,-743 1717,-743 1779,-743 1779,-743 1785,-743 1791,-749 1791,-755 1791,-755 1791,-767 1791,-767 1791,-773 1785,-779 1779,-779"/>
<text text-anchor="start" x="1719" y="-762.8" font-family="Helvetica Neue" font-weight="bold" font-size="9.00" fill="white">AST Design</text>
<text text-anchor="start" x="1735.5" y="-755.4" font-family="Helvetica Neue" font-size="7.00" fill="white">Mar 19</text>
</g>
<!-- s08&#45;&gt;s09 -->
<g id="edge13" class="edge">
<title>s08&#45;&gt;s09</title>
<path fill="none" stroke="#333333" stroke-width="2" d="M1613.16,-761C1637.67,-761 1668.76,-761 1694.8,-761"/>
<polygon fill="#333333" stroke="#333333" stroke-width="2" points="1694.88,-764.5 1704.88,-761 1694.88,-757.5 1694.88,-764.5"/>
<text text-anchor="start" x="1649" y="-763.2" font-family="Helvetica Neue" font-size="6.00">insight</text>
</g>
<!-- s10 -->
<g id="node17" class="node">
<title>s10</title>
<path fill="#7bc67e" stroke="black" stroke-width="1.5" d="M1938,-779C1938,-779 1876,-779 1876,-779 1870,-779 1864,-773 1864,-767 1864,-767 1864,-755 1864,-755 1864,-749 1870,-743 1876,-743 1876,-743 1938,-743 1938,-743 1944,-743 1950,-749 1950,-755 1950,-755 1950,-767 1950,-767 1950,-773 1944,-779 1938,-779"/>
<text text-anchor="start" x="1884" y="-762.8" font-family="Helvetica Neue" font-weight="bold" font-size="9.00" fill="white">AST Plan</text>
<text text-anchor="start" x="1894.5" y="-755.4" font-family="Helvetica Neue" font-size="7.00" fill="white">Mar 19</text>
</g>
<!-- s09&#45;&gt;s10 -->
<g id="edge14" class="edge">
<title>s09&#45;&gt;s10</title>
<path fill="none" stroke="#333333" stroke-width="2" d="M1791.07,-761C1810.34,-761 1833.38,-761 1853.75,-761"/>
<polygon fill="#333333" stroke="#333333" stroke-width="2" points="1853.81,-764.5 1863.81,-761 1853.81,-757.5 1853.81,-764.5"/>
</g>
<!-- s11 -->
<g id="node18" class="node">
<title>s11</title>
<path fill="#d0021b" stroke="black" stroke-width="1.5" d="M2120,-779C2120,-779 2050,-779 2050,-779 2044,-779 2038,-773 2038,-767 2038,-767 2038,-755 2038,-755 2038,-749 2044,-743 2050,-743 2050,-743 2120,-743 2120,-743 2126,-743 2132,-749 2132,-755 2132,-755 2132,-767 2132,-767 2132,-773 2126,-779 2120,-779"/>
<text text-anchor="start" x="2046" y="-762.8" font-family="Helvetica Neue" font-weight="bold" font-size="9.00" fill="white">Gap+Fix+Warn</text>
<text text-anchor="start" x="2072.5" y="-755.4" font-family="Helvetica Neue" font-size="7.00" fill="white">Mar 20</text>
</g>
<!-- s10&#45;&gt;s11 -->
<g id="edge15" class="edge">
<title>s10&#45;&gt;s11</title>
<path fill="none" stroke="#333333" stroke-width="2" d="M1950.16,-761C1973.4,-761 2002.55,-761 2027.71,-761"/>
<polygon fill="#333333" stroke="#333333" stroke-width="2" points="2027.86,-764.5 2037.86,-761 2027.86,-757.5 2027.86,-764.5"/>
<text text-anchor="start" x="1986" y="-763.2" font-family="Helvetica Neue" font-size="6.00">audit</text>
</g>
<!-- s11&#45;&gt;s10 -->
<g id="edge22" class="edge">
<title>s11&#45;&gt;s10</title>
<path fill="none" stroke="#e65100" stroke-dasharray="5,2" d="M2037.69,-753.9C2021.37,-752.15 2002.89,-751.03 1986,-752 1974.3,-752.67 1961.65,-753.91 1950.02,-755.25"/>
</g>
<!-- s12 -->
<g id="node19" class="node">
<title>s12</title>
<path fill="#f5a623" stroke="#333333" stroke-width="3" d="M2279,-779C2279,-779 2217,-779 2217,-779 2211,-779 2205,-773 2205,-767 2205,-767 2205,-755 2205,-755 2205,-749 2211,-743 2217,-743 2217,-743 2279,-743 2279,-743 2285,-743 2291,-749 2291,-755 2291,-755 2291,-767 2291,-767 2291,-773 2285,-779 2279,-779"/>
<text text-anchor="start" x="2217.5" y="-762.8" font-family="Helvetica Neue" font-weight="bold" font-size="9.00" fill="white">Assessment</text>
<text text-anchor="start" x="2235.5" y="-755.4" font-family="Helvetica Neue" font-size="7.00" fill="white">Mar 20</text>
</g>
<!-- s11&#45;&gt;s12 -->
<g id="edge16" class="edge">
<title>s11&#45;&gt;s12</title>
<path fill="none" stroke="#333333" stroke-width="2" d="M2132.14,-761C2151.68,-761 2174.55,-761 2194.72,-761"/>
<polygon fill="#333333" stroke="#333333" stroke-width="2" points="2194.99,-764.5 2204.99,-761 2194.99,-757.5 2194.99,-764.5"/>
</g>
<!-- s12&#45;&gt;s01 -->
<g id="edge24" class="edge">
<title>s12&#45;&gt;s01</title>
<path fill="none" stroke="#e65100" stroke-width="1.5" stroke-dasharray="5,2" d="M2219.47,-742.9C2196.95,-729.09 2163.74,-710.97 2132,-702 2053.93,-679.94 2031.02,-692.09 1950,-688 1385.31,-659.52 1242.26,-630.92 678,-667 589.64,-672.65 567.06,-672.87 480,-689 396.15,-704.53 300.21,-731.82 246.55,-747.97"/>
</g>
<!-- s12&#45;&gt;s07 -->
<g id="edge26" class="edge">
<title>s12&#45;&gt;s07</title>
<path fill="none" stroke="#e65100" stroke-dasharray="5,2" d="M2204.86,-744.43C2183.41,-736.87 2156.71,-728.78 2132,-725 1866.2,-684.37 1793.93,-692.58 1527,-725 1491.5,-729.31 1452.18,-739.32 1423.3,-747.69"/>
</g>
<!-- br1 -->
<g id="node20" class="node">
<title>br1</title>
<path fill="#fff3e0" stroke="#e65100" stroke-width="1.5" d="M257.46,-159.51C257.46,-159.51 257.46,-164.49 257.46,-164.49 257.46,-166.97 255.1,-170.24 252.75,-171.03 252.75,-171.03 230.57,-178.43 230.57,-178.43 228.21,-179.21 223.37,-180 220.88,-180 220.88,-180 186.12,-180 186.12,-180 183.63,-180 178.79,-179.21 176.43,-178.43 176.43,-178.43 154.25,-171.03 154.25,-171.03 151.9,-170.24 149.54,-166.97 149.54,-164.49 149.54,-164.49 149.54,-159.51 149.54,-159.51 149.54,-157.03 151.9,-153.76 154.25,-152.97 154.25,-152.97 176.43,-145.57 176.43,-145.57 178.79,-144.79 183.63,-144 186.12,-144 186.12,-144 220.88,-144 220.88,-144 223.37,-144 228.21,-144.79 230.57,-145.57 230.57,-145.57 252.75,-152.97 252.75,-152.97 255.1,-153.76 257.46,-157.03 257.46,-159.51"/>
<text text-anchor="start" x="174.5" y="-164.4" font-family="Helvetica Neue" font-size="7.00" fill="#bf360c">refs MLP Design</text>
<text text-anchor="start" x="181.5" y="-156.4" font-family="Helvetica Neue" font-size="7.00" fill="#bf360c">sections 2&#45;6</text>
</g>
<!-- br1&#45;&gt;s07 -->
<g id="edge17" class="edge">
<title>br1&#45;&gt;s07</title>
<path fill="none" stroke="#e65100" stroke-width="1.5" stroke-dasharray="5,2" d="M257.24,-156.93C433.32,-141.07 997.87,-99.21 1142,-199 1329.57,-328.87 1369.29,-638.19 1377.16,-732.94"/>
<polygon fill="#e65100" stroke="#e65100" stroke-width="1.5" points="1373.67,-733.21 1377.94,-742.91 1380.65,-732.67 1373.67,-733.21"/>
</g>
<!-- br2 -->
<g id="node21" class="node">
<title>br2</title>
<path fill="#fff3e0" stroke="#e65100" stroke-width="1.5" d="M278.08,-245.51C278.08,-245.51 278.08,-250.49 278.08,-250.49 278.08,-252.97 275.66,-256.04 273.24,-256.62 273.24,-256.62 239.22,-264.83 239.22,-264.83 236.81,-265.42 231.9,-266 229.42,-266 229.42,-266 177.58,-266 177.58,-266 175.1,-266 170.19,-265.42 167.78,-264.83 167.78,-264.83 133.76,-256.62 133.76,-256.62 131.34,-256.04 128.92,-252.97 128.92,-250.49 128.92,-250.49 128.92,-245.51 128.92,-245.51 128.92,-243.03 131.34,-239.96 133.76,-239.38 133.76,-239.38 167.78,-231.17 167.78,-231.17 170.19,-230.58 175.1,-230 177.58,-230 177.58,-230 229.42,-230 229.42,-230 231.9,-230 236.81,-230.58 239.22,-231.17 239.22,-231.17 273.24,-239.38 273.24,-239.38 275.66,-239.96 278.08,-243.03 278.08,-245.51"/>
<text text-anchor="start" x="160" y="-250.4" font-family="Helvetica Neue" font-size="7.00" fill="#bf360c">implements MLP Design</text>
<text text-anchor="start" x="181.5" y="-242.4" font-family="Helvetica Neue" font-size="7.00" fill="#bf360c">sections 3&#45;6</text>
</g>
<!-- br2&#45;&gt;s08 -->
<g id="edge19" class="edge">
<title>br2&#45;&gt;s08</title>
<path fill="none" stroke="#e65100" stroke-width="1.5" stroke-dasharray="5,2" d="M277.16,-240.32C494.22,-218.84 1133.14,-166.73 1301,-278 1470.4,-390.29 1543,-647.69 1562.97,-732.98"/>
<polygon fill="#e65100" stroke="#e65100" stroke-width="1.5" points="1559.61,-733.98 1565.25,-742.95 1566.43,-732.42 1559.61,-733.98"/>
</g>
<!-- br3 -->
<g id="node22" class="node">
<title>br3</title>
<path fill="#fff3e0" stroke="#e65100" stroke-width="1.5" d="M256.51,-346.51C256.51,-346.51 256.51,-351.49 256.51,-351.49 256.51,-353.97 254.16,-357.25 251.8,-358.05 251.8,-358.05 230.16,-365.4 230.16,-365.4 227.81,-366.2 222.97,-367 220.49,-367 220.49,-367 186.51,-367 186.51,-367 184.03,-367 179.19,-366.2 176.84,-365.4 176.84,-365.4 155.2,-358.05 155.2,-358.05 152.84,-357.25 150.49,-353.97 150.49,-351.49 150.49,-351.49 150.49,-346.51 150.49,-346.51 150.49,-344.03 152.84,-340.75 155.2,-339.95 155.2,-339.95 176.84,-332.6 176.84,-332.6 179.19,-331.8 184.03,-331 186.51,-331 186.51,-331 220.49,-331 220.49,-331 222.97,-331 227.81,-331.8 230.16,-332.6 230.16,-332.6 251.8,-339.95 251.8,-339.95 254.16,-340.75 256.51,-344.03 256.51,-346.51"/>
<text text-anchor="start" x="175" y="-351.4" font-family="Helvetica Neue" font-size="7.00" fill="#bf360c">audits AST Plan</text>
<text text-anchor="start" x="189.5" y="-343.4" font-family="Helvetica Neue" font-size="7.00" fill="#bf360c">Stage 6</text>
</g>
<!-- br3&#45;&gt;s11 -->
<g id="edge21" class="edge">
<title>br3&#45;&gt;s11</title>
<path fill="none" stroke="#e65100" stroke-width="1.5" stroke-dasharray="5,2" d="M256.52,-344.74C503.29,-325.51 1555.13,-254.54 1828,-418 1957.75,-495.73 2043.01,-666.7 2072.5,-733.49"/>
<polygon fill="#e65100" stroke="#e65100" stroke-width="1.5" points="2069.41,-735.15 2076.6,-742.93 2075.83,-732.36 2069.41,-735.15"/>
</g>
<!-- br4 -->
<g id="node23" class="node">
<title>br4</title>
<path fill="#fff3e0" stroke="#e65100" stroke-width="1.5" d="M250.89,-664.51C250.89,-664.51 250.89,-669.49 250.89,-669.49 250.89,-671.97 248.57,-675.34 246.25,-676.22 246.25,-676.22 227.78,-683.24 227.78,-683.24 225.45,-684.12 220.65,-685 218.16,-685 218.16,-685 188.84,-685 188.84,-685 186.35,-685 181.55,-684.12 179.22,-683.24 179.22,-683.24 160.75,-676.22 160.75,-676.22 158.43,-675.34 156.11,-671.97 156.11,-669.49 156.11,-669.49 156.11,-664.51 156.11,-664.51 156.11,-662.03 158.43,-658.66 160.75,-657.78 160.75,-657.78 179.22,-650.76 179.22,-650.76 181.55,-649.88 186.35,-649 188.84,-649 188.84,-649 218.16,-649 218.16,-649 220.65,-649 225.45,-649.88 227.78,-650.76 227.78,-650.76 246.25,-657.78 246.25,-657.78 248.57,-658.66 250.89,-662.03 250.89,-664.51"/>
<text text-anchor="start" x="185.5" y="-669.4" font-family="Helvetica Neue" font-size="7.00" fill="#bf360c">compares</text>
<text text-anchor="start" x="179" y="-661.4" font-family="Helvetica Neue" font-size="7.00" fill="#bf360c">v0.8.15 goals</text>
</g>
<!-- br4&#45;&gt;s12 -->
<g id="edge23" class="edge">
<title>br4&#45;&gt;s12</title>
<path fill="none" stroke="#e65100" stroke-width="1.5" stroke-dasharray="5,2" d="M250.96,-665.08C357.54,-660.74 627.85,-650.06 854,-644 1422.01,-628.78 1595.15,-492.84 2132,-679 2166.25,-690.88 2199.3,-716.38 2221.11,-735.82"/>
<polygon fill="#e65100" stroke="#e65100" stroke-width="1.5" points="2218.87,-738.51 2228.61,-742.67 2223.58,-733.34 2218.87,-738.51"/>
</g>
<!-- br5 -->
<g id="node24" class="node">
<title>br5</title>
<path fill="#fff3e0" stroke="#e65100" stroke-width="1.5" d="M249.94,-476.51C249.94,-476.51 249.94,-481.49 249.94,-481.49 249.94,-483.97 247.62,-487.35 245.31,-488.25 245.31,-488.25 227.37,-495.2 227.37,-495.2 225.05,-496.1 220.25,-497 217.77,-497 217.77,-497 189.23,-497 189.23,-497 186.75,-497 181.95,-496.1 179.63,-495.2 179.63,-495.2 161.69,-488.25 161.69,-488.25 159.38,-487.35 157.06,-483.97 157.06,-481.49 157.06,-481.49 157.06,-476.51 157.06,-476.51 157.06,-474.03 159.38,-470.65 161.69,-469.75 161.69,-469.75 179.63,-462.8 179.63,-462.8 181.95,-461.9 186.75,-461 189.23,-461 189.23,-461 217.77,-461 217.77,-461 220.25,-461 225.05,-461.9 227.37,-462.8 227.37,-462.8 245.31,-469.75 245.31,-469.75 247.62,-470.65 249.94,-474.03 249.94,-476.51"/>
<text text-anchor="start" x="185.5" y="-481.4" font-family="Helvetica Neue" font-size="7.00" fill="#bf360c">compares</text>
<text text-anchor="start" x="179.5" y="-473.4" font-family="Helvetica Neue" font-size="7.00" fill="#bf360c">v1.0.0 status</text>
</g>
<!-- br5&#45;&gt;s12 -->
<g id="edge25" class="edge">
<title>br5&#45;&gt;s12</title>
<path fill="none" stroke="#e65100" stroke-width="1.5" stroke-dasharray="5,2" d="M250.03,-480.57C439.32,-487.36 1182.6,-516.49 1791,-575 1944.49,-589.76 1998.45,-561.92 2132,-639 2173.4,-662.9 2209.01,-706.34 2229.22,-734.42"/>
<polygon fill="#e65100" stroke="#e65100" stroke-width="1.5" points="2226.61,-736.79 2235.23,-742.95 2232.33,-732.76 2226.61,-736.79"/>
</g>
<!-- iter1 -->
<g id="node25" class="node">
<title>iter1</title>
<text text-anchor="start" x="176.5" y="-840.3" font-family="Helvetica Neue" font-weight="bold" font-size="9.00" fill="#4a90d9">Iteration 1</text>
<text text-anchor="start" x="171" y="-831.3" font-family="Helvetica Neue" font-size="9.00" fill="#4a90d9">MLP Feasibility</text>
<text text-anchor="start" x="167" y="-822.3" font-family="Helvetica Neue" font-size="9.00" fill="#4a90d9">v0.8.15→v1.0.0</text>
</g>
<!-- iter2 -->
<g id="node26" class="node">
<title>iter2</title>
<text text-anchor="start" x="176.5" y="-912.3" font-family="Helvetica Neue" font-weight="bold" font-size="9.00" fill="#7bc67e">Iteration 2</text>
<text text-anchor="start" x="176" y="-903.3" font-family="Helvetica Neue" font-size="9.00" fill="#7bc67e">Observables</text>
<text text-anchor="start" x="170" y="-894.3" font-family="Helvetica Neue" font-size="9.00" fill="#7bc67e">v0.9.0→v0.9.8</text>
</g>
<!-- iter3 -->
<g id="node27" class="node">
<title>iter3</title>
<text text-anchor="start" x="176.5" y="-984.3" font-family="Helvetica Neue" font-weight="bold" font-size="9.00" fill="#f5a623">Iteration 3</text>
<text text-anchor="start" x="163.5" y="-975.3" font-family="Helvetica Neue" font-size="9.00" fill="#f5a623">Evolution Pipeline</text>
<text text-anchor="start" x="170" y="-966.3" font-family="Helvetica Neue" font-size="9.00" fill="#f5a623">v1.0.0→v1.5.0</text>
</g>
<!-- iter4 -->
<g id="node28" class="node">
<title>iter4</title>
<text text-anchor="start" x="176.5" y="-1056.3" font-family="Helvetica Neue" font-weight="bold" font-size="9.00" fill="#d0021b">Iteration 4</text>
<text text-anchor="start" x="179.5" y="-1047.3" font-family="Helvetica Neue" font-size="9.00" fill="#d0021b">Hardening</text>
<text text-anchor="start" x="170" y="-1038.3" font-family="Helvetica Neue" font-size="9.00" fill="#d0021b">v1.5.0→v1.6.0</text>
</g>
<!-- c_d -->
<g id="node29" class="node">
<title>c_d</title>
<ellipse fill="#4a90d9" stroke="black" stroke-width="1.5" cx="203.5" cy="-1136" rx="36" ry="18"/>
<text text-anchor="start" x="186" y="-1135.1" font-family="Helvetica Neue" font-weight="bold" font-size="8.00" fill="white">DESIGN</text>
</g>
<!-- c_p -->
<g id="node30" class="node">
<title>c_p</title>
<ellipse fill="#7bc67e" stroke="black" stroke-width="1.5" cx="523" cy="-1113" rx="36" ry="18"/>
<text text-anchor="start" x="510.5" y="-1112.1" font-family="Helvetica Neue" font-weight="bold" font-size="8.00" fill="white">PLAN</text>
</g>
<!-- c_d&#45;&gt;c_p -->
<g id="edge27" class="edge">
<title>c_d&#45;&gt;c_p</title>
<path fill="none" stroke="#333333" stroke-width="2" d="M239.39,-1133.47C297.22,-1129.28 412.9,-1120.9 476.87,-1116.27"/>
<polygon fill="#333333" stroke="#333333" stroke-width="2" points="477.34,-1119.74 487.06,-1115.53 476.83,-1112.76 477.34,-1119.74"/>
</g>
<!-- c_i -->
<g id="node31" class="node">
<title>c_i</title>
<ellipse fill="#50e3c2" stroke="black" stroke-width="1.5" cx="729.5" cy="-1113" rx="39.91" ry="18"/>
<text text-anchor="start" x="702.5" y="-1112.1" font-family="Helvetica Neue" font-weight="bold" font-size="8.00" fill="white">IMPLEMENT</text>
</g>
<!-- c_p&#45;&gt;c_i -->
<g id="edge28" class="edge">
<title>c_p&#45;&gt;c_i</title>
<path fill="none" stroke="#333333" stroke-width="2" d="M559.15,-1113C592.35,-1113 642.43,-1113 679.53,-1113"/>
<polygon fill="#333333" stroke="#333333" stroke-width="2" points="679.63,-1116.5 689.63,-1113 679.63,-1109.5 679.63,-1116.5"/>
</g>
<!-- c_r -->
<g id="node32" class="node">
<title>c_r</title>
<ellipse fill="#f5a623" stroke="black" stroke-width="1.5" cx="900" cy="-1132" rx="36" ry="18"/>
<text text-anchor="start" x="882.5" y="-1131.1" font-family="Helvetica Neue" font-weight="bold" font-size="8.00" fill="white">REVIEW</text>
</g>
<!-- c_i&#45;&gt;c_r -->
<g id="edge29" class="edge">
<title>c_i&#45;&gt;c_r</title>
<path fill="none" stroke="#333333" stroke-width="2" d="M768.31,-1117.26C793.84,-1120.14 827.64,-1123.95 854.47,-1126.98"/>
<polygon fill="#333333" stroke="#333333" stroke-width="2" points="854.42,-1130.5 864.75,-1128.14 855.2,-1123.54 854.42,-1130.5"/>
</g>
<!-- c_r&#45;&gt;c_d -->
<g id="edge30" class="edge">
<title>c_r&#45;&gt;c_d</title>
<path fill="none" stroke="#333333" stroke-width="2" d="M866.08,-1138.03C842.48,-1142.04 809.9,-1146.93 781,-1149 583.01,-1163.19 345.89,-1147.6 249.02,-1139.85"/>
<polygon fill="#333333" stroke="#333333" stroke-width="2" points="249.25,-1136.36 238.99,-1139.03 248.68,-1143.33 249.25,-1136.36"/>
<text text-anchor="start" x="605.5" y="-1163.2" font-family="Helvetica Neue" font-size="6.00"> gaps feed</text>
<text text-anchor="start" x="605" y="-1156.2" font-family="Helvetica Neue" font-size="6.00"> next cycle</text>
</g>
<!-- summary -->
<g id="node33" class="node">
<title>summary</title>
<polygon fill="#333333" stroke="transparent" points="155.5,-1315 155.5,-1335 252.5,-1335 252.5,-1315 155.5,-1315"/>
<polygon fill="none" stroke="black" points="155.5,-1315 155.5,-1335 252.5,-1335 252.5,-1315 155.5,-1315"/>
<text text-anchor="start" x="160.5" y="-1323.8" font-family="Helvetica Neue" font-weight="bold" font-size="9.00" fill="white">Document Count</text>
<polygon fill="#4a90d9" stroke="transparent" points="155.5,-1296 155.5,-1315 213.5,-1315 213.5,-1296 155.5,-1296"/>
<polygon fill="none" stroke="black" points="155.5,-1296 155.5,-1315 213.5,-1315 213.5,-1296 155.5,-1296"/>
<text text-anchor="start" x="170" y="-1303.6" font-family="Helvetica Neue" font-size="8.00" fill="white">Design</text>
<polygon fill="#ebf5fb" stroke="transparent" points="213.5,-1296 213.5,-1315 252.5,-1315 252.5,-1296 213.5,-1296"/>
<polygon fill="none" stroke="black" points="213.5,-1296 213.5,-1315 252.5,-1315 252.5,-1296 213.5,-1296"/>
<text text-anchor="start" x="228" y="-1303.6" font-family="Helvetica Neue" font-size="8.00"> 7 </text>
<polygon fill="#7bc67e" stroke="transparent" points="155.5,-1277 155.5,-1296 213.5,-1296 213.5,-1277 155.5,-1277"/>
<polygon fill="none" stroke="black" points="155.5,-1277 155.5,-1296 213.5,-1296 213.5,-1277 155.5,-1277"/>
<text text-anchor="start" x="175.5" y="-1284.6" font-family="Helvetica Neue" font-size="8.00" fill="white">Plan</text>
<polygon fill="#f0fff0" stroke="transparent" points="213.5,-1277 213.5,-1296 252.5,-1296 252.5,-1277 213.5,-1277"/>
<polygon fill="none" stroke="black" points="213.5,-1277 213.5,-1296 252.5,-1296 252.5,-1277 213.5,-1277"/>
<text text-anchor="start" x="228" y="-1284.6" font-family="Helvetica Neue" font-size="8.00"> 8 </text>
<polygon fill="#f5a623" stroke="transparent" points="155.5,-1258 155.5,-1277 213.5,-1277 213.5,-1258 155.5,-1258"/>
<polygon fill="none" stroke="black" points="155.5,-1258 155.5,-1277 213.5,-1277 213.5,-1258 155.5,-1258"/>
<text text-anchor="start" x="169.5" y="-1265.6" font-family="Helvetica Neue" font-size="8.00" fill="white">Review</text>
<polygon fill="#fff8e1" stroke="transparent" points="213.5,-1258 213.5,-1277 252.5,-1277 252.5,-1258 213.5,-1258"/>
<polygon fill="none" stroke="black" points="213.5,-1258 213.5,-1277 252.5,-1277 252.5,-1258 213.5,-1258"/>
<text text-anchor="start" x="228" y="-1265.6" font-family="Helvetica Neue" font-size="8.00"> 2 </text>
<polygon fill="#d0021b" stroke="transparent" points="155.5,-1239 155.5,-1258 213.5,-1258 213.5,-1239 155.5,-1239"/>
<polygon fill="none" stroke="black" points="155.5,-1239 155.5,-1258 213.5,-1258 213.5,-1239 155.5,-1239"/>
<text text-anchor="start" x="176" y="-1246.6" font-family="Helvetica Neue" font-size="8.00" fill="white">Gap</text>
<polygon fill="#feecec" stroke="transparent" points="213.5,-1239 213.5,-1258 252.5,-1258 252.5,-1239 213.5,-1239"/>
<polygon fill="none" stroke="black" points="213.5,-1239 213.5,-1258 252.5,-1258 252.5,-1239 213.5,-1239"/>
<text text-anchor="start" x="228" y="-1246.6" font-family="Helvetica Neue" font-size="8.00"> 2 </text>
<polygon fill="#bd10e0" stroke="transparent" points="155.5,-1220 155.5,-1239 213.5,-1239 213.5,-1220 155.5,-1220"/>
<polygon fill="none" stroke="black" points="155.5,-1220 155.5,-1239 213.5,-1239 213.5,-1220 155.5,-1220"/>
<text text-anchor="start" x="171" y="-1227.6" font-family="Helvetica Neue" font-size="8.00" fill="white">Status</text>
<polygon fill="#f5eef8" stroke="transparent" points="213.5,-1220 213.5,-1239 252.5,-1239 252.5,-1220 213.5,-1220"/>
<polygon fill="none" stroke="black" points="213.5,-1220 213.5,-1239 252.5,-1239 252.5,-1220 213.5,-1220"/>
<text text-anchor="start" x="228" y="-1227.6" font-family="Helvetica Neue" font-size="8.00"> 1 </text>
</g>
</g>
</svg>
