<?xml version="1.0" encoding="UTF-8" standalone="no"?>
<!DOCTYPE svg PUBLIC "-//W3C//DTD SVG 1.1//EN"
 "http://www.w3.org/Graphics/SVG/1.1/DTD/svg11.dtd">
<!-- Generated by graphviz version 2.43.0 (0)
 -->
<!-- Title: slide04 Pages: 1 -->
<svg width="555pt" height="324pt"
 viewBox="0.00 0.00 555.07 324.00" xmlns="http://www.w3.org/2000/svg" xmlns:xlink="http://www.w3.org/1999/xlink">
<g id="graph0" class="graph" transform="scale(0.78 0.78) rotate(0) translate(21.6 400.13)">
<title>slide04</title>
<polygon fill="white" stroke="transparent" points="-21.6,14.4 -21.6,-400.13 688.57,-400.13 688.57,14.4 -21.6,14.4"/>
<!-- backref -->
<g id="node1" class="node">
<title>backref</title>
<path fill="#fff3e0" stroke="#e65100" stroke-width="1.5" d="M183.45,-319.4C183.45,-319.4 183.45,-324.37 183.45,-324.37 183.45,-326.85 181.01,-329.82 178.57,-330.3 178.57,-330.3 134.74,-338.92 134.74,-338.92 132.3,-339.4 127.38,-339.88 124.89,-339.88 124.89,-339.88 59.06,-339.88 59.06,-339.88 56.57,-339.88 51.65,-339.4 49.21,-338.92 49.21,-338.92 5.38,-330.3 5.38,-330.3 2.94,-329.82 0.5,-326.85 0.5,-324.37 0.5,-324.37 0.5,-319.4 0.5,-319.4 0.5,-316.91 2.94,-313.95 5.38,-313.47 5.38,-313.47 49.21,-304.84 49.21,-304.84 51.65,-304.36 56.57,-303.88 59.06,-303.88 59.06,-303.88 124.89,-303.88 124.89,-303.88 127.38,-303.88 132.3,-304.36 134.74,-304.84 134.74,-304.84 178.57,-313.47 178.57,-313.47 181.01,-313.95 183.45,-316.91 183.45,-319.4"/>
<text text-anchor="start" x="43.97" y="-324.48" font-family="Helvetica Neue" font-weight="bold" font-size="8.00" fill="#bf360c">← Observable Design</text>
<text text-anchor="start" x="36.97" y="-316.48" font-family="Helvetica Neue" font-size="8.00" fill="#bf360c">Mar 12 · extends + evolves</text>
</g>
<!-- curr -->
<g id="node3" class="node">
<title>curr</title>
<path fill="#4a90d9" stroke="#2a70b9" stroke-width="3" d="M502.97,-249.38C502.97,-249.38 252.97,-249.38 252.97,-249.38 246.97,-249.38 240.97,-243.38 240.97,-237.38 240.97,-237.38 240.97,-156.38 240.97,-156.38 240.97,-150.38 246.97,-144.38 252.97,-144.38 252.97,-144.38 502.97,-144.38 502.97,-144.38 508.97,-144.38 514.97,-150.38 514.97,-156.38 514.97,-156.38 514.97,-237.38 514.97,-237.38 514.97,-243.38 508.97,-249.38 502.97,-249.38"/>
<text text-anchor="start" x="284.47" y="-236.78" font-family="Helvetica Neue" font-weight="bold" font-size="12.00" fill="white">Temporal + AVO Extensions</text>
<text text-anchor="start" x="272.97" y="-227.18" font-family="Helvetica Neue" font-size="9.00" fill="#333333">March 15&#45;16 · DESIGN + PLAN (4 documents)</text>
<text text-anchor="start" x="307.97" y="-208.98" font-family="Helvetica Neue" font-weight="bold" font-size="8.00" fill="white">Temporal Design+Plan</text>
<text text-anchor="start" x="410.97" y="-208.98" font-family="Helvetica Neue" font-size="8.00" fill="white"> (Mar 15)</text>
<text text-anchor="start" x="311.47" y="-200.98" font-family="Helvetica Neue" font-size="8.00" fill="white">13 temporal operators in 3 tiers:</text>
<text text-anchor="start" x="306.97" y="-192.98" font-family="Helvetica Neue" font-size="8.00" fill="white">debounce, throttle, delay, timeout,</text>
<text text-anchor="start" x="304.47" y="-184.98" font-family="Helvetica Neue" font-size="8.00" fill="white">buffer&#45;time, audit&#45;time, retry&#45;delay...</text>
<text text-anchor="start" x="318.97" y="-166.98" font-family="Helvetica Neue" font-weight="bold" font-size="8.00" fill="white">AVO Design+Plan</text>
<text text-anchor="start" x="399.97" y="-166.98" font-family="Helvetica Neue" font-size="8.00" fill="white"> (Mar 16)</text>
<text text-anchor="start" x="288.47" y="-158.98" font-family="Helvetica Neue" font-size="8.00" fill="white">Vision: unify ALL I/O as Observable streams.</text>
<text text-anchor="start" x="284.97" y="-150.98" font-family="Helvetica Neue" font-size="8.00" fill="white">4 phases: buffer → file → HTTP → remove sync</text>
</g>
<!-- backref&#45;&gt;curr -->
<g id="edge1" class="edge">
<title>backref&#45;&gt;curr</title>
<path fill="none" stroke="#e65100" stroke-width="1.5" stroke-dasharray="5,2" d="M132.76,-304.37C163.06,-291.04 206.55,-271.89 248.47,-253.44"/>
<polygon fill="#e65100" stroke="#e65100" stroke-width="1.5" points="257.66,-249.4 250.32,-257.54 253.19,-251.64 248.61,-253.65 248.51,-253.42 248.41,-253.2 252.98,-251.18 246.7,-249.31 257.66,-249.4 257.66,-249.4"/>
</g>
<!-- prev -->
<g id="node2" class="node">
<title>prev</title>
<path fill="#b8d4ee" stroke="black" stroke-dasharray="5,2" d="M130.97,-98.38C130.97,-98.38 52.97,-98.38 52.97,-98.38 46.97,-98.38 40.97,-92.38 40.97,-86.38 40.97,-86.38 40.97,-67.38 40.97,-67.38 40.97,-61.38 46.97,-55.38 52.97,-55.38 52.97,-55.38 130.97,-55.38 130.97,-55.38 136.97,-55.38 142.97,-61.38 142.97,-67.38 142.97,-67.38 142.97,-86.38 142.97,-86.38 142.97,-92.38 136.97,-98.38 130.97,-98.38"/>
<text text-anchor="start" x="48.97" y="-79.48" font-family="Helvetica Neue" font-weight="bold" font-size="8.00" fill="#888888">Observable Design</text>
<text text-anchor="start" x="77.97" y="-71.48" font-family="Helvetica Neue" font-size="8.00" fill="#888888">Mar 12</text>
</g>
<!-- prev&#45;&gt;curr -->
<g id="edge2" class="edge">
<title>prev&#45;&gt;curr</title>
<path fill="none" stroke="#bbbbbb" stroke-width="1.5" stroke-dasharray="1,5" d="M143.09,-98.06C171.09,-109.89 207.43,-125.24 243.09,-140.31"/>
<polygon fill="#bbbbbb" stroke="#bbbbbb" stroke-width="1.5" points="252.62,-144.34 241.66,-144.59 247.92,-142.62 243.31,-140.68 243.41,-140.45 243.51,-140.21 248.11,-142.16 245.16,-136.3 252.62,-144.34 252.62,-144.34"/>
</g>
<!-- next -->
<g id="node4" class="node">
<title>next</title>
<path fill="#cccccc" stroke="black" stroke-dasharray="5,2" d="M654.97,-218.38C654.97,-218.38 584.97,-218.38 584.97,-218.38 578.97,-218.38 572.97,-212.38 572.97,-206.38 572.97,-206.38 572.97,-187.38 572.97,-187.38 572.97,-181.38 578.97,-175.38 584.97,-175.38 584.97,-175.38 654.97,-175.38 654.97,-175.38 660.97,-175.38 666.97,-181.38 666.97,-187.38 666.97,-187.38 666.97,-206.38 666.97,-206.38 666.97,-212.38 660.97,-218.38 654.97,-218.38"/>
<text text-anchor="start" x="597.47" y="-199.48" font-family="Helvetica Neue" font-weight="bold" font-size="8.00" fill="#888888">Build Ops</text>
<text text-anchor="start" x="605.97" y="-191.48" font-family="Helvetica Neue" font-size="8.00" fill="#888888">Mar 16</text>
</g>
<!-- curr&#45;&gt;next -->
<g id="edge3" class="edge">
<title>curr&#45;&gt;next</title>
<path fill="none" stroke="#bbbbbb" stroke-width="1.5" stroke-dasharray="1,5" d="M515.1,-196.88C531.79,-196.88 548.05,-196.88 562.57,-196.88"/>
<polygon fill="#bbbbbb" stroke="#bbbbbb" stroke-width="1.5" points="572.81,-196.88 562.81,-201.38 567.81,-197.13 562.81,-197.13 562.81,-196.88 562.81,-196.63 567.81,-196.63 562.81,-192.38 572.81,-196.88 572.81,-196.88"/>
</g>
</g>
</svg>
