<?xml version="1.0" encoding="UTF-8" standalone="no"?>
<!DOCTYPE svg PUBLIC "-//W3C//DTD SVG 1.1//EN"
 "http://www.w3.org/Graphics/SVG/1.1/DTD/svg11.dtd">
<!-- Generated by graphviz version 2.43.0 (0)
 -->
<!-- Title: slide01 Pages: 1 -->
<svg width="552pt" height="324pt"
 viewBox="0.00 0.00 551.88 324.00" xmlns="http://www.w3.org/2000/svg" xmlns:xlink="http://www.w3.org/1999/xlink">
<g id="graph0" class="graph" transform="scale(0.83 0.83) rotate(0) translate(21.6 376.72)">
<title>slide01</title>
<polygon fill="white" stroke="transparent" points="-21.6,14.4 -21.6,-376.72 644.6,-376.72 644.6,14.4 -21.6,14.4"/>
<!-- prev -->
<g id="node1" class="node">
<title>prev</title>
<ellipse fill="#e8e8e8" stroke="black" stroke-dasharray="5,2" cx="47" cy="-181.16" rx="47" ry="21.5"/>
<text text-anchor="start" x="31" y="-183.96" font-family="Helvetica Neue" font-weight="bold" font-size="9.00" fill="#aaaaaa">START</text>
<text text-anchor="start" x="29" y="-174.96" font-family="Helvetica Neue" font-size="9.00" fill="#aaaaaa">v0.8.15</text>
</g>
<!-- curr -->
<g id="node2" class="node">
<title>curr</title>
<path fill="#4a90d9" stroke="#2a70b9" stroke-width="3" d="M417,-238.66C417,-238.66 167,-238.66 167,-238.66 161,-238.66 155,-232.66 155,-226.66 155,-226.66 155,-135.66 155,-135.66 155,-129.66 161,-123.66 167,-123.66 167,-123.66 417,-123.66 417,-123.66 423,-123.66 429,-129.66 429,-135.66 429,-135.66 429,-226.66 429,-226.66 429,-232.66 423,-238.66 417,-238.66"/>
<text text-anchor="start" x="222.5" y="-226.06" font-family="Helvetica Neue" font-weight="bold" font-size="12.00" fill="white">MLP Design Analysis</text>
<text text-anchor="start" x="226" y="-216.46" font-family="Helvetica Neue" font-size="9.00" fill="#dddddd">March 10 · v0.8.15 · DESIGN</text>
<text text-anchor="start" x="188.5" y="-198.26" font-family="Helvetica Neue" font-size="8.00" fill="white">Analyzed ETIL matrix subsystem for MLP feasibility.</text>
<text text-anchor="start" x="203" y="-190.26" font-family="Helvetica Neue" font-size="8.00" fill="white">Found </text>
<text text-anchor="start" x="231" y="-190.26" font-family="Helvetica Neue" font-weight="bold" font-size="8.00" fill="white">8 critical gaps</text>
<text text-anchor="start" x="295" y="-190.26" font-family="Helvetica Neue" font-size="8.00" fill="white"> across 4 categories:</text>
<text text-anchor="start" x="190.5" y="-172.26" font-family="Helvetica Neue" font-size="8.00" fill="#dddddd">• Element&#45;wise ops (mat&#45;hadamard, mat&#45;add&#45;col)</text>
<text text-anchor="start" x="177.5" y="-164.26" font-family="Helvetica Neue" font-size="8.00" fill="#dddddd">• Activation functions (relu, sigmoid, tanh + derivatives)</text>
<text text-anchor="start" x="200" y="-156.26" font-family="Helvetica Neue" font-size="8.00" fill="#dddddd">• Weight initialization (mat&#45;randn, xavier, he)</text>
<text text-anchor="start" x="197" y="-148.26" font-family="Helvetica Neue" font-size="8.00" fill="#dddddd">• Loss functions (MSE, softmax, cross&#45;entropy)</text>
<text text-anchor="start" x="213.5" y="-130.26" font-family="Helvetica Neue" font-size="8.00" fill="white">Recommended deferring in&#45;place ops.</text>
</g>
<!-- prev&#45;&gt;curr -->
<g id="edge1" class="edge">
<title>prev&#45;&gt;curr</title>
<path fill="none" stroke="#bbbbbb" stroke-width="1.5" stroke-dasharray="1,5" d="M94.28,-181.16C109.15,-181.16 126.5,-181.16 144.62,-181.16"/>
<polygon fill="#bbbbbb" stroke="#bbbbbb" stroke-width="1.5" points="154.76,-181.16 144.76,-185.66 149.76,-181.41 144.76,-181.41 144.76,-181.16 144.76,-180.91 149.76,-180.91 144.76,-176.66 154.76,-181.16 154.76,-181.16"/>
<text text-anchor="start" x="122.5" y="-183.56" font-family="Helvetica Neue" font-size="7.00" fill="#999999"> </text>
</g>
<!-- next -->
<g id="node3" class="node">
<title>next</title>
<path fill="#c4e2c6" stroke="black" stroke-dasharray="5,2" d="M611,-202.66C611,-202.66 527,-202.66 527,-202.66 521,-202.66 515,-196.66 515,-190.66 515,-190.66 515,-171.66 515,-171.66 515,-165.66 521,-159.66 527,-159.66 527,-159.66 611,-159.66 611,-159.66 617,-159.66 623,-165.66 623,-171.66 623,-171.66 623,-190.66 623,-190.66 623,-196.66 617,-202.66 611,-202.66"/>
<text text-anchor="start" x="523" y="-183.76" font-family="Helvetica Neue" font-weight="bold" font-size="8.00" fill="#888888">MLP Primitives Plan</text>
<text text-anchor="start" x="555" y="-175.76" font-family="Helvetica Neue" font-size="8.00" fill="#888888">Mar 10</text>
</g>
<!-- curr&#45;&gt;next -->
<g id="edge2" class="edge">
<title>curr&#45;&gt;next</title>
<path fill="none" stroke="#bbbbbb" stroke-width="1.5" stroke-dasharray="1,5" d="M429.29,-181.16C455.64,-181.16 482.06,-181.16 504.65,-181.16"/>
<polygon fill="#bbbbbb" stroke="#bbbbbb" stroke-width="1.5" points="514.76,-181.16 504.76,-185.66 509.76,-181.41 504.76,-181.41 504.76,-181.16 504.76,-180.91 509.76,-180.91 504.76,-176.66 514.76,-181.16 514.76,-181.16"/>
<text text-anchor="start" x="458" y="-183.56" font-family="Helvetica Neue" font-size="7.00" fill="#999999">informs</text>
</g>
</g>
</svg>
