<?xml version="1.0" encoding="UTF-8" standalone="no"?>
<!DOCTYPE svg PUBLIC "-//W3C//DTD SVG 1.1//EN"
 "http://www.w3.org/Graphics/SVG/1.1/DTD/svg11.dtd">
<!-- Generated by graphviz version 2.43.0 (0)
 -->
<!-- Title: slide02 Pages: 1 -->
<svg width="556pt" height="324pt"
 viewBox="0.00 0.00 556.50 324.00" xmlns="http://www.w3.org/2000/svg" xmlns:xlink="http://www.w3.org/1999/xlink">
<g id="graph0" class="graph" transform="scale(0.81 0.81) rotate(0) translate(21.6 383.37)">
<title>slide02</title>
<polygon fill="white" stroke="transparent" points="-21.6,14.4 -21.6,-383.37 661.6,-383.37 661.6,14.4 -21.6,14.4"/>
<!-- prev -->
<g id="node1" class="node">
<title>prev</title>
<path fill="#b8d4ee" stroke="black" stroke-dasharray="5,2" d="M98.5,-205.98C98.5,-205.98 11.5,-205.98 11.5,-205.98 5.5,-205.98 -0.5,-199.98 -0.5,-193.98 -0.5,-193.98 -0.5,-174.98 -0.5,-174.98 -0.5,-168.98 5.5,-162.98 11.5,-162.98 11.5,-162.98 98.5,-162.98 98.5,-162.98 104.5,-162.98 110.5,-168.98 110.5,-174.98 110.5,-174.98 110.5,-193.98 110.5,-193.98 110.5,-199.98 104.5,-205.98 98.5,-205.98"/>
<text text-anchor="start" x="7.5" y="-187.08" font-family="Helvetica Neue" font-weight="bold" font-size="8.00" fill="#888888">MLP Design Analysis</text>
<text text-anchor="start" x="41" y="-179.08" font-family="Helvetica Neue" font-size="8.00" fill="#888888">Mar 10</text>
</g>
<!-- curr -->
<g id="node2" class="node">
<title>curr</title>
<path fill="#7bc67e" stroke="#5ba65e" stroke-width="3" d="M432,-254.98C432,-254.98 182,-254.98 182,-254.98 176,-254.98 170,-248.98 170,-242.98 170,-242.98 170,-125.98 170,-125.98 170,-119.98 176,-113.98 182,-113.98 182,-113.98 432,-113.98 432,-113.98 438,-113.98 444,-119.98 444,-125.98 444,-125.98 444,-242.98 444,-242.98 444,-248.98 438,-254.98 432,-254.98"/>
<text text-anchor="start" x="239" y="-242.38" font-family="Helvetica Neue" font-weight="bold" font-size="12.00" fill="white">MLP Primitives Plan</text>
<text text-anchor="start" x="225.5" y="-232.78" font-family="Helvetica Neue" font-size="9.00" fill="#333333">March 10 · v0.8.18→v0.8.21 · PLAN</text>
<text text-anchor="start" x="218" y="-214.58" font-family="Helvetica Neue" font-size="8.00" fill="white">Broke 17 new C++ primitives into 3 stages:</text>
<text text-anchor="start" x="224.5" y="-196.58" font-family="Helvetica Neue" font-weight="bold" font-size="8.00" fill="white">Stage 1 — Forward Pass</text>
<text text-anchor="start" x="333.5" y="-196.58" font-family="Helvetica Neue" font-size="8.00" fill="white"> (6 primitives)</text>
<text text-anchor="start" x="239.5" y="-188.58" font-family="Helvetica Neue" font-size="8.00" fill="white">mat&#45;relu, mat&#45;sigmoid, mat&#45;tanh,</text>
<text text-anchor="start" x="225.5" y="-180.58" font-family="Helvetica Neue" font-size="8.00" fill="white">mat&#45;hadamard, mat&#45;add&#45;col, mat&#45;randn</text>
<text text-anchor="start" x="216" y="-162.58" font-family="Helvetica Neue" font-weight="bold" font-size="8.00" fill="white">Stage 2 — Backpropagation</text>
<text text-anchor="start" x="342" y="-162.58" font-family="Helvetica Neue" font-size="8.00" fill="white"> (7 primitives)</text>
<text text-anchor="start" x="236" y="-154.58" font-family="Helvetica Neue" font-size="8.00" fill="white">mat&#45;relu&#39;, mat&#45;sigmoid&#39;, mat&#45;tanh&#39;,</text>
<text text-anchor="start" x="219" y="-146.58" font-family="Helvetica Neue" font-size="8.00" fill="white">mat&#45;sum, mat&#45;col&#45;sum, mat&#45;mean, mat&#45;clip</text>
<text text-anchor="start" x="224.5" y="-128.58" font-family="Helvetica Neue" font-weight="bold" font-size="8.00" fill="white">Stage 3 — Classification</text>
<text text-anchor="start" x="333.5" y="-128.58" font-family="Helvetica Neue" font-size="8.00" fill="white"> (4 primitives)</text>
<text text-anchor="start" x="206.5" y="-120.58" font-family="Helvetica Neue" font-size="8.00" fill="white">mat&#45;softmax, mat&#45;cross&#45;entropy, mat&#45;apply, tanh</text>
</g>
<!-- prev&#45;&gt;curr -->
<g id="edge1" class="edge">
<title>prev&#45;&gt;curr</title>
<path fill="none" stroke="#bbbbbb" stroke-width="1.5" stroke-dasharray="1,5" d="M110.55,-184.48C125.39,-184.48 142.18,-184.48 159.55,-184.48"/>
<polygon fill="#bbbbbb" stroke="#bbbbbb" stroke-width="1.5" points="169.83,-184.48 159.83,-188.98 164.83,-184.73 159.83,-184.73 159.83,-184.48 159.83,-184.23 164.83,-184.23 159.83,-179.98 169.83,-184.48 169.83,-184.48"/>
</g>
<!-- next -->
<g id="node3" class="node">
<title>next</title>
<path fill="#b8d4ee" stroke="black" stroke-dasharray="5,2" d="M628,-205.98C628,-205.98 550,-205.98 550,-205.98 544,-205.98 538,-199.98 538,-193.98 538,-193.98 538,-174.98 538,-174.98 538,-168.98 544,-162.98 550,-162.98 550,-162.98 628,-162.98 628,-162.98 634,-162.98 640,-168.98 640,-174.98 640,-174.98 640,-193.98 640,-193.98 640,-199.98 634,-205.98 628,-205.98"/>
<text text-anchor="start" x="546" y="-187.08" font-family="Helvetica Neue" font-weight="bold" font-size="8.00" fill="#888888">Observable Design</text>
<text text-anchor="start" x="575" y="-179.08" font-family="Helvetica Neue" font-size="8.00" fill="#888888">Mar 12</text>
</g>
<!-- curr&#45;&gt;next -->
<g id="edge2" class="edge">
<title>curr&#45;&gt;next</title>
<path fill="none" stroke="#bbbbbb" stroke-width="1.5" stroke-dasharray="1,5" d="M444.31,-184.48C473.52,-184.48 502.94,-184.48 527.48,-184.48"/>
<polygon fill="#bbbbbb" stroke="#bbbbbb" stroke-width="1.5" points="537.69,-184.48 527.69,-188.98 532.69,-184.73 527.69,-184.73 527.69,-184.48 527.69,-184.23 532.69,-184.23 527.69,-179.98 537.69,-184.48 537.69,-184.48"/>
<text text-anchor="start" x="473" y="-186.88" font-family="Helvetica Neue" font-size="7.00" fill="#999999">new track</text>
</g>
</g>
</svg>
