<?xml version="1.0" encoding="UTF-8" standalone="no"?>
<!DOCTYPE svg PUBLIC "-//W3C//DTD SVG 1.1//EN"
 "http://www.w3.org/Graphics/SVG/1.1/DTD/svg11.dtd">
<!-- Generated by graphviz version 2.43.0 (0)
 -->
<!-- Title: slide12 Pages: 1 -->
<svg width="556pt" height="324pt"
 viewBox="0.00 0.00 555.72 324.00" xmlns="http://www.w3.org/2000/svg" xmlns:xlink="http://www.w3.org/1999/xlink">
<g id="graph0" class="graph" transform="scale(0.75 0.75) rotate(0) translate(21.6 419.13)">
<title>slide12</title>
<polygon fill="white" stroke="transparent" points="-21.6,14.4 -21.6,-419.13 721.98,-419.13 721.98,14.4 -21.6,14.4"/>
<!-- backref1 -->
<g id="node1" class="node">
<title>backref1</title>
<path fill="#fff3e0" stroke="#e65100" stroke-width="1.5" d="M216.75,-360.34C216.75,-360.34 216.75,-365.31 216.75,-365.31 216.75,-367.79 214.3,-370.68 211.85,-371.09 211.85,-371.09 158.17,-380.01 158.17,-380.01 155.72,-380.41 150.78,-380.82 148.3,-380.82 148.3,-380.82 68.46,-380.82 68.46,-380.82 65.97,-380.82 61.03,-380.41 58.58,-380.01 58.58,-380.01 4.9,-371.09 4.9,-371.09 2.45,-370.68 -0,-367.79 -0,-365.31 -0,-365.31 -0,-360.34 -0,-360.34 -0,-357.85 2.45,-354.96 4.9,-354.55 4.9,-354.55 58.58,-345.63 58.58,-345.63 61.03,-345.23 65.97,-344.82 68.46,-344.82 68.46,-344.82 148.3,-344.82 148.3,-344.82 150.78,-344.82 155.72,-345.23 158.17,-345.63 158.17,-345.63 211.85,-354.55 211.85,-354.55 214.3,-354.96 216.75,-357.85 216.75,-360.34"/>
<text text-anchor="start" x="55.88" y="-365.42" font-family="Helvetica Neue" font-weight="bold" font-size="8.00" fill="#bf360c">← MLP Design Analysis</text>
<text text-anchor="start" x="41.88" y="-357.42" font-family="Helvetica Neue" font-size="8.00" fill="#bf360c">Mar 10 · compares v0.8.15 goals</text>
</g>
<!-- curr -->
<g id="node4" class="node">
<title>curr</title>
<path fill="#f5a623" stroke="#c68400" stroke-width="3" d="M536.38,-278.82C536.38,-278.82 286.38,-278.82 286.38,-278.82 280.38,-278.82 274.38,-272.82 274.38,-266.82 274.38,-266.82 274.38,-154.82 274.38,-154.82 274.38,-148.82 280.38,-142.82 286.38,-142.82 286.38,-142.82 536.38,-142.82 536.38,-142.82 542.38,-142.82 548.38,-148.82 548.38,-154.82 548.38,-154.82 548.38,-266.82 548.38,-266.82 548.38,-272.82 542.38,-278.82 536.38,-278.82"/>
<text text-anchor="start" x="331.38" y="-265.42" font-family="Helvetica Neue" font-weight="bold" font-size="13.00" fill="white">MLP Goal Assessment</text>
<text text-anchor="start" x="335.38" y="-255.62" font-family="Helvetica Neue" font-size="9.00" fill="#333333">March 20 · v1.6.0 · ASSESSMENT</text>
<text text-anchor="start" x="345.38" y="-237.42" font-family="Helvetica Neue" font-weight="bold" font-size="8.00" fill="white">7/8 design sections complete</text>
<text text-anchor="start" x="339.38" y="-229.42" font-family="Helvetica Neue" font-size="8.00" fill="white">1 deferred by design (in&#45;place ops)</text>
<text text-anchor="start" x="334.38" y="-211.42" font-family="Helvetica Neue" font-size="8.00" fill="#2e7d32">✓ 17 C++ primitives &#160;✓ TIL MLP library</text>
<text text-anchor="start" x="350.88" y="-203.42" font-family="Helvetica Neue" font-size="8.00" fill="#2e7d32">✓ 4&#45;strategy SelectionEngine</text>
<text text-anchor="start" x="349.88" y="-195.42" font-family="Helvetica Neue" font-size="8.00" fill="#2e7d32">✓ AST&#45;level evolution pipeline</text>
<text text-anchor="start" x="348.88" y="-187.42" font-family="Helvetica Neue" font-size="8.00" fill="#2e7d32">✓ Compile&#45;time type inference</text>
<text text-anchor="start" x="353.88" y="-179.42" font-family="Helvetica Neue" font-size="8.00" fill="#2e7d32">✓ 1362 tests, zero warnings</text>
<text text-anchor="start" x="349.88" y="-159.82" font-family="Helvetica Neue" font-style="italic" font-size="10.00" fill="white">&quot;The Evolutionary in ETIL</text>
<text text-anchor="start" x="348.38" y="-149.82" font-family="Helvetica Neue" font-style="italic" font-size="10.00" fill="white">is no longer aspirational.&quot;</text>
</g>
<!-- backref1&#45;&gt;curr -->
<g id="edge1" class="edge">
<title>backref1&#45;&gt;curr</title>
<path fill="none" stroke="#e65100" stroke-width="1.5" stroke-dasharray="5,2" d="M145.09,-344.79C175.53,-329.42 221.39,-306.26 266.46,-283.49"/>
<polygon fill="#e65100" stroke="#e65100" stroke-width="1.5" points="275.46,-278.95 268.57,-287.47 271.11,-281.43 266.65,-283.68 266.54,-283.46 266.42,-283.23 270.89,-280.98 264.51,-279.44 275.46,-278.95 275.46,-278.95"/>
</g>
<!-- backref2 -->
<g id="node2" class="node">
<title>backref2</title>
<path fill="#fff3e0" stroke="#e65100" stroke-width="1.5" d="M214.39,-208.34C214.39,-208.34 214.39,-213.31 214.39,-213.31 214.39,-215.79 211.94,-218.69 209.49,-219.11 209.49,-219.11 157.19,-227.99 157.19,-227.99 154.74,-228.4 149.8,-228.82 147.32,-228.82 147.32,-228.82 69.43,-228.82 69.43,-228.82 66.95,-228.82 62.01,-228.4 59.56,-227.99 59.56,-227.99 7.26,-219.11 7.26,-219.11 4.81,-218.69 2.36,-215.79 2.36,-213.31 2.36,-213.31 2.36,-208.34 2.36,-208.34 2.36,-205.85 4.81,-202.95 7.26,-202.53 7.26,-202.53 59.56,-193.65 59.56,-193.65 62.01,-193.24 66.95,-192.82 69.43,-192.82 69.43,-192.82 147.32,-192.82 147.32,-192.82 149.8,-192.82 154.74,-193.24 157.19,-193.65 157.19,-193.65 209.49,-202.53 209.49,-202.53 211.94,-202.95 214.39,-205.85 214.39,-208.34"/>
<text text-anchor="start" x="60.88" y="-213.42" font-family="Helvetica Neue" font-weight="bold" font-size="8.00" fill="#bf360c">← MLP Status Report</text>
<text text-anchor="start" x="43.38" y="-205.42" font-family="Helvetica Neue" font-size="8.00" fill="#bf360c">Mar 18 · compares v1.0.0 status</text>
</g>
<!-- backref2&#45;&gt;curr -->
<g id="edge2" class="edge">
<title>backref2&#45;&gt;curr</title>
<path fill="none" stroke="#e65100" stroke-width="1.5" stroke-dasharray="5,2" d="M214.65,-210.82C230.58,-210.82 247.27,-210.82 263.88,-210.82"/>
<polygon fill="#e65100" stroke="#e65100" stroke-width="1.5" points="274.21,-210.82 264.21,-215.32 269.21,-211.07 264.21,-211.07 264.21,-210.82 264.21,-210.57 269.21,-210.57 264.21,-206.32 274.21,-210.82 274.21,-210.82"/>
</g>
<!-- prev -->
<g id="node3" class="node">
<title>prev</title>
<path fill="#eba0a8" stroke="black" stroke-dasharray="5,2" d="M145.88,-71.32C145.88,-71.32 70.88,-71.32 70.88,-71.32 64.88,-71.32 58.88,-65.32 58.88,-59.32 58.88,-59.32 58.88,-40.32 58.88,-40.32 58.88,-34.32 64.88,-28.32 70.88,-28.32 70.88,-28.32 145.88,-28.32 145.88,-28.32 151.88,-28.32 157.88,-34.32 157.88,-40.32 157.88,-40.32 157.88,-59.32 157.88,-59.32 157.88,-65.32 151.88,-71.32 145.88,-71.32"/>
<text text-anchor="start" x="66.88" y="-52.42" font-family="Helvetica Neue" font-weight="bold" font-size="8.00" fill="#888888">Gap + Completion</text>
<text text-anchor="start" x="94.38" y="-44.42" font-family="Helvetica Neue" font-size="8.00" fill="#888888">Mar 20</text>
</g>
<!-- prev&#45;&gt;curr -->
<g id="edge3" class="edge">
<title>prev&#45;&gt;curr</title>
<path fill="none" stroke="#bbbbbb" stroke-width="1.5" stroke-dasharray="1,5" d="M149.66,-71.37C181.8,-88.56 228.78,-113.69 274.04,-137.9"/>
<polygon fill="#bbbbbb" stroke="#bbbbbb" stroke-width="1.5" points="283.06,-142.72 272.12,-141.97 278.54,-140.59 274.13,-138.23 274.25,-138.01 274.36,-137.79 278.77,-140.14 276.37,-134.04 283.06,-142.72 283.06,-142.72"/>
</g>
<!-- next -->
<g id="node5" class="node">
<title>next</title>
<ellipse fill="#e8e8e8" stroke="black" stroke-dasharray="5,2" cx="653.38" cy="-210.82" rx="47" ry="21.5"/>
<text text-anchor="start" x="642.38" y="-213.62" font-family="Helvetica Neue" font-weight="bold" font-size="9.00" fill="#aaaaaa">END</text>
<text text-anchor="start" x="638.38" y="-204.62" font-family="Helvetica Neue" font-size="9.00" fill="#aaaaaa">v1.6.0</text>
</g>
<!-- curr&#45;&gt;next -->
<g id="edge4" class="edge">
<title>curr&#45;&gt;next</title>
<path fill="none" stroke="#bbbbbb" stroke-width="1.5" stroke-dasharray="1,5" d="M548.5,-210.82C565.19,-210.82 581.45,-210.82 595.97,-210.82"/>
<polygon fill="#bbbbbb" stroke="#bbbbbb" stroke-width="1.5" points="606.21,-210.82 596.21,-215.32 601.21,-211.07 596.21,-211.07 596.21,-210.82 596.21,-210.57 601.21,-210.57 596.21,-206.32 606.21,-210.82 606.21,-210.82"/>
</g>
</g>
</svg>
