<?xml version="1.0" encoding="UTF-8" standalone="no"?>
<!DOCTYPE svg PUBLIC "-//W3C//DTD SVG 1.1//EN"
 "http://www.w3.org/Graphics/SVG/1.1/DTD/svg11.dtd">
<!-- Generated by graphviz version 2.43.0 (0)
 -->
<!-- Title: seq02 Pages: 1 -->
<svg width="562pt" height="394pt"
 viewBox="0.00 0.00 562.00 394.31" xmlns="http://www.w3.org/2000/svg" xmlns:xlink="http://www.w3.org/1999/xlink">
<g id="graph0" class="graph" transform="scale(0.81 0.81) rotate(0) translate(21.6 474.4)">
<title>seq02</title>
<polygon fill="white" stroke="transparent" points="-21.6,14.4 -21.6,-474.4 675.08,-474.4 675.08,14.4 -21.6,14.4"/>
<!-- title -->
<g id="node1" class="node">
<title>title</title>
<text text-anchor="start" x="56.29" y="-443.3" font-family="Helvetica Neue" font-weight="bold" font-size="14.00">2. Decompile: Bytecode → AST</text>
<text text-anchor="start" x="47.79" y="-433.3" font-family="Helvetica Neue" font-size="9.00" fill="#666666">Marker opcodes guide recursive descent reconstruction</text>
</g>
<!-- bytecode -->
<g id="node2" class="node">
<title>bytecode</title>
<path fill="#4a90d9" stroke="black" stroke-width="1.5" d="M277.29,-377.5C277.29,-377.5 71.29,-377.5 71.29,-377.5 65.29,-377.5 59.29,-371.5 59.29,-365.5 59.29,-365.5 59.29,-348.5 59.29,-348.5 59.29,-342.5 65.29,-336.5 71.29,-336.5 71.29,-336.5 277.29,-336.5 277.29,-336.5 283.29,-336.5 289.29,-342.5 289.29,-348.5 289.29,-348.5 289.29,-365.5 289.29,-365.5 289.29,-371.5 283.29,-377.5 277.29,-377.5"/>
<text text-anchor="start" x="131.29" y="-367.3" font-family="Helvetica Neue" font-weight="bold" font-size="9.00" fill="white">Parent ByteCode</text>
<text text-anchor="start" x="119.79" y="-359.1" font-family="Helvetica Neue" font-size="8.00" fill="#dddddd">Flat instruction vector with</text>
<text text-anchor="start" x="94.29" y="-351.1" font-family="Helvetica Neue" font-size="8.00" fill="#dddddd">BlockBegin / BlockEnd / BlockSeparator</text>
<text text-anchor="start" x="92.79" y="-343.1" font-family="Helvetica Neue" font-size="8.00" fill="#dddddd">marker opcodes embedded by compiler</text>
</g>
<!-- title&#45;&gt;bytecode -->
<!-- decompiler -->
<g id="node3" class="node">
<title>decompiler</title>
<path fill="#7bc67e" stroke="#5ba65e" stroke-width="3" d="M532.29,-282C532.29,-282 268.29,-282 268.29,-282 262.29,-282 256.29,-276 256.29,-270 256.29,-270 256.29,-162 256.29,-162 256.29,-156 262.29,-150 268.29,-150 268.29,-150 532.29,-150 532.29,-150 538.29,-150 544.29,-156 544.29,-162 544.29,-162 544.29,-270 544.29,-270 544.29,-276 538.29,-282 532.29,-282"/>
<text text-anchor="start" x="325.29" y="-271.8" font-family="Helvetica Neue" font-weight="bold" font-size="9.00" fill="white">Decompiler::decompile(code)</text>
<text text-anchor="start" x="368.79" y="-263.6" font-family="Helvetica Neue" font-size="8.00" fill="#333333">decompiler.cpp</text>
<text text-anchor="start" x="326.29" y="-246.6" font-family="Helvetica Neue" font-size="8.00" fill="white">Walk instruction stream left&#45;to&#45;right:</text>
<text text-anchor="start" x="331.79" y="-229.6" font-family="Helvetica Neue" font-weight="bold" font-size="8.00" fill="white">BlockBegin(kind)</text>
<text text-anchor="start" x="410.79" y="-229.6" font-family="Helvetica Neue" font-size="8.00" fill="white"> encountered:</text>
<text text-anchor="start" x="309.79" y="-222.4" font-family="Helvetica Neue" font-size="7.00" fill="white"> &#160;→ find_matching_block_end() via depth counting</text>
<text text-anchor="start" x="333.29" y="-215.4" font-family="Helvetica Neue" font-size="7.00" fill="white"> &#160;→ decompile_block(kind, start, end)</text>
<text text-anchor="start" x="323.29" y="-208.4" font-family="Helvetica Neue" font-size="7.00" fill="white"> &#160;→ recursively decompile interior children</text>
<text text-anchor="start" x="360.29" y="-191.6" font-family="Helvetica Neue" font-weight="bold" font-size="8.00" fill="white">Leaf instructions:</text>
<text text-anchor="start" x="328.79" y="-184.4" font-family="Helvetica Neue" font-size="7.00" fill="white"> &#160;PushInt → ASTNode::make_literal_int()</text>
<text text-anchor="start" x="321.29" y="-177.4" font-family="Helvetica Neue" font-size="7.00" fill="white"> &#160;PushFloat → ASTNode::make_literal_float()</text>
<text text-anchor="start" x="324.79" y="-170.4" font-family="Helvetica Neue" font-size="7.00" fill="white"> &#160;Call → ASTNode::make_word_call(name)</text>
<text text-anchor="start" x="345.79" y="-163.4" font-family="Helvetica Neue" font-size="7.00" fill="white"> &#160;DoI → ASTNode::make_do_i()</text>
<text text-anchor="start" x="351.79" y="-156.4" font-family="Helvetica Neue" font-size="7.00" fill="white"> &#160;etc. (21 node kinds total)</text>
</g>
<!-- bytecode&#45;&gt;decompiler -->
<g id="edge2" class="edge">
<title>bytecode&#45;&gt;decompiler</title>
<path fill="none" stroke="#333333" stroke-width="2" d="M206.19,-336.38C227.34,-323.37 256.5,-305.43 285.8,-287.41"/>
<polygon fill="#333333" stroke="#333333" stroke-width="2" points="287.79,-290.3 294.47,-282.08 284.12,-284.34 287.79,-290.3"/>
<text text-anchor="middle" x="283.79" y="-307.1" font-family="Helvetica Neue" font-size="8.00"> &#160;instructions[]</text>
</g>
<!-- ast -->
<g id="node4" class="node">
<title>ast</title>
<path fill="#f5a623" stroke="black" stroke-width="1.5" d="M514.29,-96.5C514.29,-96.5 286.29,-96.5 286.29,-96.5 280.29,-96.5 274.29,-90.5 274.29,-84.5 274.29,-84.5 274.29,-11.5 274.29,-11.5 274.29,-5.5 280.29,0.5 286.29,0.5 286.29,0.5 514.29,0.5 514.29,0.5 520.29,0.5 526.29,-5.5 526.29,-11.5 526.29,-11.5 526.29,-84.5 526.29,-84.5 526.29,-90.5 520.29,-96.5 514.29,-96.5"/>
<text text-anchor="start" x="346.79" y="-86.3" font-family="Helvetica Neue" font-weight="bold" font-size="9.00" fill="white">ASTNode (Sequence)</text>
<text text-anchor="start" x="323.79" y="-78.1" font-family="Helvetica Neue" font-size="8.00" fill="#333333">Root node containing tree of children</text>
<text text-anchor="start" x="382.29" y="-61.9" font-family="Helvetica Neue" font-size="7.00" fill="white">Sequence</text>
<text text-anchor="start" x="372.79" y="-54.9" font-family="Helvetica Neue" font-size="7.00" fill="white">├── Literal(42)</text>
<text text-anchor="start" x="362.79" y="-47.9" font-family="Helvetica Neue" font-size="7.00" fill="white">├── WordCall(&quot;dup&quot;)</text>
<text text-anchor="start" x="373.29" y="-40.9" font-family="Helvetica Neue" font-size="7.00" fill="white">├── IfThenElse</text>
<text text-anchor="start" x="322.79" y="-33.9" font-family="Helvetica Neue" font-size="7.00" fill="white">│ &#160;&#160;├── then: Sequence[WordCall(&quot;mat+&quot;)]</text>
<text text-anchor="start" x="325.29" y="-26.9" font-family="Helvetica Neue" font-size="7.00" fill="white">│ &#160;&#160;└── else: Sequence[WordCall(&quot;mat&#45;&quot;)]</text>
<text text-anchor="start" x="360.29" y="-19.9" font-family="Helvetica Neue" font-size="7.00" fill="white">├── WordCall(&quot;swap&quot;)</text>
<text text-anchor="start" x="378.79" y="-12.9" font-family="Helvetica Neue" font-size="7.00" fill="white">└── DoLoop</text>
<text text-anchor="start" x="326.79" y="-5.9" font-family="Helvetica Neue" font-size="7.00" fill="white"> &#160;&#160;&#160;└── body: Sequence[WordCall(&quot;i&quot;), ...]</text>
</g>
<!-- decompiler&#45;&gt;ast -->
<g id="edge3" class="edge">
<title>decompiler&#45;&gt;ast</title>
<path fill="none" stroke="#333333" stroke-width="2" d="M400.29,-149.87C400.29,-135.75 400.29,-120.92 400.29,-107.09"/>
<polygon fill="#333333" stroke="#333333" stroke-width="2" points="403.79,-106.75 400.29,-96.75 396.79,-106.75 403.79,-106.75"/>
<text text-anchor="middle" x="433.29" y="-122.1" font-family="Helvetica Neue" font-size="8.00"> &#160;structured tree</text>
</g>
<!-- markers -->
<g id="node5" class="node">
<title>markers</title>
<polygon fill="#fff3e0" stroke="#e65100" stroke-width="1.5" points="615.29,-379 403.29,-379 403.29,-335 621.29,-335 621.29,-373 615.29,-379"/>
<polyline fill="none" stroke="#e65100" stroke-width="1.5" points="615.29,-379 615.29,-373 "/>
<polyline fill="none" stroke="#e65100" stroke-width="1.5" points="621.29,-373 615.29,-373 "/>
<text text-anchor="start" x="445.29" y="-369.6" font-family="Helvetica Neue" font-weight="bold" font-size="8.00" fill="#333333">Marker Opcodes</text>
<text text-anchor="start" x="518.29" y="-369.6" font-family="Helvetica Neue" font-size="8.00" fill="#333333"> (7 BlockKinds)</text>
<text text-anchor="start" x="437.29" y="-362.4" font-family="Helvetica Neue" font-size="7.00" fill="#333333">IfThen · IfThenElse · DoLoop · DoPlusLoop</text>
<text text-anchor="start" x="433.29" y="-355.4" font-family="Helvetica Neue" font-size="7.00" fill="#333333">BeginUntil · BeginWhileRepeat · BeginAgain</text>
<text text-anchor="start" x="447.29" y="-348.4" font-family="Helvetica Neue" font-size="7.00" fill="#bf360c">Emitted by compiler as no&#45;op hints.</text>
<text text-anchor="start" x="411.29" y="-341.4" font-family="Helvetica Neue" font-size="7.00" fill="#bf360c">Zero runtime cost. Enable unambiguous decompilation.</text>
</g>
<!-- markers&#45;&gt;decompiler -->
<g id="edge4" class="edge">
<title>markers&#45;&gt;decompiler</title>
<path fill="none" stroke="#e65100" stroke-dasharray="5,2" d="M495.28,-334.89C483.83,-320.69 468.08,-301.13 452.69,-282.03"/>
</g>
</g>
</svg>
