<?xml version="1.0" encoding="UTF-8" standalone="no"?>
<!DOCTYPE svg PUBLIC "-//W3C//DTD SVG 1.1//EN"
 "http://www.w3.org/Graphics/SVG/1.1/DTD/svg11.dtd">
<!-- Generated by graphviz version 2.43.0 (0)
 -->
<!-- Title: seq03 Pages: 1 -->
<svg width="562pt" height="395pt"
 viewBox="0.00 0.00 562.00 395.02" xmlns="http://www.w3.org/2000/svg" xmlns:xlink="http://www.w3.org/1999/xlink">
<g id="graph0" class="graph" transform="scale(0.49 0.49) rotate(0) translate(21.6 787.38)">
<title>seq03</title>
<polygon fill="white" stroke="transparent" points="-21.6,14.4 -21.6,-787.38 1119.1,-787.38 1119.1,14.4 -21.6,14.4"/>
<!-- title -->
<g id="node1" class="node">
<title>title</title>
<text text-anchor="start" x="447" y="-737.3" font-family="Helvetica Neue" font-weight="bold" font-size="14.00">3. Select and Apply Mutation Operator</text>
<text text-anchor="start" x="480.5" y="-727.3" font-family="Helvetica Neue" font-size="9.00" fill="#666666">Random selection with sequential fallback on failure</text>
</g>
<!-- ast_in -->
<g id="node2" class="node">
<title>ast_in</title>
<path fill="#f5a623" stroke="black" stroke-width="1.5" d="M676,-602C676,-602 520,-602 520,-602 514,-602 508,-596 508,-590 508,-590 508,-578 508,-578 508,-572 514,-566 520,-566 520,-566 676,-566 676,-566 682,-566 688,-572 688,-578 688,-578 688,-590 688,-590 688,-596 682,-602 676,-602"/>
<text text-anchor="start" x="540.5" y="-582.8" font-family="Helvetica Neue" font-weight="bold" font-size="9.00" fill="white">AST (from decompiler)</text>
</g>
<!-- title&#45;&gt;ast_in -->
<!-- select -->
<g id="node3" class="node">
<title>select</title>
<path fill="#fff3e0" stroke="#e65100" stroke-width="1.5" d="M586.19,-441.86C586.19,-441.86 472.14,-421.14 472.14,-421.14 466.24,-420.07 466.24,-417.93 472.14,-416.86 472.14,-416.86 586.19,-396.14 586.19,-396.14 592.1,-395.07 603.9,-395.07 609.81,-396.14 609.81,-396.14 723.86,-416.86 723.86,-416.86 729.76,-417.93 729.76,-420.07 723.86,-421.14 723.86,-421.14 609.81,-441.86 609.81,-441.86 603.9,-442.93 592.1,-442.93 586.19,-441.86"/>
<text text-anchor="start" x="528.5" y="-420.8" font-family="Helvetica Neue" font-weight="bold" font-size="9.00" fill="#bf360c">Random operator selection</text>
<text text-anchor="start" x="520.5" y="-413.4" font-family="Helvetica Neue" font-size="7.00" fill="#bf360c">PRNG picks one of 4, tries others on failure</text>
</g>
<!-- ast_in&#45;&gt;select -->
<g id="edge2" class="edge">
<title>ast_in&#45;&gt;select</title>
<path fill="none" stroke="#333333" stroke-width="2" d="M598,-565.86C598,-539.49 598,-488.44 598,-454.28"/>
<polygon fill="#333333" stroke="#333333" stroke-width="2" points="601.5,-454.27 598,-444.27 594.5,-454.27 601.5,-454.27"/>
</g>
<!-- op1 -->
<g id="node4" class="node">
<title>op1</title>
<path fill="#4a90d9" stroke="black" stroke-width="1.5" d="M204,-246.5C204,-246.5 12,-246.5 12,-246.5 6,-246.5 0,-240.5 0,-234.5 0,-234.5 0,-207.5 0,-207.5 0,-201.5 6,-195.5 12,-195.5 12,-195.5 204,-195.5 204,-195.5 210,-195.5 216,-201.5 216,-207.5 216,-207.5 216,-234.5 216,-234.5 216,-240.5 210,-246.5 204,-246.5"/>
<text text-anchor="start" x="64" y="-237.1" font-family="Helvetica Neue" font-weight="bold" font-size="8.00" fill="white">substitute_call(ast)</text>
<text text-anchor="start" x="55" y="-229.9" font-family="Helvetica Neue" font-size="7.00" fill="#dddddd">1. Collect all WordCall nodes</text>
<text text-anchor="start" x="74" y="-222.9" font-family="Helvetica Neue" font-size="7.00" fill="#dddddd">2. Pick random call</text>
<text text-anchor="start" x="34" y="-215.9" font-family="Helvetica Neue" font-size="7.00" fill="#dddddd">3. Query SignatureIndex for alternatives</text>
<text text-anchor="start" x="26" y="-208.9" font-family="Helvetica Neue" font-size="7.00" fill="#dddddd">4. Tiered selection: L1 60% / L2 25% / L3 15%</text>
<text text-anchor="start" x="45" y="-201.9" font-family="Helvetica Neue" font-size="7.00" fill="#dddddd">5. Replace word name in AST node</text>
</g>
<!-- select&#45;&gt;op1 -->
<g id="edge3" class="edge">
<title>select&#45;&gt;op1</title>
<path fill="none" stroke="#333333" stroke-width="1.5" d="M556.65,-401.46C472.97,-367.99 282.72,-291.89 178.87,-250.35"/>
<polygon fill="#333333" stroke="#333333" stroke-width="1.5" points="179.99,-247.03 169.4,-246.56 177.39,-253.52 179.99,-247.03"/>
<text text-anchor="middle" x="367" y="-318.1" font-family="Helvetica Neue" font-size="8.00"> try 1st</text>
</g>
<!-- op2 -->
<g id="node5" class="node">
<title>op2</title>
<path fill="#4a90d9" stroke="black" stroke-width="1.5" d="M449,-243C449,-243 257,-243 257,-243 251,-243 245,-237 245,-231 245,-231 245,-211 245,-211 245,-205 251,-199 257,-199 257,-199 449,-199 449,-199 455,-199 461,-205 461,-211 461,-211 461,-231 461,-231 461,-237 455,-243 449,-243"/>
<text text-anchor="start" x="303.5" y="-233.6" font-family="Helvetica Neue" font-weight="bold" font-size="8.00" fill="white">perturb_constant(ast)</text>
<text text-anchor="start" x="289.5" y="-226.4" font-family="Helvetica Neue" font-size="7.00" fill="#dddddd">1. Collect all numeric Literal nodes</text>
<text text-anchor="start" x="314.5" y="-219.4" font-family="Helvetica Neue" font-size="7.00" fill="#dddddd">2. Pick random literal</text>
<text text-anchor="start" x="277" y="-212.4" font-family="Helvetica Neue" font-size="7.00" fill="#dddddd">3. Apply Gaussian noise (σ=0.1 × |value|)</text>
<text text-anchor="start" x="309.5" y="-205.4" font-family="Helvetica Neue" font-size="7.00" fill="#dddddd">4. Modify value in&#45;place</text>
</g>
<!-- select&#45;&gt;op2 -->
<g id="edge4" class="edge">
<title>select&#45;&gt;op2</title>
<path fill="none" stroke="#888888" stroke-dasharray="5,2" d="M573.16,-398.13C529.14,-362.91 437.37,-289.5 387.34,-249.47"/>
<polygon fill="#888888" stroke="#888888" points="389.38,-246.62 379.38,-243.11 385.01,-252.09 389.38,-246.62"/>
<text text-anchor="middle" x="491.5" y="-318.1" font-family="Helvetica Neue" font-size="8.00"> try 2nd</text>
</g>
<!-- op3 -->
<g id="node6" class="node">
<title>op3</title>
<path fill="#4a90d9" stroke="black" stroke-width="1.5" d="M694,-243C694,-243 502,-243 502,-243 496,-243 490,-237 490,-231 490,-231 490,-211 490,-211 490,-205 496,-199 502,-199 502,-199 694,-199 694,-199 700,-199 706,-205 706,-211 706,-211 706,-231 706,-231 706,-237 700,-243 694,-243"/>
<text text-anchor="start" x="561.5" y="-233.6" font-family="Helvetica Neue" font-weight="bold" font-size="8.00" fill="white">move_block(ast)</text>
<text text-anchor="start" x="529.5" y="-226.4" font-family="Helvetica Neue" font-size="7.00" fill="#dddddd">1. Require Sequence with ≥3 children</text>
<text text-anchor="start" x="529.5" y="-219.4" font-family="Helvetica Neue" font-size="7.00" fill="#dddddd">2. Pick two different random positions</text>
<text text-anchor="start" x="533.5" y="-212.4" font-family="Helvetica Neue" font-size="7.00" fill="#dddddd">3. Extract node, reinsert elsewhere</text>
<text text-anchor="start" x="548" y="-205.4" font-family="Helvetica Neue" font-size="7.00" fill="#dddddd">4. Changes execution order</text>
</g>
<!-- select&#45;&gt;op3 -->
<g id="edge5" class="edge">
<title>select&#45;&gt;op3</title>
<path fill="none" stroke="#888888" stroke-dasharray="5,2" d="M598,-393.97C598,-358.57 598,-292.4 598,-253.27"/>
<polygon fill="#888888" stroke="#888888" points="601.5,-253.23 598,-243.23 594.5,-253.23 601.5,-253.23"/>
<text text-anchor="middle" x="612.5" y="-318.1" font-family="Helvetica Neue" font-size="8.00"> try 3rd</text>
</g>
<!-- op4 -->
<g id="node7" class="node">
<title>op4</title>
<path fill="#4a90d9" stroke="black" stroke-width="1.5" d="M939,-239.5C939,-239.5 747,-239.5 747,-239.5 741,-239.5 735,-233.5 735,-227.5 735,-227.5 735,-214.5 735,-214.5 735,-208.5 741,-202.5 747,-202.5 747,-202.5 939,-202.5 939,-202.5 945,-202.5 951,-208.5 951,-214.5 951,-214.5 951,-227.5 951,-227.5 951,-233.5 945,-239.5 939,-239.5"/>
<text text-anchor="start" x="787" y="-230.1" font-family="Helvetica Neue" font-weight="bold" font-size="8.00" fill="white">mutate_control_flow(ast)</text>
<text text-anchor="start" x="763" y="-222.9" font-family="Helvetica Neue" font-size="7.00" fill="#dddddd">50% wrap: WordCall → if true then WordCall</text>
<text text-anchor="start" x="767" y="-215.9" font-family="Helvetica Neue" font-size="7.00" fill="#dddddd">50% unwrap: IfThen → extract body inline</text>
<text text-anchor="start" x="792.5" y="-208.9" font-family="Helvetica Neue" font-size="7.00" fill="#dddddd">Alters control flow topology</text>
</g>
<!-- select&#45;&gt;op4 -->
<g id="edge6" class="edge">
<title>select&#45;&gt;op4</title>
<path fill="none" stroke="#888888" stroke-dasharray="5,2" d="M622.84,-398.13C668.15,-361.88 764.04,-285.17 812.95,-246.04"/>
<polygon fill="#888888" stroke="#888888" points="815.32,-248.62 820.95,-239.64 810.95,-243.16 815.32,-248.62"/>
<text text-anchor="middle" x="735.5" y="-318.1" font-family="Helvetica Neue" font-size="8.00"> try 4th</text>
</g>
<!-- fail -->
<g id="node9" class="node">
<title>fail</title>
<text text-anchor="start" x="988.5" y="-223.6" font-family="Helvetica Neue" font-weight="bold" font-size="8.00" fill="#c62828">All 4 fail → return null</text>
<text text-anchor="start" x="1001.5" y="-215.6" font-family="Helvetica Neue" font-size="8.00" fill="#c62828">No child produced</text>
</g>
<!-- select&#45;&gt;fail -->
<g id="edge11" class="edge">
<title>select&#45;&gt;fail</title>
<path fill="none" stroke="#c62828" stroke-dasharray="5,2" d="M636.36,-400.95C716.94,-365.14 903.56,-282.2 991.51,-243.11"/>
<polygon fill="#c62828" stroke="#c62828" points="993.01,-246.27 1000.72,-239.01 990.17,-239.87 993.01,-246.27"/>
<text text-anchor="middle" x="836.5" y="-318.1" font-family="Helvetica Neue" font-size="8.00"> all false</text>
</g>
<!-- ast_out -->
<g id="node8" class="node">
<title>ast_out</title>
<path fill="#d0021b" stroke="black" stroke-width="1.5" d="M553,-55C553,-55 397,-55 397,-55 391,-55 385,-49 385,-43 385,-43 385,-31 385,-31 385,-25 391,-19 397,-19 397,-19 553,-19 553,-19 559,-19 565,-25 565,-31 565,-31 565,-43 565,-43 565,-49 559,-55 553,-55"/>
<text text-anchor="start" x="441.5" y="-38.8" font-family="Helvetica Neue" font-weight="bold" font-size="9.00" fill="white">Mutated AST</text>
<text text-anchor="start" x="396.5" y="-31.4" font-family="Helvetica Neue" font-size="7.00" fill="white">May have type mismatches → needs repair</text>
</g>
<!-- op1&#45;&gt;ast_out -->
<g id="edge7" class="edge">
<title>op1&#45;&gt;ast_out</title>
<path fill="none" stroke="#2e7d32" stroke-width="2" d="M157.5,-195.45C229.63,-159.68 362.49,-93.79 431.24,-59.7"/>
<polygon fill="#2e7d32" stroke="#2e7d32" stroke-width="2" points="433.1,-62.69 440.5,-55.11 429.99,-56.42 433.1,-62.69"/>
<text text-anchor="middle" x="323.5" y="-119.1" font-family="Helvetica Neue" font-size="8.00"> true</text>
</g>
<!-- op2&#45;&gt;ast_out -->
<g id="edge8" class="edge">
<title>op2&#45;&gt;ast_out</title>
<path fill="none" stroke="#2e7d32" stroke-width="1.5" d="M367.23,-198.77C389.77,-165.14 433.61,-99.75 457.85,-63.59"/>
<polygon fill="#2e7d32" stroke="#2e7d32" stroke-width="1.5" points="460.9,-65.32 463.56,-55.06 455.09,-61.42 460.9,-65.32"/>
<text text-anchor="middle" x="431.5" y="-119.1" font-family="Helvetica Neue" font-size="8.00"> true</text>
</g>
<!-- op3&#45;&gt;ast_out -->
<g id="edge9" class="edge">
<title>op3&#45;&gt;ast_out</title>
<path fill="none" stroke="#2e7d32" stroke-width="1.5" d="M583.65,-198.77C560.92,-165.14 516.73,-99.75 492.29,-63.59"/>
<polygon fill="#2e7d32" stroke="#2e7d32" stroke-width="1.5" points="495.03,-61.39 486.53,-55.06 489.23,-65.31 495.03,-61.39"/>
<text text-anchor="middle" x="542.5" y="-119.1" font-family="Helvetica Neue" font-size="8.00"> true</text>
</g>
<!-- op4&#45;&gt;ast_out -->
<g id="edge10" class="edge">
<title>op4&#45;&gt;ast_out</title>
<path fill="none" stroke="#2e7d32" stroke-width="1.5" d="M807.38,-202.38C739.57,-168.85 592.16,-95.94 518.59,-59.56"/>
<polygon fill="#2e7d32" stroke="#2e7d32" stroke-width="1.5" points="520.08,-56.39 509.56,-55.09 516.98,-62.66 520.08,-56.39"/>
<text text-anchor="middle" x="657.5" y="-119.1" font-family="Helvetica Neue" font-size="8.00"> true</text>
</g>
</g>
</svg>
