<?xml version="1.0" encoding="UTF-8" standalone="no"?>
<!DOCTYPE svg PUBLIC "-//W3C//DTD SVG 1.1//EN"
 "http://www.w3.org/Graphics/SVG/1.1/DTD/svg11.dtd">
<!-- Generated by graphviz version 2.43.0 (0)
 -->
<!-- Title: seq01 Pages: 1 -->
<svg width="562pt" height="395pt"
 viewBox="0.00 0.00 562.00 394.84" xmlns="http://www.w3.org/2000/svg" xmlns:xlink="http://www.w3.org/1999/xlink">
<g id="graph0" class="graph" transform="scale(0.71 0.71) rotate(0) translate(21.6 543.4)">
<title>seq01</title>
<polygon fill="white" stroke="transparent" points="-21.6,14.4 -21.6,-543.4 772.35,-543.4 772.35,14.4 -21.6,14.4"/>
<!-- title -->
<g id="node1" class="node">
<title>title</title>
<text text-anchor="start" x="276.45" y="-512.3" font-family="Helvetica Neue" font-weight="bold" font-size="14.00">1. Entry Point: evolve_word()</text>
<text text-anchor="start" x="249.45" y="-502.3" font-family="Helvetica Neue" font-size="9.00" fill="#666666">EvolutionEngine selects parent and dispatches to AST pipeline</text>
</g>
<!-- caller -->
<g id="node2" class="node">
<title>caller</title>
<path fill="#9b9b9b" stroke="black" stroke-width="1.5" d="M450.95,-448.5C450.95,-448.5 330.95,-448.5 330.95,-448.5 324.95,-448.5 318.95,-442.5 318.95,-436.5 318.95,-436.5 318.95,-421.5 318.95,-421.5 318.95,-415.5 324.95,-409.5 330.95,-409.5 330.95,-409.5 450.95,-409.5 450.95,-409.5 456.95,-409.5 462.95,-415.5 462.95,-421.5 462.95,-421.5 462.95,-436.5 462.95,-436.5 462.95,-442.5 456.95,-448.5 450.95,-448.5"/>
<text text-anchor="start" x="359.45" y="-438.3" font-family="Helvetica Neue" font-weight="bold" font-size="9.00" fill="white">evolve&#45;word</text>
<text text-anchor="start" x="365.95" y="-430.1" font-family="Helvetica Neue" font-size="8.00" fill="white">TIL primitive</text>
<text text-anchor="start" x="348.95" y="-422.9" font-family="Helvetica Neue" font-size="7.00" fill="#dddddd">User invokes evolution</text>
<text text-anchor="start" x="358.95" y="-415.9" font-family="Helvetica Neue" font-size="7.00" fill="#dddddd">on a named word</text>
</g>
<!-- title&#45;&gt;caller -->
<!-- engine -->
<g id="node3" class="node">
<title>engine</title>
<path fill="#4a90d9" stroke="#2a70b9" stroke-width="3" d="M522.95,-347C522.95,-347 258.95,-347 258.95,-347 252.95,-347 246.95,-341 246.95,-335 246.95,-335 246.95,-293 246.95,-293 246.95,-287 252.95,-281 258.95,-281 258.95,-281 522.95,-281 522.95,-281 528.95,-281 534.95,-287 534.95,-293 534.95,-293 534.95,-335 534.95,-335 534.95,-341 528.95,-347 522.95,-347"/>
<text text-anchor="start" x="295.95" y="-336.8" font-family="Helvetica Neue" font-weight="bold" font-size="9.00" fill="white">EvolutionEngine::evolve_word(name)</text>
<text text-anchor="start" x="330.45" y="-328.6" font-family="Helvetica Neue" font-size="8.00" fill="#333333">evolution_engine.cpp:45&#45;135</text>
<text text-anchor="start" x="332.95" y="-311.6" font-family="Helvetica Neue" font-size="8.00" fill="white">1. Lookup word in Dictionary</text>
<text text-anchor="start" x="309.95" y="-303.6" font-family="Helvetica Neue" font-size="8.00" fill="white">2. Get latest implementation as </text>
<text text-anchor="start" x="440.95" y="-303.6" font-family="Helvetica Neue" font-weight="bold" font-size="8.00" fill="white">parent</text>
<text text-anchor="start" x="306.95" y="-295.6" font-family="Helvetica Neue" font-size="8.00" fill="white">3. Check </text>
<text text-anchor="start" x="343.95" y="-295.6" font-family="Helvetica Neue" font-weight="bold" font-size="8.00" fill="white">use_ast_ops</text>
<text text-anchor="start" x="396.95" y="-295.6" font-family="Helvetica Neue" font-size="8.00" fill="white"> flag (default: true)</text>
<text text-anchor="start" x="310.45" y="-287.6" font-family="Helvetica Neue" font-size="8.00" fill="white">4. Dispatch to AST or bytecode pipeline</text>
</g>
<!-- caller&#45;&gt;engine -->
<g id="edge2" class="edge">
<title>caller&#45;&gt;engine</title>
<path fill="none" stroke="#333333" stroke-width="2" d="M390.95,-409.34C390.95,-395.3 390.95,-375.48 390.95,-357.63"/>
<polygon fill="#333333" stroke="#333333" stroke-width="2" points="394.45,-357.41 390.95,-347.41 387.45,-357.41 394.45,-357.41"/>
<text text-anchor="middle" x="437.45" y="-380.6" font-family="Helvetica Neue" font-size="8.00"> &#160;evolve&#45;word primitive</text>
<text text-anchor="middle" x="437.45" y="-371.6" font-family="Helvetica Neue" font-size="8.00"> &#160;calls engine</text>
</g>
<!-- decision -->
<g id="node4" class="node">
<title>decision</title>
<path fill="#fff3e0" stroke="#e65100" stroke-width="1.5" d="M379.93,-231.25C379.93,-231.25 334.75,-211.75 334.75,-211.75 329.25,-209.38 329.25,-204.62 334.75,-202.25 334.75,-202.25 379.93,-182.75 379.93,-182.75 385.44,-180.38 396.46,-180.38 401.97,-182.75 401.97,-182.75 447.14,-202.25 447.14,-202.25 452.65,-204.62 452.65,-209.38 447.14,-211.75 447.14,-211.75 401.97,-231.25 401.97,-231.25 396.46,-233.62 385.44,-233.62 379.93,-231.25"/>
<text text-anchor="start" x="353.95" y="-205.5" font-family="Helvetica Neue" font-weight="bold" font-size="10.00" fill="#bf360c">use_ast_ops?</text>
</g>
<!-- engine&#45;&gt;decision -->
<g id="edge3" class="edge">
<title>engine&#45;&gt;decision</title>
<path fill="none" stroke="#333333" stroke-width="2" d="M390.95,-280.93C390.95,-270.03 390.95,-257.74 390.95,-246.4"/>
<polygon fill="#333333" stroke="#333333" stroke-width="2" points="394.45,-246.32 390.95,-236.32 387.45,-246.32 394.45,-246.32"/>
</g>
<!-- ast_path -->
<g id="node5" class="node">
<title>ast_path</title>
<path fill="#7bc67e" stroke="black" stroke-width="1.5" d="M283.95,-125C283.95,-125 91.95,-125 91.95,-125 85.95,-125 79.95,-119 79.95,-113 79.95,-113 79.95,-101 79.95,-101 79.95,-95 85.95,-89 91.95,-89 91.95,-89 283.95,-89 283.95,-89 289.95,-89 295.95,-95 295.95,-101 295.95,-101 295.95,-113 295.95,-113 295.95,-119 289.95,-125 283.95,-125"/>
<text text-anchor="start" x="104.95" y="-108.8" font-family="Helvetica Neue" font-weight="bold" font-size="9.00" fill="white">ASTGeneticOps::mutate(parent)</text>
<text text-anchor="start" x="113.45" y="-101.4" font-family="Helvetica Neue" font-size="7.00" fill="#dddddd">Decompile → Mutate → Repair → Compile</text>
</g>
<!-- decision&#45;&gt;ast_path -->
<g id="edge4" class="edge">
<title>decision&#45;&gt;ast_path</title>
<path fill="none" stroke="#2e7d32" stroke-width="2.5" d="M360.12,-191.12C326.17,-174.73 271.29,-148.23 232.63,-129.57"/>
<polygon fill="#2e7d32" stroke="#2e7d32" stroke-width="2.5" points="233.7,-126.2 223.17,-125 230.66,-132.5 233.7,-126.2"/>
<text text-anchor="middle" x="312.45" y="-150.1" font-family="Helvetica Neue" font-size="8.00" fill="#2e7d32"> true (default)</text>
</g>
<!-- bc_path -->
<g id="node6" class="node">
<title>bc_path</title>
<path fill="#cccccc" stroke="black" stroke-width="1.5" stroke-dasharray="5,2" d="M671.95,-125C671.95,-125 515.95,-125 515.95,-125 509.95,-125 503.95,-119 503.95,-113 503.95,-113 503.95,-101 503.95,-101 503.95,-95 509.95,-89 515.95,-89 515.95,-89 671.95,-89 671.95,-89 677.95,-89 683.95,-95 683.95,-101 683.95,-101 683.95,-113 683.95,-113 683.95,-119 677.95,-125 671.95,-125"/>
<text text-anchor="start" x="530.45" y="-109.1" font-family="Helvetica Neue" font-weight="bold" font-size="8.00" fill="#888888">GeneticOps::clone + mutate</text>
<text text-anchor="start" x="519.95" y="-101.9" font-family="Helvetica Neue" font-size="7.00" fill="#888888">Legacy bytecode&#45;level random mutation</text>
</g>
<!-- decision&#45;&gt;bc_path -->
<g id="edge5" class="edge">
<title>decision&#45;&gt;bc_path</title>
<path fill="none" stroke="#999999" stroke-dasharray="5,2" d="M421.78,-191.12C455.73,-174.73 510.61,-148.23 549.27,-129.57"/>
<polygon fill="#999999" stroke="#999999" points="551.24,-132.5 558.73,-125 548.2,-126.2 551.24,-132.5"/>
<text text-anchor="middle" x="522.45" y="-150.1" font-family="Helvetica Neue" font-size="8.00" fill="#999999"> false </text>
</g>
<!-- result -->
<g id="node7" class="node">
<title>result</title>
<path fill="#f5a623" stroke="black" stroke-width="1.5" d="M468.95,-36C468.95,-36 312.95,-36 312.95,-36 306.95,-36 300.95,-30 300.95,-24 300.95,-24 300.95,-12 300.95,-12 300.95,-6 306.95,0 312.95,0 312.95,0 468.95,0 468.95,0 474.95,0 480.95,-6 480.95,-12 480.95,-12 480.95,-24 480.95,-24 480.95,-30 474.95,-36 468.95,-36"/>
<text text-anchor="start" x="343.95" y="-23.3" font-family="Helvetica Neue" font-weight="bold" font-size="9.00" fill="white">child WordImplPtr</text>
<text text-anchor="start" x="332.95" y="-15.9" font-family="Helvetica Neue" font-size="7.00" fill="white">New implementation registered</text>
<text text-anchor="start" x="331.95" y="-8.9" font-family="Helvetica Neue" font-size="7.00" fill="white">in Dictionary with fitness weight</text>
</g>
<!-- ast_path&#45;&gt;result -->
<g id="edge6" class="edge">
<title>ast_path&#45;&gt;result</title>
<path fill="none" stroke="#333333" stroke-width="2" d="M228.06,-88.81C260.69,-74.82 306.89,-55.02 341.76,-40.08"/>
<polygon fill="#333333" stroke="#333333" stroke-width="2" points="343.46,-43.16 351.27,-36 340.7,-36.73 343.46,-43.16"/>
<text text-anchor="middle" x="321.95" y="-61.1" font-family="Helvetica Neue" font-size="8.00"> &#160;child or null</text>
</g>
<!-- bc_path&#45;&gt;result -->
<g id="edge7" class="edge">
<title>bc_path&#45;&gt;result</title>
<path fill="none" stroke="#999999" stroke-dasharray="5,2" d="M553.84,-88.81C521.21,-74.82 475.01,-55.02 440.14,-40.08"/>
<polygon fill="#999999" stroke="#999999" points="441.2,-36.73 430.63,-36 438.44,-43.16 441.2,-36.73"/>
</g>
</g>
</svg>
