<?xml version="1.0" encoding="UTF-8" standalone="no"?>
<!DOCTYPE svg PUBLIC "-//W3C//DTD SVG 1.1//EN"
 "http://www.w3.org/Graphics/SVG/1.1/DTD/svg11.dtd">
<!-- Generated by graphviz version 2.43.0 (0)
 -->
<!-- Title: seq06 Pages: 1 -->
<svg width="562pt" height="395pt"
 viewBox="0.00 0.00 562.00 394.95" xmlns="http://www.w3.org/2000/svg" xmlns:xlink="http://www.w3.org/1999/xlink">
<g id="graph0" class="graph" transform="scale(0.64 0.64) rotate(0) translate(21.6 604.4)">
<title>seq06</title>
<polygon fill="white" stroke="transparent" points="-21.6,14.4 -21.6,-604.4 858.92,-604.4 858.92,14.4 -21.6,14.4"/>
<!-- title -->
<g id="node1" class="node">
<title>title</title>
<text text-anchor="start" x="308.16" y="-573.3" font-family="Helvetica Neue" font-weight="bold" font-size="14.00">6. Create Child and Register</text>
<text text-anchor="start" x="293.66" y="-563.3" font-family="Helvetica Neue" font-size="9.00" fill="#666666">New implementation enters the Dictionary for selection</text>
</g>
<!-- bytecode -->
<g id="node2" class="node">
<title>bytecode</title>
<path fill="#4a90d9" stroke="black" stroke-width="1.5" d="M485.66,-509C485.66,-509 351.66,-509 351.66,-509 345.66,-509 339.66,-503 339.66,-497 339.66,-497 339.66,-485 339.66,-485 339.66,-479 345.66,-473 351.66,-473 351.66,-473 485.66,-473 485.66,-473 491.66,-473 497.66,-479 497.66,-485 497.66,-485 497.66,-497 497.66,-497 497.66,-503 491.66,-509 485.66,-509"/>
<text text-anchor="start" x="381.66" y="-492.8" font-family="Helvetica Neue" font-weight="bold" font-size="9.00" fill="white">New ByteCode</text>
<text text-anchor="start" x="367.16" y="-485.4" font-family="Helvetica Neue" font-size="7.00" fill="white">Compiled from repaired AST</text>
</g>
<!-- title&#45;&gt;bytecode -->
<!-- create -->
<g id="node3" class="node">
<title>create</title>
<path fill="#7bc67e" stroke="#5ba65e" stroke-width="3" d="M550.66,-420C550.66,-420 286.66,-420 286.66,-420 280.66,-420 274.66,-414 274.66,-408 274.66,-408 274.66,-342 274.66,-342 274.66,-336 280.66,-330 286.66,-330 286.66,-330 550.66,-330 550.66,-330 556.66,-330 562.66,-336 562.66,-342 562.66,-342 562.66,-408 562.66,-408 562.66,-414 556.66,-420 550.66,-420"/>
<text text-anchor="start" x="360.66" y="-409.8" font-family="Helvetica Neue" font-weight="bold" font-size="9.00" fill="white">Create Child WordImpl</text>
<text text-anchor="start" x="358.16" y="-401.6" font-family="Helvetica Neue" font-size="8.00" fill="#333333">ast_genetic_ops.cpp:277&#45;285</text>
<text text-anchor="start" x="315.16" y="-384.6" font-family="Helvetica Neue" font-size="8.00" fill="white">1. Allocate new WordImpl(parent.name(), next_id())</text>
<text text-anchor="start" x="329.16" y="-376.6" font-family="Helvetica Neue" font-size="8.00" fill="white">2. Set </text>
<text text-anchor="start" x="355.16" y="-376.6" font-family="Helvetica Neue" font-weight="bold" font-size="8.00" fill="white">generation</text>
<text text-anchor="start" x="405.16" y="-376.6" font-family="Helvetica Neue" font-size="8.00" fill="white"> = parent.generation + 1</text>
<text text-anchor="start" x="335.66" y="-368.6" font-family="Helvetica Neue" font-size="8.00" fill="white">3. Record </text>
<text text-anchor="start" x="376.66" y="-368.6" font-family="Helvetica Neue" font-weight="bold" font-size="8.00" fill="white">parent ID</text>
<text text-anchor="start" x="419.66" y="-368.6" font-family="Helvetica Neue" font-size="8.00" fill="white"> for lineage tracking</text>
<text text-anchor="start" x="330.16" y="-360.6" font-family="Helvetica Neue" font-size="8.00" fill="white">4. Copy parent&#39;s </text>
<text text-anchor="start" x="399.16" y="-360.6" font-family="Helvetica Neue" font-weight="bold" font-size="8.00" fill="white">weight</text>
<text text-anchor="start" x="431.16" y="-360.6" font-family="Helvetica Neue" font-size="8.00" fill="white"> as starting fitness</text>
<text text-anchor="start" x="350.66" y="-352.6" font-family="Helvetica Neue" font-size="8.00" fill="white">5. Copy parent&#39;s </text>
<text text-anchor="start" x="419.66" y="-352.6" font-family="Helvetica Neue" font-weight="bold" font-size="8.00" fill="white">TypeSignature</text>
<text text-anchor="start" x="370.16" y="-344.6" font-family="Helvetica Neue" font-size="8.00" fill="white">6. Attach new bytecode</text>
<text text-anchor="start" x="337.16" y="-336.6" font-family="Helvetica Neue" font-size="8.00" fill="white">7. Record mutation type: &quot;ast&#45;mutation&quot;</text>
</g>
<!-- bytecode&#45;&gt;create -->
<g id="edge2" class="edge">
<title>bytecode&#45;&gt;create</title>
<path fill="none" stroke="#333333" stroke-width="2" d="M418.66,-472.69C418.66,-461.24 418.66,-445.56 418.66,-430.15"/>
<polygon fill="#333333" stroke="#333333" stroke-width="2" points="422.16,-430.12 418.66,-420.12 415.16,-430.12 422.16,-430.12"/>
<text text-anchor="middle" x="454.66" y="-445.1" font-family="Helvetica Neue" font-size="8.00"> &#160;attach bytecode</text>
</g>
<!-- evaluate -->
<g id="node4" class="node">
<title>evaluate</title>
<path fill="#f5a623" stroke="black" stroke-width="1.5" d="M532.66,-277C532.66,-277 304.66,-277 304.66,-277 298.66,-277 292.66,-271 292.66,-265 292.66,-265 292.66,-223 292.66,-223 292.66,-217 298.66,-211 304.66,-211 304.66,-211 532.66,-211 532.66,-211 538.66,-211 544.66,-217 544.66,-223 544.66,-223 544.66,-265 544.66,-265 544.66,-271 538.66,-277 532.66,-277"/>
<text text-anchor="start" x="371.66" y="-266.8" font-family="Helvetica Neue" font-weight="bold" font-size="9.00" fill="white">Fitness Evaluation</text>
<text text-anchor="start" x="374.66" y="-258.6" font-family="Helvetica Neue" font-size="8.00" fill="#333333">evolution_engine.cpp</text>
<text text-anchor="start" x="337.16" y="-241.6" font-family="Helvetica Neue" font-size="8.00" fill="white">Run child against registered test cases:</text>
<text text-anchor="start" x="313.16" y="-233.6" font-family="Helvetica Neue" font-size="8.00" fill="white">• Execute with budgeted limits (10000 instructions)</text>
<text text-anchor="start" x="341.66" y="-225.6" font-family="Helvetica Neue" font-size="8.00" fill="white">• Compare output to expected results</text>
<text text-anchor="start" x="326.66" y="-217.6" font-family="Helvetica Neue" font-size="8.00" fill="white">• Assign </text>
<text text-anchor="start" x="363.66" y="-217.6" font-family="Helvetica Neue" font-weight="bold" font-size="8.00" fill="white">fitness weight</text>
<text text-anchor="start" x="428.66" y="-217.6" font-family="Helvetica Neue" font-size="8.00" fill="white"> based on pass rate</text>
</g>
<!-- create&#45;&gt;evaluate -->
<g id="edge3" class="edge">
<title>create&#45;&gt;evaluate</title>
<path fill="none" stroke="#333333" stroke-width="2" d="M418.66,-329.97C418.66,-316.12 418.66,-300.88 418.66,-287.17"/>
<polygon fill="#333333" stroke="#333333" stroke-width="2" points="422.16,-287.03 418.66,-277.03 415.16,-287.03 422.16,-287.03"/>
<text text-anchor="middle" x="456.66" y="-302.1" font-family="Helvetica Neue" font-size="8.00"> &#160;child WordImplPtr</text>
</g>
<!-- register -->
<g id="node5" class="node">
<title>register</title>
<path fill="#9c27b0" stroke="black" stroke-width="1.5" d="M543.66,-158.5C543.66,-158.5 293.66,-158.5 293.66,-158.5 287.66,-158.5 281.66,-152.5 281.66,-146.5 281.66,-146.5 281.66,-101.5 281.66,-101.5 281.66,-95.5 287.66,-89.5 293.66,-89.5 293.66,-89.5 543.66,-89.5 543.66,-89.5 549.66,-89.5 555.66,-95.5 555.66,-101.5 555.66,-101.5 555.66,-146.5 555.66,-146.5 555.66,-152.5 549.66,-158.5 543.66,-158.5"/>
<text text-anchor="start" x="319.16" y="-148.3" font-family="Helvetica Neue" font-weight="bold" font-size="9.00" fill="white">Dictionary::register_word(name, child)</text>
<text text-anchor="start" x="323.66" y="-140.1" font-family="Helvetica Neue" font-size="8.00" fill="#333333">Appended to concept&#39;s implementation vector</text>
<text text-anchor="start" x="336.16" y="-123.9" font-family="Helvetica Neue" font-size="7.00" fill="white">Now available for SelectionEngine to choose:</text>
<text text-anchor="start" x="372.66" y="-116.9" font-family="Helvetica Neue" font-size="7.00" fill="white">• Latest (always newest)</text>
<text text-anchor="start" x="347.66" y="-109.9" font-family="Helvetica Neue" font-size="7.00" fill="white">• WeightedRandom (by fitness weight)</text>
<text text-anchor="start" x="331.66" y="-102.9" font-family="Helvetica Neue" font-size="7.00" fill="white">• EpsilonGreedy (exploit best, explore random)</text>
<text text-anchor="start" x="357.66" y="-95.9" font-family="Helvetica Neue" font-size="7.00" fill="white">• UCB1 (upper confidence bound)</text>
</g>
<!-- evaluate&#45;&gt;register -->
<g id="edge4" class="edge">
<title>evaluate&#45;&gt;register</title>
<path fill="none" stroke="#333333" stroke-width="2" d="M418.66,-210.76C418.66,-197.92 418.66,-182.95 418.66,-169.13"/>
<polygon fill="#333333" stroke="#333333" stroke-width="2" points="422.16,-168.85 418.66,-158.85 415.16,-168.85 422.16,-168.85"/>
<text text-anchor="middle" x="451.16" y="-183.1" font-family="Helvetica Neue" font-size="8.00"> &#160;weighted child</text>
</g>
<!-- prune -->
<g id="node6" class="node">
<title>prune</title>
<path fill="#d0021b" stroke="black" stroke-width="1.5" d="M478.66,-36C478.66,-36 358.66,-36 358.66,-36 352.66,-36 346.66,-30 346.66,-24 346.66,-24 346.66,-12 346.66,-12 346.66,-6 352.66,0 358.66,0 358.66,0 478.66,0 478.66,0 484.66,0 490.66,-6 490.66,-12 490.66,-12 490.66,-24 490.66,-24 490.66,-30 484.66,-36 478.66,-36"/>
<text text-anchor="start" x="385.16" y="-23.6" font-family="Helvetica Neue" font-weight="bold" font-size="8.00" fill="white">Prune weakest</text>
<text text-anchor="start" x="365.16" y="-16.4" font-family="Helvetica Neue" font-size="7.00" fill="white">remove_implementation_at()</text>
<text text-anchor="start" x="370.16" y="-9.4" font-family="Helvetica Neue" font-size="7.00" fill="white">if population exceeds limit</text>
</g>
<!-- register&#45;&gt;prune -->
<g id="edge5" class="edge">
<title>register&#45;&gt;prune</title>
<path fill="none" stroke="#c62828" stroke-width="1.5" stroke-dasharray="5,2" d="M418.66,-89.23C418.66,-75.33 418.66,-59.44 418.66,-46.29"/>
<polygon fill="#c62828" stroke="#c62828" stroke-width="1.5" points="422.16,-46 418.66,-36 415.16,-46 422.16,-46"/>
<text text-anchor="middle" x="443.66" y="-61.1" font-family="Helvetica Neue" font-size="8.00"> &#160;if over limit</text>
</g>
</g>
</svg>
