<?xml version="1.0" encoding="UTF-8" standalone="no"?>
<!DOCTYPE svg PUBLIC "-//W3C//DTD SVG 1.1//EN"
 "http://www.w3.org/Graphics/SVG/1.1/DTD/svg11.dtd">
<!-- Generated by graphviz version 2.43.0 (0)
 -->
<!-- Title: seq04 Pages: 1 -->
<svg width="562pt" height="395pt"
 viewBox="0.00 0.00 562.00 394.58" xmlns="http://www.w3.org/2000/svg" xmlns:xlink="http://www.w3.org/1999/xlink">
<g id="graph0" class="graph" transform="scale(0.87 0.87) rotate(0) translate(21.6 440.4)">
<title>seq04</title>
<polygon fill="white" stroke="transparent" points="-21.6,14.4 -21.6,-440.4 626.18,-440.4 626.18,14.4 -21.6,14.4"/>
<!-- title -->
<g id="node1" class="node">
<title>title</title>
<text text-anchor="start" x="74.7" y="-409.3" font-family="Helvetica Neue" font-weight="bold" font-size="14.00">4. Type&#45;Directed Repair</text>
<text text-anchor="start" x="12.2" y="-399.3" font-family="Helvetica Neue" font-size="9.00" fill="#666666">Deterministic shuffle insertion fixes type mismatches after mutation</text>
</g>
<!-- mutated -->
<g id="node2" class="node">
<title>mutated</title>
<path fill="#d0021b" stroke="black" stroke-width="1.5" d="M256.2,-331C256.2,-331 78.2,-331 78.2,-331 72.2,-331 66.2,-325 66.2,-319 66.2,-319 66.2,-307 66.2,-307 66.2,-301 72.2,-295 78.2,-295 78.2,-295 256.2,-295 256.2,-295 262.2,-295 268.2,-301 268.2,-307 268.2,-307 268.2,-319 268.2,-319 268.2,-325 262.2,-331 256.2,-331"/>
<text text-anchor="start" x="133.7" y="-314.8" font-family="Helvetica Neue" font-weight="bold" font-size="9.00" fill="white">Mutated AST</text>
<text text-anchor="start" x="84.7" y="-307.4" font-family="Helvetica Neue" font-size="7.00" fill="#ffb3b3">May have type mismatches at WordCall sites</text>
</g>
<!-- title&#45;&gt;mutated -->
<!-- repair -->
<g id="node3" class="node">
<title>repair</title>
<path fill="#7bc67e" stroke="#5ba65e" stroke-width="3" d="M502.2,-227C502.2,-227 224.2,-227 224.2,-227 218.2,-227 212.2,-221 212.2,-215 212.2,-215 212.2,-93 212.2,-93 212.2,-87 218.2,-81 224.2,-81 224.2,-81 502.2,-81 502.2,-81 508.2,-81 514.2,-87 514.2,-93 514.2,-93 514.2,-215 514.2,-215 514.2,-221 508.2,-227 502.2,-227"/>
<text text-anchor="start" x="290.7" y="-216.8" font-family="Helvetica Neue" font-weight="bold" font-size="9.00" fill="white">TypeRepair::repair(ast, dict)</text>
<text text-anchor="start" x="331.7" y="-208.6" font-family="Helvetica Neue" font-size="8.00" fill="#333333">type_repair.cpp</text>
<text text-anchor="start" x="303.7" y="-191.6" font-family="Helvetica Neue" font-size="8.00" fill="white">For each WordCall in the AST:</text>
<text text-anchor="start" x="280.7" y="-174.6" font-family="Helvetica Neue" font-size="8.00" fill="white">1. </text>
<text text-anchor="start" x="290.7" y="-174.6" font-family="Helvetica Neue" font-weight="bold" font-size="8.00" fill="white">Simulate type stack</text>
<text text-anchor="start" x="381.7" y="-174.6" font-family="Helvetica Neue" font-size="8.00" fill="white"> up to this point</text>
<text text-anchor="start" x="258.2" y="-166.6" font-family="Helvetica Neue" font-size="8.00" fill="white">2. </text>
<text text-anchor="start" x="268.2" y="-166.6" font-family="Helvetica Neue" font-weight="bold" font-size="8.00" fill="white">Lookup word&#39;s TypeSignature</text>
<text text-anchor="start" x="403.2" y="-166.6" font-family="Helvetica Neue" font-size="8.00" fill="white"> from Dictionary</text>
<text text-anchor="start" x="264.7" y="-158.6" font-family="Helvetica Neue" font-size="8.00" fill="white">3. </text>
<text text-anchor="start" x="274.7" y="-158.6" font-family="Helvetica Neue" font-weight="bold" font-size="8.00" fill="white">Compare</text>
<text text-anchor="start" x="314.7" y="-158.6" font-family="Helvetica Neue" font-size="8.00" fill="white"> stack TOS types vs expected inputs</text>
<text text-anchor="start" x="279.7" y="-150.6" font-family="Helvetica Neue" font-size="8.00" fill="white">4. On </text>
<text text-anchor="start" x="303.7" y="-150.6" font-family="Helvetica Neue" font-weight="bold" font-size="8.00" fill="white">mismatch</text>
<text text-anchor="start" x="347.7" y="-150.6" font-family="Helvetica Neue" font-size="8.00" fill="white">: search deeper in stack</text>
<text text-anchor="start" x="275.7" y="-142.6" font-family="Helvetica Neue" font-size="8.00" fill="white">5. </text>
<text text-anchor="start" x="285.7" y="-142.6" font-family="Helvetica Neue" font-weight="bold" font-size="8.00" fill="white">Insert minimal shuffle</text>
<text text-anchor="start" x="385.7" y="-142.6" font-family="Helvetica Neue" font-size="8.00" fill="white"> before the call:</text>
<text text-anchor="start" x="317.7" y="-126.4" font-family="Helvetica Neue" font-size="7.00" fill="#555555"> &#160;&#160;depth 1 → insert </text>
<text text-anchor="start" x="386.7" y="-126.4" font-family="Helvetica Neue" font-weight="bold" font-size="7.00" fill="#555555">swap</text>
<text text-anchor="start" x="322.7" y="-119.4" font-family="Helvetica Neue" font-size="7.00" fill="#555555"> &#160;&#160;depth 2 → insert </text>
<text text-anchor="start" x="391.7" y="-119.4" font-family="Helvetica Neue" font-weight="bold" font-size="7.00" fill="#555555">rot</text>
<text text-anchor="start" x="304.2" y="-112.4" font-family="Helvetica Neue" font-size="7.00" fill="#555555"> &#160;&#160;depth N → insert </text>
<text text-anchor="start" x="374.2" y="-112.4" font-family="Helvetica Neue" font-weight="bold" font-size="7.00" fill="#555555">push(N) roll</text>
<text text-anchor="start" x="266.7" y="-95.6" font-family="Helvetica Neue" font-size="8.00" fill="white">6. </text>
<text text-anchor="start" x="276.7" y="-95.6" font-family="Helvetica Neue" font-weight="bold" font-size="8.00" fill="white">Update simulated type stack</text>
<text text-anchor="start" x="407.7" y="-95.6" font-family="Helvetica Neue" font-size="8.00" fill="white"> after shuffle</text>
<text text-anchor="start" x="305.7" y="-87.6" font-family="Helvetica Neue" font-size="8.00" fill="white">7. Continue to next WordCall</text>
</g>
<!-- mutated&#45;&gt;repair -->
<g id="edge2" class="edge">
<title>mutated&#45;&gt;repair</title>
<path fill="none" stroke="#333333" stroke-width="2" d="M188.55,-294.9C207.33,-279.86 236.08,-256.83 264.86,-233.77"/>
<polygon fill="#333333" stroke="#333333" stroke-width="2" points="267.36,-236.26 272.98,-227.27 262.98,-230.79 267.36,-236.26"/>
<text text-anchor="middle" x="277.2" y="-248.1" font-family="Helvetica Neue" font-size="8.00"> &#160;mutated AST</text>
</g>
<!-- repaired -->
<g id="node5" class="node">
<title>repaired</title>
<path fill="#2e7d32" stroke="black" stroke-width="1.5" d="M334.2,-36C334.2,-36 178.2,-36 178.2,-36 172.2,-36 166.2,-30 166.2,-24 166.2,-24 166.2,-12 166.2,-12 166.2,-6 172.2,0 178.2,0 178.2,0 334.2,0 334.2,0 340.2,0 346.2,-6 346.2,-12 346.2,-12 346.2,-24 346.2,-24 346.2,-30 340.2,-36 334.2,-36"/>
<text text-anchor="start" x="221.7" y="-23.3" font-family="Helvetica Neue" font-weight="bold" font-size="9.00" fill="white">Repaired AST</text>
<text text-anchor="start" x="202.2" y="-15.9" font-family="Helvetica Neue" font-size="7.00" fill="#90ee90">All type mismatches resolved</text>
<text text-anchor="start" x="183.7" y="-8.9" font-family="Helvetica Neue" font-size="7.00" fill="#90ee90">Shuffle words inserted deterministically</text>
</g>
<!-- repair&#45;&gt;repaired -->
<g id="edge3" class="edge">
<title>repair&#45;&gt;repaired</title>
<path fill="none" stroke="#2e7d32" stroke-width="2" d="M305.63,-80.9C295.09,-67.7 284.77,-54.77 276.3,-44.17"/>
<polygon fill="#2e7d32" stroke="#2e7d32" stroke-width="2" points="278.92,-41.83 269.94,-36.2 273.45,-46.2 278.92,-41.83"/>
<text text-anchor="middle" x="300.7" y="-57.1" font-family="Helvetica Neue" font-size="8.00"> true</text>
</g>
<!-- failed -->
<g id="node6" class="node">
<title>failed</title>
<text text-anchor="start" x="409.7" y="-20.6" font-family="Helvetica Neue" font-weight="bold" font-size="8.00" fill="#c62828">Repair failed → return null</text>
<text text-anchor="start" x="396.2" y="-12.6" font-family="Helvetica Neue" font-size="8.00" fill="#c62828">Needed type not on stack anywhere</text>
</g>
<!-- repair&#45;&gt;failed -->
<g id="edge4" class="edge">
<title>repair&#45;&gt;failed</title>
<path fill="none" stroke="#c62828" stroke-dasharray="5,2" d="M420.78,-80.9C431.31,-67.7 441.64,-54.77 450.11,-44.17"/>
<polygon fill="#c62828" stroke="#c62828" points="452.96,-46.2 456.47,-36.2 447.49,-41.83 452.96,-46.2"/>
<text text-anchor="middle" x="452.7" y="-57.1" font-family="Helvetica Neue" font-size="8.00"> false</text>
</g>
<!-- example -->
<g id="node4" class="node">
<title>example</title>
<polygon fill="#fff3e0" stroke="#e65100" stroke-width="1.5" points="594.2,-353.5 312.2,-353.5 312.2,-272.5 600.2,-272.5 600.2,-347.5 594.2,-353.5"/>
<polyline fill="none" stroke="#e65100" stroke-width="1.5" points="594.2,-353.5 594.2,-347.5 "/>
<polyline fill="none" stroke="#e65100" stroke-width="1.5" points="600.2,-347.5 594.2,-347.5 "/>
<text text-anchor="start" x="352.2" y="-344.1" font-family="Helvetica Neue" font-weight="bold" font-size="8.00" fill="#333333">Example:</text>
<text text-anchor="start" x="394.2" y="-344.1" font-family="Helvetica Neue" font-size="8.00" fill="#333333"> substitute_call replaced mat+ with mat*</text>
<text text-anchor="start" x="367.7" y="-328.9" font-family="Helvetica Neue" font-size="7.00" fill="#333333">Before repair — stack has: [Float, Matrix, Matrix]</text>
<text text-anchor="start" x="361.2" y="-321.9" font-family="Helvetica Neue" font-size="7.00" fill="#333333">mat* expects: (Matrix, Matrix &#45;&#45; Matrix) ✓ OK at TOS</text>
<text text-anchor="start" x="367.7" y="-306.9" font-family="Helvetica Neue" font-size="7.00" fill="#333333">Before repair — stack has: [Matrix, Float, Matrix]</text>
<text text-anchor="start" x="384.7" y="-299.9" font-family="Helvetica Neue" font-size="7.00" fill="#333333">mat* expects: (Matrix, Matrix &#45;&#45; Matrix)</text>
<text text-anchor="start" x="367.2" y="-292.9" font-family="Helvetica Neue" font-size="7.00" fill="#c62828">✗ TOS is Matrix but depth&#45;1 is Float, need Matrix</text>
<text text-anchor="start" x="392.7" y="-285.9" font-family="Helvetica Neue" font-size="7.00" fill="#2e7d32">→ find Matrix at depth&#45;2, insert </text>
<text text-anchor="start" x="507.7" y="-285.9" font-family="Helvetica Neue" font-weight="bold" font-size="7.00" fill="#2e7d32">rot</text>
<text text-anchor="start" x="352.2" y="-278.9" font-family="Helvetica Neue" font-size="7.00" fill="#2e7d32">→ stack becomes [Float, Matrix, Matrix] → mat* proceeds</text>
</g>
<!-- example&#45;&gt;repair -->
<g id="edge5" class="edge">
<title>example&#45;&gt;repair</title>
<path fill="none" stroke="#e65100" stroke-dasharray="5,2" d="M432.74,-272.38C424.56,-258.57 415.11,-242.62 405.86,-227.01"/>
</g>
</g>
</svg>
