<?xml version="1.0" encoding="UTF-8" standalone="no"?>
<!DOCTYPE svg PUBLIC "-//W3C//DTD SVG 1.1//EN"
 "http://www.w3.org/Graphics/SVG/1.1/DTD/svg11.dtd">
<!-- Generated by graphviz version 2.43.0 (0)
 -->
<!-- Title: overview Pages: 1 -->
<svg width="651pt" height="690pt"
 viewBox="0.00 0.00 651.10 689.60" xmlns="http://www.w3.org/2000/svg" xmlns:xlink="http://www.w3.org/1999/xlink">
<g id="graph0" class="graph" transform="scale(1 1) rotate(0) translate(28.8 660.8)">
<title>overview</title>
<polygon fill="white" stroke="transparent" points="-28.8,28.8 -28.8,-660.8 622.3,-660.8 622.3,28.8 -28.8,28.8"/>
<g id="clust1" class="cluster">
<title>cluster_row1</title>
</g>
<g id="clust2" class="cluster">
<title>cluster_row2</title>
</g>
<g id="clust3" class="cluster">
<title>cluster_row3</title>
</g>
<!-- title -->
<g id="node1" class="node">
<title>title</title>
<text text-anchor="start" x="8" y="-598.6" font-family="Helvetica Neue" font-weight="bold" font-size="18.00">AST Mutation Pipeline</text>
<text text-anchor="start" x="42" y="-587" font-family="Helvetica Neue" font-size="10.00" fill="#666666">EvolutionEngine::evolve_word()</text>
</g>
<!-- parent -->
<g id="node2" class="node">
<title>parent</title>
<path fill="#9b9b9b" stroke="black" stroke-width="2" d="M377.5,-616C377.5,-616 297.5,-616 297.5,-616 291.5,-616 285.5,-610 285.5,-604 285.5,-604 285.5,-592 285.5,-592 285.5,-586 291.5,-580 297.5,-580 297.5,-580 377.5,-580 377.5,-580 383.5,-580 389.5,-586 389.5,-592 389.5,-592 389.5,-604 389.5,-604 389.5,-610 383.5,-616 377.5,-616"/>
<text text-anchor="start" x="319" y="-600" font-family="Helvetica Neue" font-weight="bold" font-size="10.00" fill="white">Parent</text>
<text text-anchor="start" x="293.5" y="-591.6" font-family="Helvetica Neue" font-size="8.00" fill="white">WordImpl + bytecode</text>
</g>
<!-- decompile -->
<g id="node3" class="node">
<title>decompile</title>
<path fill="#4a90d9" stroke="black" stroke-width="2" d="M399.5,-522C399.5,-522 275.5,-522 275.5,-522 269.5,-522 263.5,-516 263.5,-510 263.5,-510 263.5,-498 263.5,-498 263.5,-492 269.5,-486 275.5,-486 275.5,-486 399.5,-486 399.5,-486 405.5,-486 411.5,-492 411.5,-498 411.5,-498 411.5,-510 411.5,-510 411.5,-516 405.5,-522 399.5,-522"/>
<text text-anchor="start" x="305" y="-509.5" font-family="Helvetica Neue" font-weight="bold" font-size="10.00" fill="white">DECOMPILE</text>
<text text-anchor="start" x="271.5" y="-501.1" font-family="Helvetica Neue" font-size="8.00" fill="white">Marker&#45;based recursive descent</text>
<text text-anchor="start" x="298" y="-493.9" font-family="Helvetica Neue" font-size="7.00" fill="#dddddd">ByteCode → ASTNode</text>
</g>
<!-- parent&#45;&gt;decompile -->
<g id="edge1" class="edge">
<title>parent&#45;&gt;decompile</title>
<path fill="none" stroke="#333333" stroke-width="3" d="M337.5,-579.7C337.5,-566.46 337.5,-547.95 337.5,-532.66"/>
<polygon fill="#333333" stroke="#333333" stroke-width="3" points="341,-532.23 337.5,-522.23 334,-532.23 341,-532.23"/>
<text text-anchor="start" x="337.5" y="-549.4" font-family="Helvetica Neue" font-size="7.00"> bytecode </text>
</g>
<!-- mutate -->
<g id="node4" class="node">
<title>mutate</title>
<path fill="#d0021b" stroke="black" stroke-width="2" d="M408,-428C408,-428 267,-428 267,-428 261,-428 255,-422 255,-416 255,-416 255,-404 255,-404 255,-398 261,-392 267,-392 267,-392 408,-392 408,-392 414,-392 420,-398 420,-404 420,-404 420,-416 420,-416 420,-422 414,-428 408,-428"/>
<text text-anchor="start" x="315" y="-415.5" font-family="Helvetica Neue" font-weight="bold" font-size="10.00" fill="white">MUTATE</text>
<text text-anchor="start" x="263" y="-407.1" font-family="Helvetica Neue" font-size="8.00" fill="white">1 of 4 operators (random + fallback)</text>
<text text-anchor="start" x="299.5" y="-399.9" font-family="Helvetica Neue" font-size="7.00" fill="#ffcccc">ASTNode → ASTNode</text>
</g>
<!-- decompile&#45;&gt;mutate -->
<g id="edge2" class="edge">
<title>decompile&#45;&gt;mutate</title>
<path fill="none" stroke="#333333" stroke-width="3" d="M337.5,-485.7C337.5,-472.46 337.5,-453.95 337.5,-438.66"/>
<polygon fill="#333333" stroke="#333333" stroke-width="3" points="341,-438.23 337.5,-428.23 334,-438.23 341,-438.23"/>
<text text-anchor="start" x="337.5" y="-455.4" font-family="Helvetica Neue" font-size="7.00"> AST </text>
</g>
<!-- repair -->
<g id="node5" class="node">
<title>repair</title>
<path fill="#7bc67e" stroke="black" stroke-width="2" d="M260.5,-334C260.5,-334 144.5,-334 144.5,-334 138.5,-334 132.5,-328 132.5,-322 132.5,-322 132.5,-310 132.5,-310 132.5,-304 138.5,-298 144.5,-298 144.5,-298 260.5,-298 260.5,-298 266.5,-298 272.5,-304 272.5,-310 272.5,-310 272.5,-322 272.5,-322 272.5,-328 266.5,-334 260.5,-334"/>
<text text-anchor="start" x="182.5" y="-321.5" font-family="Helvetica Neue" font-weight="bold" font-size="10.00" fill="white">REPAIR</text>
<text text-anchor="start" x="140.5" y="-313.1" font-family="Helvetica Neue" font-size="8.00" fill="white">Type&#45;directed shuffle insertion</text>
<text text-anchor="start" x="164.5" y="-305.9" font-family="Helvetica Neue" font-size="7.00" fill="#333333">ASTNode → ASTNode</text>
</g>
<!-- mutate&#45;&gt;repair -->
<g id="edge5" class="edge">
<title>mutate&#45;&gt;repair</title>
<path fill="none" stroke="#333333" stroke-width="3" d="M312.42,-391.91C290.96,-377.29 259.88,-356.11 236.24,-339.99"/>
<polygon fill="#333333" stroke="#333333" stroke-width="3" points="238.13,-337.05 227.9,-334.31 234.19,-342.83 238.13,-337.05"/>
<text text-anchor="start" x="273.5" y="-361.4" font-family="Helvetica Neue" font-size="7.00"> mutated AST </text>
</g>
<!-- mutate_fail -->
<g id="node9" class="node">
<title>mutate_fail</title>
<text text-anchor="start" x="323.5" y="-315.1" font-family="Helvetica Neue" font-weight="bold" font-size="8.00" fill="#c62828">all 4 fail → discard</text>
</g>
<!-- mutate&#45;&gt;mutate_fail -->
<g id="edge7" class="edge">
<title>mutate&#45;&gt;mutate_fail</title>
<path fill="none" stroke="#c62828" stroke-width="1.5" stroke-dasharray="5,2" d="M342.77,-391.7C346.83,-378.33 352.54,-359.59 357.22,-344.22"/>
<polygon fill="#c62828" stroke="#c62828" stroke-width="1.5" points="360.69,-344.81 360.26,-334.23 354,-342.77 360.69,-344.81"/>
</g>
<!-- compile -->
<g id="node6" class="node">
<title>compile</title>
<path fill="#4a90d9" stroke="black" stroke-width="2" d="M263.5,-240C263.5,-240 125.5,-240 125.5,-240 119.5,-240 113.5,-234 113.5,-228 113.5,-228 113.5,-216 113.5,-216 113.5,-210 119.5,-204 125.5,-204 125.5,-204 263.5,-204 263.5,-204 269.5,-204 275.5,-210 275.5,-216 275.5,-216 275.5,-228 275.5,-228 275.5,-234 269.5,-240 263.5,-240"/>
<text text-anchor="start" x="169.5" y="-227.5" font-family="Helvetica Neue" font-weight="bold" font-size="10.00" fill="white">COMPILE</text>
<text text-anchor="start" x="121.5" y="-219.1" font-family="Helvetica Neue" font-size="8.00" fill="white">Recursive emission + backpatching</text>
<text text-anchor="start" x="155" y="-211.9" font-family="Helvetica Neue" font-size="7.00" fill="#dddddd">ASTNode → ByteCode</text>
</g>
<!-- repair&#45;&gt;compile -->
<g id="edge3" class="edge">
<title>repair&#45;&gt;compile</title>
<path fill="none" stroke="#333333" stroke-width="3" d="M201,-297.7C199.83,-284.33 198.2,-265.59 196.87,-250.22"/>
<polygon fill="#333333" stroke="#333333" stroke-width="3" points="200.35,-249.89 196,-240.23 193.38,-250.49 200.35,-249.89"/>
<text text-anchor="start" x="198.5" y="-267.4" font-family="Helvetica Neue" font-size="7.00"> repaired AST </text>
</g>
<!-- repair_fail -->
<g id="node10" class="node">
<title>repair_fail</title>
<text text-anchor="start" x="327" y="-221.1" font-family="Helvetica Neue" font-weight="bold" font-size="8.00" fill="#c62828">unrepairable → discard</text>
</g>
<!-- repair&#45;&gt;repair_fail -->
<g id="edge8" class="edge">
<title>repair&#45;&gt;repair_fail</title>
<path fill="none" stroke="#c62828" stroke-width="1.5" stroke-dasharray="5,2" d="M235.38,-297.91C264.22,-282.92 306.32,-261.03 337.58,-244.79"/>
<polygon fill="#c62828" stroke="#c62828" stroke-width="1.5" points="339.24,-247.87 346.5,-240.15 336.01,-241.66 339.24,-247.87"/>
</g>
<!-- evaluate -->
<g id="node7" class="node">
<title>evaluate</title>
<path fill="#f5a623" stroke="black" stroke-width="2" d="M251.5,-146C251.5,-146 137.5,-146 137.5,-146 131.5,-146 125.5,-140 125.5,-134 125.5,-134 125.5,-122 125.5,-122 125.5,-116 131.5,-110 137.5,-110 137.5,-110 251.5,-110 251.5,-110 257.5,-110 263.5,-116 263.5,-122 263.5,-122 263.5,-134 263.5,-134 263.5,-140 257.5,-146 251.5,-146"/>
<text text-anchor="start" x="167" y="-133.5" font-family="Helvetica Neue" font-weight="bold" font-size="10.00" fill="white">EVALUATE</text>
<text text-anchor="start" x="133.5" y="-125.1" font-family="Helvetica Neue" font-size="8.00" fill="white">Run test cases, assign fitness</text>
<text text-anchor="start" x="159" y="-117.9" font-family="Helvetica Neue" font-size="7.00" fill="#333333">ByteCode → weight</text>
</g>
<!-- compile&#45;&gt;evaluate -->
<g id="edge6" class="edge">
<title>compile&#45;&gt;evaluate</title>
<path fill="none" stroke="#333333" stroke-width="3" d="M194.5,-203.7C194.5,-190.46 194.5,-171.95 194.5,-156.66"/>
<polygon fill="#333333" stroke="#333333" stroke-width="3" points="198,-156.23 194.5,-146.23 191,-156.23 198,-156.23"/>
<text text-anchor="start" x="194.5" y="-173.4" font-family="Helvetica Neue" font-size="7.00"> bytecode </text>
</g>
<!-- register -->
<g id="node8" class="node">
<title>register</title>
<path fill="#9c27b0" stroke="black" stroke-width="2" d="M258.5,-52C258.5,-52 130.5,-52 130.5,-52 124.5,-52 118.5,-46 118.5,-40 118.5,-40 118.5,-28 118.5,-28 118.5,-22 124.5,-16 130.5,-16 130.5,-16 258.5,-16 258.5,-16 264.5,-16 270.5,-22 270.5,-28 270.5,-28 270.5,-40 270.5,-40 270.5,-46 264.5,-52 258.5,-52"/>
<text text-anchor="start" x="167" y="-39.5" font-family="Helvetica Neue" font-weight="bold" font-size="10.00" fill="white">REGISTER</text>
<text text-anchor="start" x="126.5" y="-31.1" font-family="Helvetica Neue" font-size="8.00" fill="white">Add to Dictionary, prune weakest</text>
<text text-anchor="start" x="159.5" y="-23.9" font-family="Helvetica Neue" font-size="7.00" fill="white">WordImplPtr → Dict</text>
</g>
<!-- evaluate&#45;&gt;register -->
<g id="edge4" class="edge">
<title>evaluate&#45;&gt;register</title>
<path fill="none" stroke="#333333" stroke-width="3" d="M194.5,-109.7C194.5,-96.46 194.5,-77.95 194.5,-62.66"/>
<polygon fill="#333333" stroke="#333333" stroke-width="3" points="198,-62.23 194.5,-52.23 191,-62.23 198,-62.23"/>
<text text-anchor="start" x="194.5" y="-79.4" font-family="Helvetica Neue" font-size="7.00"> weighted child </text>
</g>
<!-- register&#45;&gt;parent -->
<g id="edge9" class="edge">
<title>register&#45;&gt;parent</title>
<path fill="none" stroke="#f5a623" stroke-width="2.5" stroke-dasharray="5,2" d="M255.08,-52.09C319.36,-73.83 417.58,-118.23 461.5,-196 533.01,-322.63 503.64,-394.61 433.5,-522 421.33,-544.11 399.64,-561.91 379.96,-574.6"/>
<polygon fill="#f5a623" stroke="#f5a623" stroke-width="2.5" points="378.05,-571.67 371.39,-579.9 381.73,-577.62 378.05,-571.67"/>
<text text-anchor="start" x="513" y="-318.6" font-family="Helvetica Neue" font-size="8.00"> next generation:</text>
<text text-anchor="start" x="502.5" y="-309.6" font-family="Helvetica Neue" font-size="8.00"> child becomes parent</text>
</g>
</g>
</svg>
