<?xml version="1.0" encoding="UTF-8" standalone="no"?>
<!DOCTYPE svg PUBLIC "-//W3C//DTD SVG 1.1//EN"
 "http://www.w3.org/Graphics/SVG/1.1/DTD/svg11.dtd">
<!-- Generated by graphviz version 2.43.0 (0)
 -->
<!-- Title: seq05 Pages: 1 -->
<svg width="562pt" height="394pt"
 viewBox="0.00 0.00 562.00 394.14" xmlns="http://www.w3.org/2000/svg" xmlns:xlink="http://www.w3.org/1999/xlink">
<g id="graph0" class="graph" transform="scale(0.89 0.89) rotate(0) translate(21.6 427.4)">
<title>seq05</title>
<polygon fill="white" stroke="transparent" points="-21.6,14.4 -21.6,-427.4 608.36,-427.4 608.36,14.4 -21.6,14.4"/>
<!-- title -->
<g id="node1" class="node">
<title>title</title>
<text text-anchor="start" x="39.89" y="-396.3" font-family="Helvetica Neue" font-weight="bold" font-size="14.00">5. Compile: AST → Bytecode</text>
<text text-anchor="start" x="43.89" y="-386.3" font-family="Helvetica Neue" font-size="9.00" fill="#666666">Recursive emission with branch backpatching</text>
</g>
<!-- ast -->
<g id="node2" class="node">
<title>ast</title>
<path fill="#2e7d32" stroke="black" stroke-width="1.5" d="M226.39,-332C226.39,-332 70.39,-332 70.39,-332 64.39,-332 58.39,-326 58.39,-320 58.39,-320 58.39,-308 58.39,-308 58.39,-302 64.39,-296 70.39,-296 70.39,-296 226.39,-296 226.39,-296 232.39,-296 238.39,-302 238.39,-308 238.39,-308 238.39,-320 238.39,-320 238.39,-326 232.39,-332 226.39,-332"/>
<text text-anchor="start" x="113.89" y="-315.8" font-family="Helvetica Neue" font-weight="bold" font-size="9.00" fill="white">Repaired AST</text>
<text text-anchor="start" x="98.89" y="-308.4" font-family="Helvetica Neue" font-size="7.00" fill="#90ee90">Type&#45;safe, shuffles inserted</text>
</g>
<!-- title&#45;&gt;ast -->
<!-- compiler -->
<g id="node3" class="node">
<title>compiler</title>
<path fill="#7bc67e" stroke="#5ba65e" stroke-width="3" d="M485.39,-243C485.39,-243 207.39,-243 207.39,-243 201.39,-243 195.39,-237 195.39,-231 195.39,-231 195.39,-127 195.39,-127 195.39,-121 201.39,-115 207.39,-115 207.39,-115 485.39,-115 485.39,-115 491.39,-115 497.39,-121 497.39,-127 497.39,-127 497.39,-231 497.39,-231 497.39,-237 491.39,-243 485.39,-243"/>
<text text-anchor="start" x="278.39" y="-232.8" font-family="Helvetica Neue" font-weight="bold" font-size="9.00" fill="white">ASTCompiler::compile(ast)</text>
<text text-anchor="start" x="311.89" y="-224.6" font-family="Helvetica Neue" font-size="8.00" fill="#333333">ast_compiler.cpp</text>
<text text-anchor="start" x="247.39" y="-207.6" font-family="Helvetica Neue" font-size="8.00" fill="white">Recursive </text>
<text text-anchor="start" x="290.39" y="-207.6" font-family="Helvetica Neue" font-weight="bold" font-size="8.00" fill="white">emit(bc, node)</text>
<text text-anchor="start" x="357.39" y="-207.6" font-family="Helvetica Neue" font-size="8.00" fill="white"> switch on node kind:</text>
<text text-anchor="start" x="277.89" y="-191.4" font-family="Helvetica Neue" font-weight="bold" font-size="7.00" fill="#555555">Sequence</text>
<text text-anchor="start" x="317.89" y="-191.4" font-family="Helvetica Neue" font-size="7.00" fill="#555555"> → emit each child in order</text>
<text text-anchor="start" x="252.39" y="-184.4" font-family="Helvetica Neue" font-weight="bold" font-size="7.00" fill="#555555">Literal</text>
<text text-anchor="start" x="277.39" y="-184.4" font-family="Helvetica Neue" font-size="7.00" fill="#555555"> → PushInt / PushFloat / PushBool / PushString</text>
<text text-anchor="start" x="264.89" y="-177.4" font-family="Helvetica Neue" font-weight="bold" font-size="7.00" fill="#555555">WordCall</text>
<text text-anchor="start" x="300.89" y="-177.4" font-family="Helvetica Neue" font-size="7.00" fill="#555555"> → Call instruction with word name</text>
<text text-anchor="start" x="255.39" y="-170.4" font-family="Helvetica Neue" font-weight="bold" font-size="7.00" fill="#555555">IfThen</text>
<text text-anchor="start" x="280.39" y="-170.4" font-family="Helvetica Neue" font-size="7.00" fill="#555555"> → BlockBegin + BranchIfFalse(placeholder)</text>
<text text-anchor="start" x="252.89" y="-163.4" font-family="Helvetica Neue" font-size="7.00" fill="#555555"> &#160;&#160;&#160;&#160;&#160;&#160;&#160;&#160;emit body, backpatch jump target + BlockEnd</text>
<text text-anchor="start" x="254.89" y="-156.4" font-family="Helvetica Neue" font-weight="bold" font-size="7.00" fill="#555555">IfThenElse</text>
<text text-anchor="start" x="295.89" y="-156.4" font-family="Helvetica Neue" font-size="7.00" fill="#555555"> → same + BlockSeparator + else body</text>
<text text-anchor="start" x="263.89" y="-149.4" font-family="Helvetica Neue" font-weight="bold" font-size="7.00" fill="#555555">DoLoop</text>
<text text-anchor="start" x="293.89" y="-149.4" font-family="Helvetica Neue" font-size="7.00" fill="#555555"> → BlockBegin + DoSetup, emit body,</text>
<text text-anchor="start" x="279.89" y="-142.4" font-family="Helvetica Neue" font-size="7.00" fill="#555555"> &#160;&#160;&#160;&#160;&#160;&#160;&#160;&#160;DoLoop(back&#45;jump) + BlockEnd</text>
<text text-anchor="start" x="278.39" y="-135.4" font-family="Helvetica Neue" font-weight="bold" font-size="7.00" fill="#555555">BeginUntil</text>
<text text-anchor="start" x="320.39" y="-135.4" font-family="Helvetica Neue" font-size="7.00" fill="#555555"> → BlockBegin, emit body,</text>
<text text-anchor="start" x="264.89" y="-128.4" font-family="Helvetica Neue" font-size="7.00" fill="#555555"> &#160;&#160;&#160;&#160;&#160;&#160;&#160;&#160;&#160;&#160;&#160;&#160;BranchIfFalse(back&#45;jump) + BlockEnd</text>
<text text-anchor="start" x="262.89" y="-121.4" font-family="Helvetica Neue" font-weight="bold" font-size="7.00" fill="#555555">Leave</text>
<text text-anchor="start" x="285.89" y="-121.4" font-family="Helvetica Neue" font-size="7.00" fill="#555555"> → backpatch_leaves() targets loop end</text>
</g>
<!-- ast&#45;&gt;compiler -->
<g id="edge2" class="edge">
<title>ast&#45;&gt;compiler</title>
<path fill="none" stroke="#333333" stroke-width="2" d="M173.87,-295.88C192.06,-283.67 217.84,-266.35 243.93,-248.82"/>
<polygon fill="#333333" stroke="#333333" stroke-width="2" points="246.06,-251.61 252.41,-243.13 242.16,-245.8 246.06,-251.61"/>
<text text-anchor="middle" x="247.39" y="-268.1" font-family="Helvetica Neue" font-size="8.00"> &#160;repaired tree</text>
</g>
<!-- bytecode -->
<g id="node4" class="node">
<title>bytecode</title>
<path fill="#4a90d9" stroke="black" stroke-width="1.5" d="M442.39,-62C442.39,-62 250.39,-62 250.39,-62 244.39,-62 238.39,-56 238.39,-50 238.39,-50 238.39,-12 238.39,-12 238.39,-6 244.39,0 250.39,0 250.39,0 442.39,0 442.39,0 448.39,0 454.39,-6 454.39,-12 454.39,-12 454.39,-50 454.39,-50 454.39,-56 448.39,-62 442.39,-62"/>
<text text-anchor="start" x="309.39" y="-51.8" font-family="Helvetica Neue" font-weight="bold" font-size="9.00" fill="white">New ByteCode</text>
<text text-anchor="start" x="297.89" y="-43.6" font-family="Helvetica Neue" font-size="8.00" fill="#333333">shared_ptr&lt;ByteCode&gt;</text>
<text text-anchor="start" x="295.89" y="-27.4" font-family="Helvetica Neue" font-size="7.00" fill="white">Flat instruction vector with:</text>
<text text-anchor="start" x="266.39" y="-20.4" font-family="Helvetica Neue" font-size="7.00" fill="white">• Marker opcodes (for future decompilation)</text>
<text text-anchor="start" x="291.89" y="-13.4" font-family="Helvetica Neue" font-size="7.00" fill="white">• Backpatched branch targets</text>
<text text-anchor="start" x="275.39" y="-6.4" font-family="Helvetica Neue" font-size="7.00" fill="white">• Ready for inner interpreter execution</text>
</g>
<!-- compiler&#45;&gt;bytecode -->
<g id="edge3" class="edge">
<title>compiler&#45;&gt;bytecode</title>
<path fill="none" stroke="#333333" stroke-width="2" d="M346.39,-114.81C346.39,-100.34 346.39,-85.34 346.39,-72.15"/>
<polygon fill="#333333" stroke="#333333" stroke-width="2" points="349.89,-72.01 346.39,-62.01 342.89,-72.01 349.89,-72.01"/>
<text text-anchor="middle" x="385.89" y="-87.1" font-family="Helvetica Neue" font-size="8.00"> &#160;new instructions[]</text>
</g>
<!-- roundtrip -->
<g id="node5" class="node">
<title>roundtrip</title>
<polygon fill="#fff3e0" stroke="#e65100" stroke-width="1.5" points="550.39,-332 338.39,-332 338.39,-296 556.39,-296 556.39,-326 550.39,-332"/>
<polyline fill="none" stroke="#e65100" stroke-width="1.5" points="550.39,-332 550.39,-326 "/>
<polyline fill="none" stroke="#e65100" stroke-width="1.5" points="556.39,-326 550.39,-326 "/>
<text text-anchor="start" x="378.89" y="-319.6" font-family="Helvetica Neue" font-weight="bold" font-size="8.00" fill="#333333">Round&#45;trip fidelity guarantee:</text>
<text text-anchor="start" x="346.39" y="-312.4" font-family="Helvetica Neue" font-size="7.00" fill="#333333">decompile(compile(decompile(BC))) == decompile(BC)</text>
<text text-anchor="start" x="359.89" y="-305.4" font-family="Helvetica Neue" font-size="7.00" fill="#bf360c">Markers ensure no structural information is lost.</text>
</g>
<!-- roundtrip&#45;&gt;compiler -->
<g id="edge4" class="edge">
<title>roundtrip&#45;&gt;compiler</title>
<path fill="none" stroke="#e65100" stroke-dasharray="5,2" d="M434.4,-295.88C424.11,-282.34 409.08,-262.55 394.33,-243.13"/>
</g>
</g>
</svg>
