<?xml version="1.0" encoding="UTF-8" standalone="no"?>
<!DOCTYPE svg PUBLIC "-//W3C//DTD SVG 1.1//EN"
 "http://www.w3.org/Graphics/SVG/1.1/DTD/svg11.dtd">
<!-- Generated by graphviz version 2.43.0 (0)
 -->
<!-- Title: overview Pages: 1 -->
<svg width="1893pt" height="568pt"
 viewBox="0.00 0.00 1893.40 567.86" xmlns="http://www.w3.org/2000/svg" xmlns:xlink="http://www.w3.org/1999/xlink">
<g id="graph0" class="graph" transform="scale(1 1) rotate(0) translate(43.2 524.66)">
<title>overview</title>
<polygon fill="white" stroke="transparent" points="-43.2,43.2 -43.2,-524.66 1850.2,-524.66 1850.2,43.2 -43.2,43.2"/>
<g id="clust1" class="cluster">
<title>cluster_operators</title>
<path fill="#feecec" stroke="#d0021b" stroke-width="1.5" d="M114,-204.46C114,-204.46 1107,-204.46 1107,-204.46 1113,-204.46 1119,-210.46 1119,-216.46 1119,-216.46 1119,-279.46 1119,-279.46 1119,-285.46 1113,-291.46 1107,-291.46 1107,-291.46 114,-291.46 114,-291.46 108,-291.46 102,-285.46 102,-279.46 102,-279.46 102,-216.46 102,-216.46 102,-210.46 108,-204.46 114,-204.46"/>
<text text-anchor="start" x="110" y="-280.46" font-family="Helvetica Neue" font-weight="bold" font-size="10.00" fill="#333333">4 Mutation Operators</text>
</g>
<g id="clust2" class="cluster">
<title>cluster_repair</title>
<path fill="#f0fff0" stroke="#7bc67e" stroke-width="1.5" d="M121,-299.46C121,-299.46 1100,-299.46 1100,-299.46 1106,-299.46 1112,-305.46 1112,-311.46 1112,-311.46 1112,-370.46 1112,-370.46 1112,-376.46 1106,-382.46 1100,-382.46 1100,-382.46 121,-382.46 121,-382.46 115,-382.46 109,-376.46 109,-370.46 109,-370.46 109,-311.46 109,-311.46 109,-305.46 115,-299.46 121,-299.46"/>
<text text-anchor="start" x="117" y="-371.46" font-family="Helvetica Neue" font-weight="bold" font-size="10.00" fill="#333333">Shuffle Insertion Rules</text>
</g>
<g id="clust3" class="cluster">
<title>cluster_selection</title>
<path fill="#f5eef8" stroke="#9c27b0" stroke-width="1.5" d="M106.5,-390.46C106.5,-390.46 1127,-390.46 1127,-390.46 1133,-390.46 1139,-396.46 1139,-402.46 1139,-402.46 1139,-461.46 1139,-461.46 1139,-467.46 1133,-473.46 1127,-473.46 1127,-473.46 106.5,-473.46 106.5,-473.46 100.5,-473.46 94.5,-467.46 94.5,-461.46 94.5,-461.46 94.5,-402.46 94.5,-402.46 94.5,-396.46 100.5,-390.46 106.5,-390.46"/>
<text text-anchor="start" x="102.5" y="-462.46" font-family="Helvetica Neue" font-weight="bold" font-size="10.00" fill="#333333">SelectionEngine Strategies</text>
</g>
<!-- title -->
<g id="node1" class="node">
<title>title</title>
<text text-anchor="start" x="62" y="-47.06" font-family="Helvetica Neue" font-weight="bold" font-size="18.00">AST Mutation Pipeline</text>
<text text-anchor="start" x="8" y="-34.66" font-family="Helvetica Neue" font-size="11.00" fill="#666666">EvolutionEngine::evolve_word() → ASTGeneticOps::mutate()</text>
<text text-anchor="start" x="17" y="-25.26" font-family="Helvetica Neue" font-size="9.00" fill="#999999">Bytecode → AST → Mutate → Repair → Compile → Evaluate → Register</text>
</g>
<!-- parent -->
<g id="node2" class="node">
<title>parent</title>
<path fill="#9b9b9b" stroke="black" stroke-width="1.5" d="M197.5,-143.46C197.5,-143.46 149.5,-143.46 149.5,-143.46 143.5,-143.46 137.5,-137.46 137.5,-131.46 137.5,-131.46 137.5,-119.46 137.5,-119.46 137.5,-113.46 143.5,-107.46 149.5,-107.46 149.5,-107.46 197.5,-107.46 197.5,-107.46 203.5,-107.46 209.5,-113.46 209.5,-119.46 209.5,-119.46 209.5,-131.46 209.5,-131.46 209.5,-137.46 203.5,-143.46 197.5,-143.46"/>
<text text-anchor="start" x="156.5" y="-130.76" font-family="Helvetica Neue" font-weight="bold" font-size="9.00" fill="white">Parent</text>
<text text-anchor="start" x="147" y="-123.36" font-family="Helvetica Neue" font-size="7.00" fill="white">WordImpl with</text>
<text text-anchor="start" x="156.5" y="-116.36" font-family="Helvetica Neue" font-size="7.00" fill="white">bytecode</text>
</g>
<!-- decompile -->
<g id="node3" class="node">
<title>decompile</title>
<path fill="#4a90d9" stroke="black" stroke-width="1.5" d="M573,-148.46C573,-148.46 489,-148.46 489,-148.46 483,-148.46 477,-142.46 477,-136.46 477,-136.46 477,-114.46 477,-114.46 477,-108.46 483,-102.46 489,-102.46 489,-102.46 573,-102.46 573,-102.46 579,-102.46 585,-108.46 585,-114.46 585,-114.46 585,-136.46 585,-136.46 585,-142.46 579,-148.46 573,-148.46"/>
<text text-anchor="start" x="501.5" y="-138.26" font-family="Helvetica Neue" font-weight="bold" font-size="9.00" fill="white">DECOMPILE</text>
<text text-anchor="start" x="506.5" y="-130.86" font-family="Helvetica Neue" font-size="7.00" fill="white">Marker&#45;based</text>
<text text-anchor="start" x="498.5" y="-123.86" font-family="Helvetica Neue" font-size="7.00" fill="white">recursive descent</text>
<text text-anchor="start" x="497.5" y="-108.66" font-family="Helvetica Neue" font-size="6.00" fill="white">ByteCode → ASTNode</text>
</g>
<!-- parent&#45;&gt;decompile -->
<g id="edge1" class="edge">
<title>parent&#45;&gt;decompile</title>
<path fill="none" stroke="#333333" stroke-width="3" d="M209.56,-125.46C269.29,-125.46 391.57,-125.46 466.61,-125.46"/>
<polygon fill="#333333" stroke="#333333" stroke-width="3" points="466.87,-128.96 476.87,-125.46 466.87,-121.96 466.87,-128.96"/>
<text text-anchor="start" x="383" y="-127.86" font-family="Helvetica Neue" font-size="7.00"> bytecode</text>
</g>
<!-- mutate -->
<g id="node4" class="node">
<title>mutate</title>
<path fill="#d0021b" stroke="black" stroke-width="1.5" d="M813.5,-148.46C813.5,-148.46 729.5,-148.46 729.5,-148.46 723.5,-148.46 717.5,-142.46 717.5,-136.46 717.5,-136.46 717.5,-114.46 717.5,-114.46 717.5,-108.46 723.5,-102.46 729.5,-102.46 729.5,-102.46 813.5,-102.46 813.5,-102.46 819.5,-102.46 825.5,-108.46 825.5,-114.46 825.5,-114.46 825.5,-136.46 825.5,-136.46 825.5,-142.46 819.5,-148.46 813.5,-148.46"/>
<text text-anchor="start" x="751.5" y="-138.26" font-family="Helvetica Neue" font-weight="bold" font-size="9.00" fill="white">MUTATE</text>
<text text-anchor="start" x="742.5" y="-130.86" font-family="Helvetica Neue" font-size="7.00" fill="white">1 of 4 operators</text>
<text text-anchor="start" x="735" y="-123.86" font-family="Helvetica Neue" font-size="7.00" fill="white">(random + fallback)</text>
<text text-anchor="start" x="739.5" y="-108.66" font-family="Helvetica Neue" font-size="6.00" fill="white">ASTNode → ASTNode</text>
</g>
<!-- decompile&#45;&gt;mutate -->
<g id="edge2" class="edge">
<title>decompile&#45;&gt;mutate</title>
<path fill="none" stroke="#333333" stroke-width="3" d="M585.23,-125.46C621.24,-125.46 668.99,-125.46 706.99,-125.46"/>
<polygon fill="#333333" stroke="#333333" stroke-width="3" points="707.44,-128.96 717.44,-125.46 707.44,-121.96 707.44,-128.96"/>
<text text-anchor="start" x="642" y="-127.86" font-family="Helvetica Neue" font-size="7.00"> AST</text>
</g>
<!-- repair -->
<g id="node5" class="node">
<title>repair</title>
<path fill="#7bc67e" stroke="black" stroke-width="1.5" d="M1089.5,-177.46C1089.5,-177.46 1005.5,-177.46 1005.5,-177.46 999.5,-177.46 993.5,-171.46 993.5,-165.46 993.5,-165.46 993.5,-143.46 993.5,-143.46 993.5,-137.46 999.5,-131.46 1005.5,-131.46 1005.5,-131.46 1089.5,-131.46 1089.5,-131.46 1095.5,-131.46 1101.5,-137.46 1101.5,-143.46 1101.5,-143.46 1101.5,-165.46 1101.5,-165.46 1101.5,-171.46 1095.5,-177.46 1089.5,-177.46"/>
<text text-anchor="start" x="1029.5" y="-167.26" font-family="Helvetica Neue" font-weight="bold" font-size="9.00" fill="white">REPAIR</text>
<text text-anchor="start" x="1023" y="-159.86" font-family="Helvetica Neue" font-size="7.00" fill="white">Type&#45;directed</text>
<text text-anchor="start" x="1018" y="-152.86" font-family="Helvetica Neue" font-size="7.00" fill="white">shuffle insertion</text>
<text text-anchor="start" x="1015.5" y="-137.66" font-family="Helvetica Neue" font-size="6.00" fill="white">ASTNode → ASTNode</text>
</g>
<!-- mutate&#45;&gt;repair -->
<g id="edge3" class="edge">
<title>mutate&#45;&gt;repair</title>
<path fill="none" stroke="#333333" stroke-width="3" d="M825.65,-131.08C870.75,-135.86 935.53,-142.71 983.27,-147.77"/>
<polygon fill="#333333" stroke="#333333" stroke-width="3" points="983.18,-151.28 993.49,-148.85 983.92,-144.31 983.18,-151.28"/>
<text text-anchor="start" x="885" y="-144.86" font-family="Helvetica Neue" font-size="7.00"> mutated AST</text>
</g>
<!-- mutate_fail -->
<g id="node9" class="node">
<title>mutate_fail</title>
<text text-anchor="start" x="1020.5" y="-72.86" font-family="Helvetica Neue" font-size="7.00" fill="#c62828">all 4 operators</text>
<text text-anchor="start" x="1023" y="-64.86" font-family="Helvetica Neue" font-size="7.00" fill="#c62828">fail → discard</text>
</g>
<!-- mutate&#45;&gt;mutate_fail -->
<g id="edge7" class="edge">
<title>mutate&#45;&gt;mutate_fail</title>
<path fill="none" stroke="#c62828" stroke-dasharray="5,2" d="M825.65,-114.79C877.09,-104.46 954.14,-89 1002.31,-79.33"/>
<polygon fill="#c62828" stroke="#c62828" points="1003.01,-82.76 1012.13,-77.36 1001.63,-75.89 1003.01,-82.76"/>
</g>
<!-- compile -->
<g id="node6" class="node">
<title>compile</title>
<path fill="#4a90d9" stroke="black" stroke-width="1.5" d="M1342,-224.46C1342,-224.46 1258,-224.46 1258,-224.46 1252,-224.46 1246,-218.46 1246,-212.46 1246,-212.46 1246,-190.46 1246,-190.46 1246,-184.46 1252,-178.46 1258,-178.46 1258,-178.46 1342,-178.46 1342,-178.46 1348,-178.46 1354,-184.46 1354,-190.46 1354,-190.46 1354,-212.46 1354,-212.46 1354,-218.46 1348,-224.46 1342,-224.46"/>
<text text-anchor="start" x="1277" y="-214.26" font-family="Helvetica Neue" font-weight="bold" font-size="9.00" fill="white">COMPILE</text>
<text text-anchor="start" x="1265" y="-206.86" font-family="Helvetica Neue" font-size="7.00" fill="white">Recursive emission</text>
<text text-anchor="start" x="1271.5" y="-199.86" font-family="Helvetica Neue" font-size="7.00" fill="white">+ backpatching</text>
<text text-anchor="start" x="1266.5" y="-184.66" font-family="Helvetica Neue" font-size="6.00" fill="white">ASTNode → ByteCode</text>
</g>
<!-- repair&#45;&gt;compile -->
<g id="edge4" class="edge">
<title>repair&#45;&gt;compile</title>
<path fill="none" stroke="#333333" stroke-width="3" d="M1101.62,-164.43C1140.9,-171.79 1194.52,-181.86 1235.96,-189.63"/>
<polygon fill="#333333" stroke="#333333" stroke-width="3" points="1235.48,-193.1 1245.95,-191.51 1236.77,-186.22 1235.48,-193.1"/>
<text text-anchor="start" x="1161" y="-186.86" font-family="Helvetica Neue" font-size="7.00"> repaired AST</text>
</g>
<!-- repair_fail -->
<g id="node10" class="node">
<title>repair_fail</title>
<text text-anchor="start" x="1267" y="-119.86" font-family="Helvetica Neue" font-size="7.00" fill="#c62828">type unrepairable</text>
<text text-anchor="start" x="1282.5" y="-111.86" font-family="Helvetica Neue" font-size="7.00" fill="#c62828">→ discard</text>
</g>
<!-- repair&#45;&gt;repair_fail -->
<g id="edge8" class="edge">
<title>repair&#45;&gt;repair_fail</title>
<path fill="none" stroke="#c62828" stroke-dasharray="5,2" d="M1101.62,-146.61C1145.01,-140.2 1205.91,-131.21 1248.55,-124.91"/>
<polygon fill="#c62828" stroke="#c62828" points="1249.33,-128.33 1258.71,-123.41 1248.31,-121.41 1249.33,-128.33"/>
</g>
<!-- evaluate -->
<g id="node7" class="node">
<title>evaluate</title>
<path fill="#f5a623" stroke="black" stroke-width="1.5" d="M1559,-224.46C1559,-224.46 1475,-224.46 1475,-224.46 1469,-224.46 1463,-218.46 1463,-212.46 1463,-212.46 1463,-190.46 1463,-190.46 1463,-184.46 1469,-178.46 1475,-178.46 1475,-178.46 1559,-178.46 1559,-178.46 1565,-178.46 1571,-184.46 1571,-190.46 1571,-190.46 1571,-212.46 1571,-212.46 1571,-218.46 1565,-224.46 1559,-224.46"/>
<text text-anchor="start" x="1492.5" y="-214.26" font-family="Helvetica Neue" font-weight="bold" font-size="9.00" fill="white">EVALUATE</text>
<text text-anchor="start" x="1490.5" y="-206.86" font-family="Helvetica Neue" font-size="7.00" fill="white">Run test cases</text>
<text text-anchor="start" x="1492" y="-199.86" font-family="Helvetica Neue" font-size="7.00" fill="white">assign fitness</text>
<text text-anchor="start" x="1487" y="-184.66" font-family="Helvetica Neue" font-size="6.00" fill="white">ByteCode → weight</text>
</g>
<!-- compile&#45;&gt;evaluate -->
<g id="edge5" class="edge">
<title>compile&#45;&gt;evaluate</title>
<path fill="none" stroke="#333333" stroke-width="3" d="M1354.15,-201.46C1383.86,-201.46 1421.1,-201.46 1452.37,-201.46"/>
<polygon fill="#333333" stroke="#333333" stroke-width="3" points="1452.72,-204.96 1462.72,-201.46 1452.72,-197.96 1452.72,-204.96"/>
<text text-anchor="start" x="1390" y="-203.86" font-family="Helvetica Neue" font-size="7.00"> bytecode</text>
</g>
<!-- register -->
<g id="node8" class="node">
<title>register</title>
<path fill="#9c27b0" stroke="black" stroke-width="1.5" d="M1795,-224.46C1795,-224.46 1711,-224.46 1711,-224.46 1705,-224.46 1699,-218.46 1699,-212.46 1699,-212.46 1699,-190.46 1699,-190.46 1699,-184.46 1705,-178.46 1711,-178.46 1711,-178.46 1795,-178.46 1795,-178.46 1801,-178.46 1807,-184.46 1807,-190.46 1807,-190.46 1807,-212.46 1807,-212.46 1807,-218.46 1801,-224.46 1795,-224.46"/>
<text text-anchor="start" x="1728.5" y="-214.26" font-family="Helvetica Neue" font-weight="bold" font-size="9.00" fill="white">REGISTER</text>
<text text-anchor="start" x="1721" y="-206.86" font-family="Helvetica Neue" font-size="7.00" fill="white">Add to Dictionary</text>
<text text-anchor="start" x="1726" y="-199.86" font-family="Helvetica Neue" font-size="7.00" fill="white">prune weakest</text>
<text text-anchor="start" x="1724" y="-184.66" font-family="Helvetica Neue" font-size="6.00" fill="white">WordImplPtr → Dict</text>
</g>
<!-- evaluate&#45;&gt;register -->
<g id="edge6" class="edge">
<title>evaluate&#45;&gt;register</title>
<path fill="none" stroke="#333333" stroke-width="3" d="M1571.1,-201.46C1605.98,-201.46 1651.79,-201.46 1688.59,-201.46"/>
<polygon fill="#333333" stroke="#333333" stroke-width="3" points="1688.71,-204.96 1698.71,-201.46 1688.71,-197.96 1688.71,-204.96"/>
<text text-anchor="start" x="1607" y="-203.86" font-family="Helvetica Neue" font-size="7.00"> weighted child</text>
</g>
<!-- register&#45;&gt;parent -->
<g id="edge9" class="edge">
<title>register&#45;&gt;parent</title>
<path fill="none" stroke="#f5a623" stroke-width="2" stroke-dasharray="5,2" d="M1698.98,-184.62C1622.78,-160.5 1477.83,-114.89 1354,-77.46 1258.69,-48.65 1237.56,-28.6 1139,-14.46 837.12,28.86 757.85,-36.96 456,-80.46 372.3,-92.52 274.93,-108.53 219.42,-117.84"/>
<polygon fill="#f5a623" stroke="#f5a623" stroke-width="2" points="218.84,-114.39 209.56,-119.5 220,-121.29 218.84,-114.39"/>
<text text-anchor="start" x="1015.5" y="-24.86" font-family="Helvetica Neue" font-size="7.00"> next generation:</text>
<text text-anchor="start" x="1007" y="-16.86" font-family="Helvetica Neue" font-size="7.00"> child becomes parent</text>
</g>
<!-- op1 -->
<g id="node11" class="node">
<title>op1</title>
<path fill="#d0021b" stroke="black" stroke-width="1.5" d="M219,-258.46C219,-258.46 128,-258.46 128,-258.46 122,-258.46 116,-252.46 116,-246.46 116,-246.46 116,-230.46 116,-230.46 116,-224.46 122,-218.46 128,-218.46 128,-218.46 219,-218.46 219,-218.46 225,-218.46 231,-224.46 231,-230.46 231,-230.46 231,-246.46 231,-246.46 231,-252.46 225,-258.46 219,-258.46"/>
<text text-anchor="start" x="140" y="-249.06" font-family="Helvetica Neue" font-weight="bold" font-size="8.00" fill="white">substitute_call</text>
<text text-anchor="start" x="140" y="-242.66" font-family="Helvetica Neue" font-size="6.00" fill="white">Replace WordCall with</text>
<text text-anchor="start" x="137" y="-236.66" font-family="Helvetica Neue" font-size="6.00" fill="white">semantically compatible</text>
<text text-anchor="start" x="137.5" y="-230.66" font-family="Helvetica Neue" font-size="6.00" fill="white">alternative (tiered tags:</text>
<text text-anchor="start" x="131.5" y="-224.66" font-family="Helvetica Neue" font-size="6.00" fill="white">L1 60% / L2 25% / L3 15%)</text>
</g>
<!-- op2 -->
<g id="node12" class="node">
<title>op2</title>
<path fill="#d0021b" stroke="black" stroke-width="1.5" d="M576.5,-256.46C576.5,-256.46 485.5,-256.46 485.5,-256.46 479.5,-256.46 473.5,-250.46 473.5,-244.46 473.5,-244.46 473.5,-232.46 473.5,-232.46 473.5,-226.46 479.5,-220.46 485.5,-220.46 485.5,-220.46 576.5,-220.46 576.5,-220.46 582.5,-220.46 588.5,-226.46 588.5,-232.46 588.5,-232.46 588.5,-244.46 588.5,-244.46 588.5,-250.46 582.5,-256.46 576.5,-256.46"/>
<text text-anchor="start" x="492" y="-246.06" font-family="Helvetica Neue" font-weight="bold" font-size="8.00" fill="white">perturb_constant</text>
<text text-anchor="start" x="503.5" y="-239.66" font-family="Helvetica Neue" font-size="6.00" fill="white">Gaussian noise on</text>
<text text-anchor="start" x="508" y="-233.66" font-family="Helvetica Neue" font-size="6.00" fill="white">numeric literals</text>
<text text-anchor="start" x="503.5" y="-227.66" font-family="Helvetica Neue" font-size="6.00" fill="white">σ = 0.1 × |value|</text>
</g>
<!-- op1&#45;&gt;op2 -->
<!-- op3 -->
<g id="node13" class="node">
<title>op3</title>
<path fill="#d0021b" stroke="black" stroke-width="1.5" d="M817,-256.46C817,-256.46 726,-256.46 726,-256.46 720,-256.46 714,-250.46 714,-244.46 714,-244.46 714,-232.46 714,-232.46 714,-226.46 720,-220.46 726,-220.46 726,-220.46 817,-220.46 817,-220.46 823,-220.46 829,-226.46 829,-232.46 829,-232.46 829,-244.46 829,-244.46 829,-250.46 823,-256.46 817,-256.46"/>
<text text-anchor="start" x="745.5" y="-246.06" font-family="Helvetica Neue" font-weight="bold" font-size="8.00" fill="white">move_block</text>
<text text-anchor="start" x="744" y="-239.66" font-family="Helvetica Neue" font-size="6.00" fill="white">Relocate WordCall</text>
<text text-anchor="start" x="746.5" y="-233.66" font-family="Helvetica Neue" font-size="6.00" fill="white">within Sequence</text>
<text text-anchor="start" x="742.5" y="-227.66" font-family="Helvetica Neue" font-size="6.00" fill="white">(reorder execution)</text>
</g>
<!-- op2&#45;&gt;op3 -->
<!-- op4 -->
<g id="node14" class="node">
<title>op4</title>
<path fill="#d0021b" stroke="black" stroke-width="1.5" d="M1093,-256.46C1093,-256.46 1002,-256.46 1002,-256.46 996,-256.46 990,-250.46 990,-244.46 990,-244.46 990,-232.46 990,-232.46 990,-226.46 996,-220.46 1002,-220.46 1002,-220.46 1093,-220.46 1093,-220.46 1099,-220.46 1105,-226.46 1105,-232.46 1105,-232.46 1105,-244.46 1105,-244.46 1105,-250.46 1099,-256.46 1093,-256.46"/>
<text text-anchor="start" x="1002" y="-246.06" font-family="Helvetica Neue" font-weight="bold" font-size="8.00" fill="white">mutate_control_flow</text>
<text text-anchor="start" x="1021.5" y="-239.66" font-family="Helvetica Neue" font-size="6.00" fill="white">Wrap WordCall in</text>
<text text-anchor="start" x="1021" y="-233.66" font-family="Helvetica Neue" font-size="6.00" fill="white">if/then or unwrap</text>
<text text-anchor="start" x="1024.5" y="-227.66" font-family="Helvetica Neue" font-size="6.00" fill="white">existing if/then</text>
</g>
<!-- op3&#45;&gt;op4 -->
<!-- r1 -->
<g id="node15" class="node">
<title>r1</title>
<path fill="#7bc67e" stroke="black" stroke-width="1.5" d="M212,-349.46C212,-349.46 135,-349.46 135,-349.46 129,-349.46 123,-343.46 123,-337.46 123,-337.46 123,-325.46 123,-325.46 123,-319.46 129,-313.46 135,-313.46 135,-313.46 212,-313.46 212,-313.46 218,-313.46 224,-319.46 224,-325.46 224,-325.46 224,-337.46 224,-337.46 224,-343.46 218,-349.46 212,-349.46"/>
<text text-anchor="start" x="140" y="-330.56" font-family="Helvetica Neue" font-size="8.00" fill="white">depth 1 → </text>
<text text-anchor="start" x="183" y="-330.56" font-family="Helvetica Neue" font-weight="bold" font-size="8.00" fill="white">swap</text>
</g>
<!-- r2 -->
<g id="node16" class="node">
<title>r2</title>
<path fill="#7bc67e" stroke="black" stroke-width="1.5" d="M569.5,-349.46C569.5,-349.46 492.5,-349.46 492.5,-349.46 486.5,-349.46 480.5,-343.46 480.5,-337.46 480.5,-337.46 480.5,-325.46 480.5,-325.46 480.5,-319.46 486.5,-313.46 492.5,-313.46 492.5,-313.46 569.5,-313.46 569.5,-313.46 575.5,-313.46 581.5,-319.46 581.5,-325.46 581.5,-325.46 581.5,-337.46 581.5,-337.46 581.5,-343.46 575.5,-349.46 569.5,-349.46"/>
<text text-anchor="start" x="503" y="-330.56" font-family="Helvetica Neue" font-size="8.00" fill="white">depth 2 → </text>
<text text-anchor="start" x="546" y="-330.56" font-family="Helvetica Neue" font-weight="bold" font-size="8.00" fill="white">rot</text>
</g>
<!-- r1&#45;&gt;r2 -->
<!-- r3 -->
<g id="node17" class="node">
<title>r3</title>
<path fill="#7bc67e" stroke="black" stroke-width="1.5" d="M817,-349.46C817,-349.46 726,-349.46 726,-349.46 720,-349.46 714,-343.46 714,-337.46 714,-337.46 714,-325.46 714,-325.46 714,-319.46 720,-313.46 726,-313.46 726,-313.46 817,-313.46 817,-313.46 823,-313.46 829,-319.46 829,-325.46 829,-325.46 829,-337.46 829,-337.46 829,-343.46 823,-349.46 817,-349.46"/>
<text text-anchor="start" x="722" y="-330.56" font-family="Helvetica Neue" font-size="8.00" fill="white">depth N → </text>
<text text-anchor="start" x="766" y="-330.56" font-family="Helvetica Neue" font-weight="bold" font-size="8.00" fill="white">push(N) roll</text>
</g>
<!-- r2&#45;&gt;r3 -->
<!-- r4 -->
<g id="node18" class="node">
<title>r4</title>
<path fill="#c62828" stroke="black" stroke-width="1.5" d="M1086,-349.46C1086,-349.46 1009,-349.46 1009,-349.46 1003,-349.46 997,-343.46 997,-337.46 997,-337.46 997,-325.46 997,-325.46 997,-319.46 1003,-313.46 1009,-313.46 1009,-313.46 1086,-313.46 1086,-313.46 1092,-313.46 1098,-319.46 1098,-325.46 1098,-325.46 1098,-337.46 1098,-337.46 1098,-343.46 1092,-349.46 1086,-349.46"/>
<text text-anchor="start" x="1008.5" y="-330.56" font-family="Helvetica Neue" font-size="8.00" fill="white">not found → </text>
<text text-anchor="start" x="1060.5" y="-330.56" font-family="Helvetica Neue" font-weight="bold" font-size="8.00" fill="white">reject</text>
</g>
<!-- r3&#45;&gt;r4 -->
<!-- s1 -->
<g id="node19" class="node">
<title>s1</title>
<path fill="#9c27b0" stroke="black" stroke-width="1.5" d="M226.5,-440.46C226.5,-440.46 120.5,-440.46 120.5,-440.46 114.5,-440.46 108.5,-434.46 108.5,-428.46 108.5,-428.46 108.5,-416.46 108.5,-416.46 108.5,-410.46 114.5,-404.46 120.5,-404.46 120.5,-404.46 226.5,-404.46 226.5,-404.46 232.5,-404.46 238.5,-410.46 238.5,-416.46 238.5,-416.46 238.5,-428.46 238.5,-428.46 238.5,-434.46 232.5,-440.46 226.5,-440.46"/>
<text text-anchor="start" x="122.5" y="-421.56" font-family="Helvetica Neue" font-weight="bold" font-size="8.00" fill="white">Latest</text>
<text text-anchor="start" x="150.5" y="-421.56" font-family="Helvetica Neue" font-size="8.00" fill="white"> — always newest</text>
</g>
<!-- s2 -->
<g id="node20" class="node">
<title>s2</title>
<path fill="#9c27b0" stroke="black" stroke-width="1.5" d="M594,-440.46C594,-440.46 468,-440.46 468,-440.46 462,-440.46 456,-434.46 456,-428.46 456,-428.46 456,-416.46 456,-416.46 456,-410.46 462,-404.46 468,-404.46 468,-404.46 594,-404.46 594,-404.46 600,-404.46 606,-410.46 606,-416.46 606,-416.46 606,-428.46 606,-428.46 606,-434.46 600,-440.46 594,-440.46"/>
<text text-anchor="start" x="464" y="-421.56" font-family="Helvetica Neue" font-weight="bold" font-size="8.00" fill="white">WeightedRandom</text>
<text text-anchor="start" x="545" y="-421.56" font-family="Helvetica Neue" font-size="8.00" fill="white"> — by fitness</text>
</g>
<!-- s1&#45;&gt;s2 -->
<!-- s3 -->
<g id="node21" class="node">
<title>s3</title>
<path fill="#9c27b0" stroke="black" stroke-width="1.5" d="M837,-440.46C837,-440.46 706,-440.46 706,-440.46 700,-440.46 694,-434.46 694,-428.46 694,-428.46 694,-416.46 694,-416.46 694,-410.46 700,-404.46 706,-404.46 706,-404.46 837,-404.46 837,-404.46 843,-404.46 849,-410.46 849,-416.46 849,-416.46 849,-428.46 849,-428.46 849,-434.46 843,-440.46 837,-440.46"/>
<text text-anchor="start" x="702" y="-421.56" font-family="Helvetica Neue" font-weight="bold" font-size="8.00" fill="white">EpsilonGreedy</text>
<text text-anchor="start" x="768" y="-421.56" font-family="Helvetica Neue" font-size="8.00" fill="white"> — exploit/explore</text>
</g>
<!-- s2&#45;&gt;s3 -->
<!-- s4 -->
<g id="node22" class="node">
<title>s4</title>
<path fill="#9c27b0" stroke="black" stroke-width="1.5" d="M1113,-440.46C1113,-440.46 982,-440.46 982,-440.46 976,-440.46 970,-434.46 970,-428.46 970,-428.46 970,-416.46 970,-416.46 970,-410.46 976,-404.46 982,-404.46 982,-404.46 1113,-404.46 1113,-404.46 1119,-404.46 1125,-410.46 1125,-416.46 1125,-416.46 1125,-428.46 1125,-428.46 1125,-434.46 1119,-440.46 1113,-440.46"/>
<text text-anchor="start" x="978" y="-421.56" font-family="Helvetica Neue" font-weight="bold" font-size="8.00" fill="white">UCB1</text>
<text text-anchor="start" x="1003" y="-421.56" font-family="Helvetica Neue" font-size="8.00" fill="white"> — upper confidence bound</text>
</g>
<!-- s3&#45;&gt;s4 -->
</g>
</svg>
